<mxfile host="Electron" modified="2024-02-08T12:13:03.398Z" agent="Mozilla/5.0 (Windows NT 10.0; Win64; x64) AppleWebKit/537.36 (KHTML, like Gecko) draw.io/23.0.2 Chrome/120.0.6099.109 Electron/28.1.0 Safari/537.36" etag="FG2nAwb-29uGYFO5Itjt" version="23.0.2" type="device" pages="5">
  <diagram id="kgpKYQtTHZ0yAKxKKP6v" name="Page flow">
    <mxGraphModel dx="1418" dy="828" grid="1" gridSize="10" guides="1" tooltips="1" connect="1" arrows="1" fold="1" page="1" pageScale="1" pageWidth="827" pageHeight="1169" math="0" shadow="0">
      <root>
        <mxCell id="0" />
        <mxCell id="1" parent="0" />
        <mxCell id="W0sx3qLAFG47UurR3J45-2" value="Vuejs" style="swimlane;whiteSpace=wrap;html=1;dashed=1;fillColor=#d5e8d4;strokeColor=#82b366;rounded=1;" parent="1" vertex="1">
          <mxGeometry x="150" y="100" width="240" height="710" as="geometry">
            <mxRectangle x="150" y="100" width="70" height="30" as="alternateBounds" />
          </mxGeometry>
        </mxCell>
        <mxCell id="W0sx3qLAFG47UurR3J45-10" value="데이터 관리" style="swimlane;rounded=1;" parent="W0sx3qLAFG47UurR3J45-2" vertex="1">
          <mxGeometry x="50" y="40" width="140" height="480" as="geometry" />
        </mxCell>
        <mxCell id="W0sx3qLAFG47UurR3J45-11" value="계좌 카드 관리" style="shape=note;whiteSpace=wrap;html=1;backgroundOutline=1;darkOpacity=0.05;size=16;rounded=1;" parent="W0sx3qLAFG47UurR3J45-10" vertex="1">
          <mxGeometry x="40" y="130" width="60" height="80" as="geometry" />
        </mxCell>
        <mxCell id="W0sx3qLAFG47UurR3J45-12" value="&lt;div style=&quot;background-color: rgb(255, 255, 254); font-family: Consolas, &amp;quot;Courier New&amp;quot;, monospace; line-height: 19px;&quot;&gt;&lt;font style=&quot;font-size: 12px;&quot;&gt;거래 표 입력&lt;/font&gt;&lt;/div&gt;" style="shape=note;whiteSpace=wrap;html=1;backgroundOutline=1;darkOpacity=0.05;size=16;rounded=1;" parent="W0sx3qLAFG47UurR3J45-10" vertex="1">
          <mxGeometry x="40" y="230" width="60" height="80" as="geometry" />
        </mxCell>
        <mxCell id="W0sx3qLAFG47UurR3J45-13" value="&lt;div style=&quot;background-color: rgb(255, 255, 254); font-family: Consolas, &amp;quot;Courier New&amp;quot;, monospace; line-height: 19px;&quot;&gt;&lt;font style=&quot;font-size: 12px;&quot;&gt;개별 거래&lt;/font&gt;&lt;/div&gt;&lt;div style=&quot;background-color: rgb(255, 255, 254); font-family: Consolas, &amp;quot;Courier New&amp;quot;, monospace; line-height: 19px;&quot;&gt;관리&lt;/div&gt;" style="shape=note;whiteSpace=wrap;html=1;backgroundOutline=1;darkOpacity=0.05;size=16;rounded=1;" parent="W0sx3qLAFG47UurR3J45-10" vertex="1">
          <mxGeometry x="40" y="330" width="60" height="80" as="geometry" />
        </mxCell>
        <mxCell id="W0sx3qLAFG47UurR3J45-14" value="&lt;div style=&quot;background-color: rgb(255, 255, 254); font-family: Consolas, &amp;quot;Courier New&amp;quot;, monospace; line-height: 19px;&quot;&gt;카테고리 관리&lt;/div&gt;" style="shape=note;whiteSpace=wrap;html=1;backgroundOutline=1;darkOpacity=0.05;size=16;rounded=1;" parent="W0sx3qLAFG47UurR3J45-10" vertex="1">
          <mxGeometry x="40" y="30" width="60" height="80" as="geometry" />
        </mxCell>
        <mxCell id="HfqvEOdUiU-7AvDZIqYo-6" value="" style="endArrow=classic;html=1;rounded=1;exitX=1;exitY=0.5;exitDx=0;exitDy=0;strokeColor=#555555;" parent="W0sx3qLAFG47UurR3J45-10" source="HfqvEOdUiU-7AvDZIqYo-4" edge="1">
          <mxGeometry relative="1" as="geometry">
            <mxPoint x="-120" y="269.58" as="sourcePoint" />
            <mxPoint x="40" y="269.58" as="targetPoint" />
            <Array as="points">
              <mxPoint x="-10" y="270" />
            </Array>
          </mxGeometry>
        </mxCell>
        <mxCell id="HfqvEOdUiU-7AvDZIqYo-7" value="&lt;i&gt;&lt;font color=&quot;#555555&quot;&gt;INPUT&lt;/font&gt;&lt;/i&gt;" style="edgeLabel;resizable=0;html=1;align=center;verticalAlign=middle;rounded=1;" parent="HfqvEOdUiU-7AvDZIqYo-6" connectable="0" vertex="1">
          <mxGeometry relative="1" as="geometry" />
        </mxCell>
        <mxCell id="HfqvEOdUiU-7AvDZIqYo-8" value="xlsx or xls" style="edgeLabel;resizable=0;html=1;align=left;verticalAlign=bottom;rounded=1;" parent="HfqvEOdUiU-7AvDZIqYo-6" connectable="0" vertex="1">
          <mxGeometry x="-1" relative="1" as="geometry">
            <mxPoint x="-30" y="30" as="offset" />
          </mxGeometry>
        </mxCell>
        <mxCell id="W0sx3qLAFG47UurR3J45-15" value="가계부" style="shape=note;whiteSpace=wrap;html=1;backgroundOutline=1;darkOpacity=0.05;size=16;rounded=1;" parent="W0sx3qLAFG47UurR3J45-2" vertex="1">
          <mxGeometry x="90" y="530" width="60" height="80" as="geometry" />
        </mxCell>
        <mxCell id="W0sx3qLAFG47UurR3J45-16" value="자산 분석" style="shape=note;whiteSpace=wrap;html=1;backgroundOutline=1;darkOpacity=0.05;size=16;rounded=1;" parent="W0sx3qLAFG47UurR3J45-2" vertex="1">
          <mxGeometry x="90" y="620" width="60" height="80" as="geometry" />
        </mxCell>
        <mxCell id="W0sx3qLAFG47UurR3J45-3" value="Django" style="swimlane;whiteSpace=wrap;html=1;dashed=1;dashPattern=8 8;fillColor=#d5e8d4;strokeColor=#99CCFF;rounded=1;" parent="1" vertex="1">
          <mxGeometry x="440" y="100" width="320" height="490" as="geometry">
            <mxRectangle x="440" y="100" width="80" height="30" as="alternateBounds" />
          </mxGeometry>
        </mxCell>
        <mxCell id="W0sx3qLAFG47UurR3J45-19" value="&lt;font style=&quot;font-size: 31px;&quot;&gt;API&lt;br&gt;(DRF)&lt;br&gt;&lt;/font&gt;" style="whiteSpace=wrap;html=1;aspect=fixed;fillColor=#ffe6cc;strokeColor=#d79b00;rounded=1;" parent="W0sx3qLAFG47UurR3J45-3" vertex="1">
          <mxGeometry x="190" y="160" width="90" height="90" as="geometry" />
        </mxCell>
        <mxCell id="W0sx3qLAFG47UurR3J45-20" value="&lt;span style=&quot;font-size: 24px;&quot;&gt;APP&lt;/span&gt;" style="rounded=1;whiteSpace=wrap;html=1;fillColor=#d5e8d4;strokeColor=#82b366;" parent="W0sx3qLAFG47UurR3J45-3" vertex="1">
          <mxGeometry x="190" y="380" width="95" height="80" as="geometry" />
        </mxCell>
        <mxCell id="W0sx3qLAFG47UurR3J45-23" value="계좌&lt;br&gt;데이터" style="shape=card;whiteSpace=wrap;html=1;size=20;fillColor=#ffe6cc;strokeColor=#d79b00;rounded=1;" parent="W0sx3qLAFG47UurR3J45-3" vertex="1">
          <mxGeometry x="40" y="170" width="60" height="75" as="geometry" />
        </mxCell>
        <mxCell id="W0sx3qLAFG47UurR3J45-24" value="거래,투자&lt;br&gt;데이터" style="shape=card;whiteSpace=wrap;html=1;size=20;fillColor=#ffe6cc;strokeColor=#d79b00;rounded=1;" parent="W0sx3qLAFG47UurR3J45-3" vertex="1">
          <mxGeometry x="40" y="270" width="60" height="70" as="geometry" />
        </mxCell>
        <mxCell id="W0sx3qLAFG47UurR3J45-25" value="분석&lt;br&gt;데이터" style="shape=card;whiteSpace=wrap;html=1;size=20;fillColor=#ffe6cc;strokeColor=#d79b00;rounded=1;" parent="W0sx3qLAFG47UurR3J45-3" vertex="1">
          <mxGeometry x="40" y="370" width="60" height="70" as="geometry" />
        </mxCell>
        <mxCell id="W0sx3qLAFG47UurR3J45-26" value="기타&lt;br&gt;데이터" style="shape=card;whiteSpace=wrap;html=1;size=20;fillColor=#ffe6cc;strokeColor=#d79b00;rounded=1;" parent="W0sx3qLAFG47UurR3J45-3" vertex="1">
          <mxGeometry x="40" y="70" width="60" height="80" as="geometry" />
        </mxCell>
        <mxCell id="W0sx3qLAFG47UurR3J45-27" value="" style="endArrow=none;html=1;rounded=1;entryX=1;entryY=0.5;entryDx=0;entryDy=0;entryPerimeter=0;exitX=0;exitY=1;exitDx=0;exitDy=0;" parent="W0sx3qLAFG47UurR3J45-3" source="W0sx3qLAFG47UurR3J45-19" target="W0sx3qLAFG47UurR3J45-25" edge="1">
          <mxGeometry width="50" height="50" relative="1" as="geometry">
            <mxPoint x="200" y="310" as="sourcePoint" />
            <mxPoint x="150" y="285" as="targetPoint" />
            <Array as="points">
              <mxPoint x="190" y="355" />
            </Array>
          </mxGeometry>
        </mxCell>
        <mxCell id="W0sx3qLAFG47UurR3J45-31" value="" style="endArrow=none;html=1;rounded=1;entryX=1;entryY=0.5;entryDx=0;entryDy=0;entryPerimeter=0;" parent="W0sx3qLAFG47UurR3J45-3" target="W0sx3qLAFG47UurR3J45-23" edge="1">
          <mxGeometry width="50" height="50" relative="1" as="geometry">
            <mxPoint x="190" y="180" as="sourcePoint" />
            <mxPoint x="120" y="170" as="targetPoint" />
            <Array as="points">
              <mxPoint x="120" y="180" />
            </Array>
          </mxGeometry>
        </mxCell>
        <mxCell id="W0sx3qLAFG47UurR3J45-32" value="" style="endArrow=none;html=1;rounded=1;" parent="W0sx3qLAFG47UurR3J45-3" edge="1">
          <mxGeometry width="50" height="50" relative="1" as="geometry">
            <mxPoint x="190" y="230" as="sourcePoint" />
            <mxPoint x="100" y="300" as="targetPoint" />
            <Array as="points">
              <mxPoint x="160" y="230" />
              <mxPoint x="160" y="300" />
            </Array>
          </mxGeometry>
        </mxCell>
        <mxCell id="W0sx3qLAFG47UurR3J45-30" value="" style="endArrow=none;html=1;rounded=1;entryX=1.028;entryY=0.424;entryDx=0;entryDy=0;entryPerimeter=0;exitX=0;exitY=0;exitDx=0;exitDy=0;" parent="W0sx3qLAFG47UurR3J45-3" source="W0sx3qLAFG47UurR3J45-19" target="W0sx3qLAFG47UurR3J45-26" edge="1">
          <mxGeometry width="50" height="50" relative="1" as="geometry">
            <mxPoint x="140" y="270" as="sourcePoint" />
            <mxPoint x="110" y="380" as="targetPoint" />
            <Array as="points">
              <mxPoint x="190" y="104" />
            </Array>
          </mxGeometry>
        </mxCell>
        <mxCell id="W0sx3qLAFG47UurR3J45-49" value="" style="endArrow=classic;html=1;rounded=1;entryX=0.5;entryY=0;entryDx=0;entryDy=0;exitX=0.5;exitY=1;exitDx=0;exitDy=0;fontColor=default;dashed=1;strokeColor=#CC99FF;flowAnimation=1;" parent="W0sx3qLAFG47UurR3J45-3" source="W0sx3qLAFG47UurR3J45-19" target="W0sx3qLAFG47UurR3J45-20" edge="1">
          <mxGeometry relative="1" as="geometry">
            <mxPoint x="280" y="280" as="sourcePoint" />
            <mxPoint x="300" y="280" as="targetPoint" />
            <Array as="points">
              <mxPoint x="260" y="320" />
            </Array>
          </mxGeometry>
        </mxCell>
        <mxCell id="W0sx3qLAFG47UurR3J45-50" value="&lt;font color=&quot;#666666&quot;&gt;Request&lt;br&gt;(with Data)&lt;/font&gt;" style="edgeLabel;resizable=0;html=1;align=center;verticalAlign=middle;rounded=1;" parent="W0sx3qLAFG47UurR3J45-49" connectable="0" vertex="1">
          <mxGeometry relative="1" as="geometry" />
        </mxCell>
        <mxCell id="W0sx3qLAFG47UurR3J45-45" value="" style="endArrow=classic;html=1;rounded=1;exitX=0.5;exitY=0;exitDx=0;exitDy=0;entryX=0.5;entryY=1;entryDx=0;entryDy=0;fontColor=#808080;dashed=1;strokeColor=#666666;flowAnimation=1;" parent="W0sx3qLAFG47UurR3J45-3" source="W0sx3qLAFG47UurR3J45-20" target="W0sx3qLAFG47UurR3J45-19" edge="1">
          <mxGeometry relative="1" as="geometry">
            <mxPoint x="200" y="340" as="sourcePoint" />
            <mxPoint x="260" y="280" as="targetPoint" />
            <Array as="points">
              <mxPoint x="210" y="320" />
            </Array>
          </mxGeometry>
        </mxCell>
        <mxCell id="W0sx3qLAFG47UurR3J45-46" value="&lt;font color=&quot;#666666&quot;&gt;Data&lt;/font&gt;" style="edgeLabel;resizable=0;html=1;align=center;verticalAlign=middle;rounded=1;" parent="W0sx3qLAFG47UurR3J45-45" connectable="0" vertex="1">
          <mxGeometry relative="1" as="geometry" />
        </mxCell>
        <mxCell id="W0sx3qLAFG47UurR3J45-17" value="&lt;font style=&quot;font-size: 18px;&quot;&gt;DB&lt;br&gt;(MySQL)&lt;/font&gt;" style="shape=cylinder3;whiteSpace=wrap;html=1;boundedLbl=1;backgroundOutline=1;size=15;fillColor=#dae8fc;strokeColor=#6c8ebf;rounded=1;" parent="1" vertex="1">
          <mxGeometry x="617.5" y="670" width="120" height="140" as="geometry" />
        </mxCell>
        <mxCell id="W0sx3qLAFG47UurR3J45-21" value="&lt;font style=&quot;font-size: 72px;&quot;&gt;V0.2~&lt;/font&gt;" style="text;html=1;strokeColor=none;fillColor=none;align=center;verticalAlign=middle;whiteSpace=wrap;rounded=1;" parent="1" vertex="1">
          <mxGeometry width="200" height="90" as="geometry" />
        </mxCell>
        <mxCell id="W0sx3qLAFG47UurR3J45-33" value="&lt;font color=&quot;#0000ff&quot;&gt;CRUD&lt;/font&gt;" style="endArrow=classic;startArrow=classic;html=1;rounded=1;entryX=1;entryY=0.371;entryDx=0;entryDy=0;entryPerimeter=0;strokeColor=#0000FF;exitX=-0.042;exitY=0.424;exitDx=0;exitDy=0;exitPerimeter=0;" parent="1" source="W0sx3qLAFG47UurR3J45-23" target="W0sx3qLAFG47UurR3J45-11" edge="1">
          <mxGeometry width="50" height="50" relative="1" as="geometry">
            <mxPoint x="480" y="190" as="sourcePoint" />
            <mxPoint x="320" y="460" as="targetPoint" />
          </mxGeometry>
        </mxCell>
        <mxCell id="W0sx3qLAFG47UurR3J45-37" value="R" style="endArrow=classic;html=1;rounded=1;entryX=0;entryY=0;entryDx=60;entryDy=16;entryPerimeter=0;exitX=-0.028;exitY=0.807;exitDx=0;exitDy=0;exitPerimeter=0;" parent="1" source="W0sx3qLAFG47UurR3J45-23" target="W0sx3qLAFG47UurR3J45-12" edge="1">
          <mxGeometry x="0.25" width="50" height="50" relative="1" as="geometry">
            <mxPoint x="480" y="210" as="sourcePoint" />
            <mxPoint x="240" y="350" as="targetPoint" />
            <Array as="points">
              <mxPoint x="370" y="330" />
              <mxPoint x="370" y="386" />
            </Array>
            <mxPoint as="offset" />
          </mxGeometry>
        </mxCell>
        <mxCell id="W0sx3qLAFG47UurR3J45-38" value="R" style="endArrow=classic;html=1;rounded=1;entryX=0;entryY=0;entryDx=60;entryDy=48;entryPerimeter=0;exitX=0;exitY=1;exitDx=0;exitDy=0;" parent="1" source="W0sx3qLAFG47UurR3J45-3" target="W0sx3qLAFG47UurR3J45-15" edge="1">
          <mxGeometry width="50" height="50" relative="1" as="geometry">
            <mxPoint x="440" y="530" as="sourcePoint" />
            <mxPoint x="360" y="680" as="targetPoint" />
            <Array as="points" />
          </mxGeometry>
        </mxCell>
        <mxCell id="W0sx3qLAFG47UurR3J45-39" value="R" style="endArrow=classic;html=1;rounded=1;entryX=0;entryY=0;entryDx=60;entryDy=48;entryPerimeter=0;exitX=0;exitY=1;exitDx=0;exitDy=0;" parent="1" source="W0sx3qLAFG47UurR3J45-3" target="W0sx3qLAFG47UurR3J45-16" edge="1">
          <mxGeometry width="50" height="50" relative="1" as="geometry">
            <mxPoint x="460" y="650" as="sourcePoint" />
            <mxPoint x="360" y="760" as="targetPoint" />
          </mxGeometry>
        </mxCell>
        <mxCell id="W0sx3qLAFG47UurR3J45-35" value="R" style="endArrow=classic;html=1;rounded=1;exitX=0;exitY=1;exitDx=0;exitDy=0;exitPerimeter=0;entryX=0.958;entryY=0.142;entryDx=0;entryDy=0;entryPerimeter=0;" parent="1" source="W0sx3qLAFG47UurR3J45-23" target="W0sx3qLAFG47UurR3J45-13" edge="1">
          <mxGeometry x="0.0393" width="50" height="50" relative="1" as="geometry">
            <mxPoint x="540" y="160" as="sourcePoint" />
            <mxPoint x="630" y="100" as="targetPoint" />
            <Array as="points">
              <mxPoint x="400" y="345" />
              <mxPoint x="400" y="480" />
            </Array>
            <mxPoint as="offset" />
          </mxGeometry>
        </mxCell>
        <mxCell id="W0sx3qLAFG47UurR3J45-40" value="&lt;font color=&quot;#00cc00&quot;&gt;C&lt;/font&gt;" style="endArrow=classic;html=1;rounded=1;entryX=0.014;entryY=0.424;entryDx=0;entryDy=0;entryPerimeter=0;strokeColor=#00CC00;exitX=1;exitY=0.371;exitDx=0;exitDy=0;exitPerimeter=0;" parent="1" source="W0sx3qLAFG47UurR3J45-12" target="W0sx3qLAFG47UurR3J45-24" edge="1">
          <mxGeometry x="-0.2258" width="50" height="50" relative="1" as="geometry">
            <mxPoint x="300" y="320" as="sourcePoint" />
            <mxPoint x="410" y="370" as="targetPoint" />
            <Array as="points" />
            <mxPoint as="offset" />
          </mxGeometry>
        </mxCell>
        <mxCell id="W0sx3qLAFG47UurR3J45-41" value="&lt;font color=&quot;#0000ff&quot;&gt;CRUD&lt;/font&gt;" style="endArrow=classic;startArrow=classic;html=1;rounded=1;strokeColor=#0000FF;entryX=0;entryY=0.714;entryDx=0;entryDy=0;entryPerimeter=0;exitX=1;exitY=0.704;exitDx=0;exitDy=0;exitPerimeter=0;" parent="1" source="W0sx3qLAFG47UurR3J45-13" target="W0sx3qLAFG47UurR3J45-24" edge="1">
          <mxGeometry x="0.0587" y="-4" width="50" height="50" relative="1" as="geometry">
            <mxPoint x="300" y="400" as="sourcePoint" />
            <mxPoint x="480" y="300" as="targetPoint" />
            <Array as="points">
              <mxPoint x="380" y="526" />
            </Array>
            <mxPoint as="offset" />
          </mxGeometry>
        </mxCell>
        <mxCell id="W0sx3qLAFG47UurR3J45-43" value="&lt;font color=&quot;#0000ff&quot;&gt;CRUD&lt;/font&gt;" style="endArrow=classic;startArrow=classic;html=1;rounded=1;strokeColor=#0000FF;exitX=1.014;exitY=0.371;exitDx=0;exitDy=0;exitPerimeter=0;entryX=-0.028;entryY=0.371;entryDx=0;entryDy=0;entryPerimeter=0;" parent="1" source="W0sx3qLAFG47UurR3J45-14" target="W0sx3qLAFG47UurR3J45-26" edge="1">
          <mxGeometry x="0.2222" width="50" height="50" relative="1" as="geometry">
            <mxPoint x="350" y="200" as="sourcePoint" />
            <mxPoint x="450" y="200" as="targetPoint" />
            <Array as="points" />
            <mxPoint as="offset" />
          </mxGeometry>
        </mxCell>
        <mxCell id="W0sx3qLAFG47UurR3J45-51" value="" style="endArrow=classic;html=1;rounded=1;exitX=0.5;exitY=0;exitDx=0;exitDy=0;exitPerimeter=0;entryX=0.5;entryY=1;entryDx=0;entryDy=0;fontColor=#808080;dashed=1;strokeColor=#666666;flowAnimation=1;" parent="1" source="W0sx3qLAFG47UurR3J45-17" target="W0sx3qLAFG47UurR3J45-20" edge="1">
          <mxGeometry relative="1" as="geometry">
            <mxPoint x="770" y="680" as="sourcePoint" />
            <mxPoint x="830" y="620" as="targetPoint" />
            <Array as="points">
              <mxPoint x="640" y="620" />
            </Array>
          </mxGeometry>
        </mxCell>
        <mxCell id="W0sx3qLAFG47UurR3J45-52" value="&lt;font color=&quot;#666666&quot;&gt;Data&lt;/font&gt;" style="edgeLabel;resizable=0;html=1;align=center;verticalAlign=middle;rounded=1;" parent="W0sx3qLAFG47UurR3J45-51" connectable="0" vertex="1">
          <mxGeometry relative="1" as="geometry" />
        </mxCell>
        <mxCell id="W0sx3qLAFG47UurR3J45-47" value="" style="endArrow=classic;html=1;rounded=1;entryX=0.5;entryY=0;entryDx=0;entryDy=0;entryPerimeter=0;exitX=0.5;exitY=1;exitDx=0;exitDy=0;fontColor=#CC99FF;dashed=1;strokeColor=#CC99FF;orthogonalLoop=0;flowAnimation=1;" parent="1" source="W0sx3qLAFG47UurR3J45-20" target="W0sx3qLAFG47UurR3J45-17" edge="1">
          <mxGeometry relative="1" as="geometry">
            <mxPoint x="720" y="560" as="sourcePoint" />
            <mxPoint x="720" y="420" as="targetPoint" />
            <Array as="points">
              <mxPoint x="720" y="620" />
            </Array>
          </mxGeometry>
        </mxCell>
        <mxCell id="W0sx3qLAFG47UurR3J45-48" value="&lt;font color=&quot;#666666&quot;&gt;Request&lt;br&gt;(with Data)&lt;/font&gt;" style="edgeLabel;resizable=0;html=1;align=center;verticalAlign=middle;rounded=1;" parent="W0sx3qLAFG47UurR3J45-47" connectable="0" vertex="1">
          <mxGeometry relative="1" as="geometry" />
        </mxCell>
        <mxCell id="HfqvEOdUiU-7AvDZIqYo-4" value="Xlsx 표파일" style="shape=document;whiteSpace=wrap;html=1;boundedLbl=1;rounded=1;" parent="1" vertex="1">
          <mxGeometry x="20" y="385" width="110" height="50" as="geometry" />
        </mxCell>
      </root>
    </mxGraphModel>
  </diagram>
  <diagram id="b1qO5Y7sfltMANNbbejD" name="ERD">
    <mxGraphModel dx="2245" dy="828" grid="1" gridSize="10" guides="1" tooltips="1" connect="1" arrows="1" fold="1" page="1" pageScale="1" pageWidth="827" pageHeight="1169" math="0" shadow="0">
      <root>
        <mxCell id="0" />
        <mxCell id="1" parent="0" />
        <mxCell id="pALLQwBjl_XyyZtuF9r6-97" value="" style="rounded=0;whiteSpace=wrap;html=1;fillColor=none;dashed=1;" parent="1" vertex="1">
          <mxGeometry x="-40" y="10" width="416" height="495" as="geometry" />
        </mxCell>
        <mxCell id="5MaNj-TpyxH5WY9Q9MdJ-3" value="Financial Account" style="shape=table;startSize=30;container=1;collapsible=1;childLayout=tableLayout;fixedRows=1;rowLines=0;fontStyle=1;align=center;resizeLast=1;movable=1;resizable=1;rotatable=1;deletable=1;editable=1;locked=0;connectable=1;" parent="1" vertex="1">
          <mxGeometry x="-400" y="190" width="280" height="330" as="geometry" />
        </mxCell>
        <mxCell id="5MaNj-TpyxH5WY9Q9MdJ-4" value="" style="shape=partialRectangle;collapsible=0;dropTarget=0;pointerEvents=0;fillColor=none;points=[[0,0.5],[1,0.5]];portConstraint=eastwest;top=0;left=0;right=0;bottom=1;" parent="5MaNj-TpyxH5WY9Q9MdJ-3" vertex="1">
          <mxGeometry y="30" width="280" height="30" as="geometry" />
        </mxCell>
        <mxCell id="5MaNj-TpyxH5WY9Q9MdJ-5" value="PK" style="shape=partialRectangle;overflow=hidden;connectable=0;fillColor=none;top=0;left=0;bottom=0;right=0;fontStyle=1;" parent="5MaNj-TpyxH5WY9Q9MdJ-4" vertex="1">
          <mxGeometry width="30" height="30" as="geometry">
            <mxRectangle width="30" height="30" as="alternateBounds" />
          </mxGeometry>
        </mxCell>
        <mxCell id="5MaNj-TpyxH5WY9Q9MdJ-6" value="id uuid4 NOT NULL " style="shape=partialRectangle;overflow=hidden;connectable=0;fillColor=none;top=0;left=0;bottom=0;right=0;align=left;spacingLeft=6;fontStyle=5;" parent="5MaNj-TpyxH5WY9Q9MdJ-4" vertex="1">
          <mxGeometry x="30" width="250" height="30" as="geometry">
            <mxRectangle width="250" height="30" as="alternateBounds" />
          </mxGeometry>
        </mxCell>
        <mxCell id="pALLQwBjl_XyyZtuF9r6-110" value="" style="shape=partialRectangle;collapsible=0;dropTarget=0;pointerEvents=0;fillColor=none;points=[[0,0.5],[1,0.5]];portConstraint=eastwest;top=0;left=0;right=0;bottom=0;" parent="5MaNj-TpyxH5WY9Q9MdJ-3" vertex="1">
          <mxGeometry y="60" width="280" height="30" as="geometry" />
        </mxCell>
        <mxCell id="pALLQwBjl_XyyZtuF9r6-111" value="FK" style="shape=partialRectangle;overflow=hidden;connectable=0;fillColor=none;top=0;left=0;bottom=0;right=0;" parent="pALLQwBjl_XyyZtuF9r6-110" vertex="1">
          <mxGeometry width="30" height="30" as="geometry">
            <mxRectangle width="30" height="30" as="alternateBounds" />
          </mxGeometry>
        </mxCell>
        <mxCell id="pALLQwBjl_XyyZtuF9r6-112" value="owner" style="shape=partialRectangle;overflow=hidden;connectable=0;fillColor=none;top=0;left=0;bottom=0;right=0;align=left;spacingLeft=6;" parent="pALLQwBjl_XyyZtuF9r6-110" vertex="1">
          <mxGeometry x="30" width="250" height="30" as="geometry">
            <mxRectangle width="250" height="30" as="alternateBounds" />
          </mxGeometry>
        </mxCell>
        <mxCell id="pALLQwBjl_XyyZtuF9r6-107" value="" style="shape=partialRectangle;collapsible=0;dropTarget=0;pointerEvents=0;fillColor=none;points=[[0,0.5],[1,0.5]];portConstraint=eastwest;top=0;left=0;right=0;bottom=0;" parent="5MaNj-TpyxH5WY9Q9MdJ-3" vertex="1">
          <mxGeometry y="90" width="280" height="30" as="geometry" />
        </mxCell>
        <mxCell id="pALLQwBjl_XyyZtuF9r6-108" value="" style="shape=partialRectangle;overflow=hidden;connectable=0;fillColor=none;top=0;left=0;bottom=0;right=0;" parent="pALLQwBjl_XyyZtuF9r6-107" vertex="1">
          <mxGeometry width="30" height="30" as="geometry">
            <mxRectangle width="30" height="30" as="alternateBounds" />
          </mxGeometry>
        </mxCell>
        <mxCell id="pALLQwBjl_XyyZtuF9r6-109" value="accountnumber varchar(100) NOT NULL" style="shape=partialRectangle;overflow=hidden;connectable=0;fillColor=none;top=0;left=0;bottom=0;right=0;align=left;spacingLeft=6;" parent="pALLQwBjl_XyyZtuF9r6-107" vertex="1">
          <mxGeometry x="30" width="250" height="30" as="geometry">
            <mxRectangle width="250" height="30" as="alternateBounds" />
          </mxGeometry>
        </mxCell>
        <mxCell id="5MaNj-TpyxH5WY9Q9MdJ-7" value="" style="shape=partialRectangle;collapsible=0;dropTarget=0;pointerEvents=0;fillColor=none;points=[[0,0.5],[1,0.5]];portConstraint=eastwest;top=0;left=0;right=0;bottom=0;" parent="5MaNj-TpyxH5WY9Q9MdJ-3" vertex="1">
          <mxGeometry y="120" width="280" height="30" as="geometry" />
        </mxCell>
        <mxCell id="5MaNj-TpyxH5WY9Q9MdJ-8" value="" style="shape=partialRectangle;overflow=hidden;connectable=0;fillColor=none;top=0;left=0;bottom=0;right=0;" parent="5MaNj-TpyxH5WY9Q9MdJ-7" vertex="1">
          <mxGeometry width="30" height="30" as="geometry">
            <mxRectangle width="30" height="30" as="alternateBounds" />
          </mxGeometry>
        </mxCell>
        <mxCell id="5MaNj-TpyxH5WY9Q9MdJ-9" value="nickname varchar(250) NOT NULL" style="shape=partialRectangle;overflow=hidden;connectable=0;fillColor=none;top=0;left=0;bottom=0;right=0;align=left;spacingLeft=6;" parent="5MaNj-TpyxH5WY9Q9MdJ-7" vertex="1">
          <mxGeometry x="30" width="250" height="30" as="geometry">
            <mxRectangle width="250" height="30" as="alternateBounds" />
          </mxGeometry>
        </mxCell>
        <mxCell id="n3_dwfvNtSZMq8lMFj5W-46" value="" style="shape=partialRectangle;collapsible=0;dropTarget=0;pointerEvents=0;fillColor=none;points=[[0,0.5],[1,0.5]];portConstraint=eastwest;top=0;left=0;right=0;bottom=0;" parent="5MaNj-TpyxH5WY9Q9MdJ-3" vertex="1">
          <mxGeometry y="150" width="280" height="30" as="geometry" />
        </mxCell>
        <mxCell id="n3_dwfvNtSZMq8lMFj5W-47" value="" style="shape=partialRectangle;overflow=hidden;connectable=0;fillColor=none;top=0;left=0;bottom=0;right=0;" parent="n3_dwfvNtSZMq8lMFj5W-46" vertex="1">
          <mxGeometry width="30" height="30" as="geometry">
            <mxRectangle width="30" height="30" as="alternateBounds" />
          </mxGeometry>
        </mxCell>
        <mxCell id="n3_dwfvNtSZMq8lMFj5W-48" value="bankname varchar(20) NOT NULL" style="shape=partialRectangle;overflow=hidden;connectable=0;fillColor=none;top=0;left=0;bottom=0;right=0;align=left;spacingLeft=6;" parent="n3_dwfvNtSZMq8lMFj5W-46" vertex="1">
          <mxGeometry x="30" width="250" height="30" as="geometry">
            <mxRectangle width="250" height="30" as="alternateBounds" />
          </mxGeometry>
        </mxCell>
        <mxCell id="n3_dwfvNtSZMq8lMFj5W-49" value="" style="shape=partialRectangle;collapsible=0;dropTarget=0;pointerEvents=0;fillColor=none;points=[[0,0.5],[1,0.5]];portConstraint=eastwest;top=0;left=0;right=0;bottom=0;" parent="5MaNj-TpyxH5WY9Q9MdJ-3" vertex="1">
          <mxGeometry y="180" width="280" height="30" as="geometry" />
        </mxCell>
        <mxCell id="n3_dwfvNtSZMq8lMFj5W-50" value="" style="shape=partialRectangle;overflow=hidden;connectable=0;fillColor=none;top=0;left=0;bottom=0;right=0;" parent="n3_dwfvNtSZMq8lMFj5W-49" vertex="1">
          <mxGeometry width="30" height="30" as="geometry">
            <mxRectangle width="30" height="30" as="alternateBounds" />
          </mxGeometry>
        </mxCell>
        <mxCell id="n3_dwfvNtSZMq8lMFj5W-51" value="accountype varchar(50) NOT NULL" style="shape=partialRectangle;overflow=hidden;connectable=0;fillColor=none;top=0;left=0;bottom=0;right=0;align=left;spacingLeft=6;" parent="n3_dwfvNtSZMq8lMFj5W-49" vertex="1">
          <mxGeometry x="30" width="250" height="30" as="geometry">
            <mxRectangle width="250" height="30" as="alternateBounds" />
          </mxGeometry>
        </mxCell>
        <mxCell id="n3_dwfvNtSZMq8lMFj5W-52" value="" style="shape=partialRectangle;collapsible=0;dropTarget=0;pointerEvents=0;fillColor=none;points=[[0,0.5],[1,0.5]];portConstraint=eastwest;top=0;left=0;right=0;bottom=0;" parent="5MaNj-TpyxH5WY9Q9MdJ-3" vertex="1">
          <mxGeometry y="210" width="280" height="30" as="geometry" />
        </mxCell>
        <mxCell id="n3_dwfvNtSZMq8lMFj5W-53" value="" style="shape=partialRectangle;overflow=hidden;connectable=0;fillColor=none;top=0;left=0;bottom=0;right=0;" parent="n3_dwfvNtSZMq8lMFj5W-52" vertex="1">
          <mxGeometry width="30" height="30" as="geometry">
            <mxRectangle width="30" height="30" as="alternateBounds" />
          </mxGeometry>
        </mxCell>
        <mxCell id="n3_dwfvNtSZMq8lMFj5W-54" value="account_founddate date NOT NULL" style="shape=partialRectangle;overflow=hidden;connectable=0;fillColor=none;top=0;left=0;bottom=0;right=0;align=left;spacingLeft=6;" parent="n3_dwfvNtSZMq8lMFj5W-52" vertex="1">
          <mxGeometry x="30" width="250" height="30" as="geometry">
            <mxRectangle width="250" height="30" as="alternateBounds" />
          </mxGeometry>
        </mxCell>
        <mxCell id="n3_dwfvNtSZMq8lMFj5W-55" value="" style="shape=partialRectangle;collapsible=0;dropTarget=0;pointerEvents=0;fillColor=none;points=[[0,0.5],[1,0.5]];portConstraint=eastwest;top=0;left=0;right=0;bottom=0;" parent="5MaNj-TpyxH5WY9Q9MdJ-3" vertex="1">
          <mxGeometry y="240" width="280" height="30" as="geometry" />
        </mxCell>
        <mxCell id="n3_dwfvNtSZMq8lMFj5W-56" value="" style="shape=partialRectangle;overflow=hidden;connectable=0;fillColor=none;top=0;left=0;bottom=0;right=0;" parent="n3_dwfvNtSZMq8lMFj5W-55" vertex="1">
          <mxGeometry width="30" height="30" as="geometry">
            <mxRectangle width="30" height="30" as="alternateBounds" />
          </mxGeometry>
        </mxCell>
        <mxCell id="n3_dwfvNtSZMq8lMFj5W-57" value="account_expireddate date" style="shape=partialRectangle;overflow=hidden;connectable=0;fillColor=none;top=0;left=0;bottom=0;right=0;align=left;spacingLeft=6;" parent="n3_dwfvNtSZMq8lMFj5W-55" vertex="1">
          <mxGeometry x="30" width="250" height="30" as="geometry">
            <mxRectangle width="250" height="30" as="alternateBounds" />
          </mxGeometry>
        </mxCell>
        <mxCell id="n3_dwfvNtSZMq8lMFj5W-79" value="" style="shape=partialRectangle;collapsible=0;dropTarget=0;pointerEvents=0;fillColor=none;points=[[0,0.5],[1,0.5]];portConstraint=eastwest;top=0;left=0;right=0;bottom=0;" parent="5MaNj-TpyxH5WY9Q9MdJ-3" vertex="1">
          <mxGeometry y="270" width="280" height="30" as="geometry" />
        </mxCell>
        <mxCell id="n3_dwfvNtSZMq8lMFj5W-80" value="" style="shape=partialRectangle;overflow=hidden;connectable=0;fillColor=none;top=0;left=0;bottom=0;right=0;" parent="n3_dwfvNtSZMq8lMFj5W-79" vertex="1">
          <mxGeometry width="30" height="30" as="geometry">
            <mxRectangle width="30" height="30" as="alternateBounds" />
          </mxGeometry>
        </mxCell>
        <mxCell id="n3_dwfvNtSZMq8lMFj5W-81" value="asset_amount int" style="shape=partialRectangle;overflow=hidden;connectable=0;fillColor=none;top=0;left=0;bottom=0;right=0;align=left;spacingLeft=6;" parent="n3_dwfvNtSZMq8lMFj5W-79" vertex="1">
          <mxGeometry x="30" width="250" height="30" as="geometry">
            <mxRectangle width="250" height="30" as="alternateBounds" />
          </mxGeometry>
        </mxCell>
        <mxCell id="n3_dwfvNtSZMq8lMFj5W-82" value="" style="shape=partialRectangle;collapsible=0;dropTarget=0;pointerEvents=0;fillColor=none;points=[[0,0.5],[1,0.5]];portConstraint=eastwest;top=0;left=0;right=0;bottom=0;" parent="5MaNj-TpyxH5WY9Q9MdJ-3" vertex="1">
          <mxGeometry y="300" width="280" height="30" as="geometry" />
        </mxCell>
        <mxCell id="n3_dwfvNtSZMq8lMFj5W-83" value="" style="shape=partialRectangle;overflow=hidden;connectable=0;fillColor=none;top=0;left=0;bottom=0;right=0;" parent="n3_dwfvNtSZMq8lMFj5W-82" vertex="1">
          <mxGeometry width="30" height="30" as="geometry">
            <mxRectangle width="30" height="30" as="alternateBounds" />
          </mxGeometry>
        </mxCell>
        <mxCell id="n3_dwfvNtSZMq8lMFj5W-84" value="description text" style="shape=partialRectangle;overflow=hidden;connectable=0;fillColor=none;top=0;left=0;bottom=0;right=0;align=left;spacingLeft=6;" parent="n3_dwfvNtSZMq8lMFj5W-82" vertex="1">
          <mxGeometry x="30" width="250" height="30" as="geometry">
            <mxRectangle width="250" height="30" as="alternateBounds" />
          </mxGeometry>
        </mxCell>
        <mxCell id="n3_dwfvNtSZMq8lMFj5W-1" value="&lt;font style=&quot;font-size: 72px;&quot;&gt;V0.4~&lt;/font&gt;" style="text;html=1;strokeColor=none;fillColor=none;align=center;verticalAlign=middle;whiteSpace=wrap;rounded=1;" parent="1" vertex="1">
          <mxGeometry x="-827" width="200" height="90" as="geometry" />
        </mxCell>
        <mxCell id="n3_dwfvNtSZMq8lMFj5W-91" value="Card Account    " style="shape=table;startSize=30;container=1;collapsible=1;childLayout=tableLayout;fixedRows=1;rowLines=0;fontStyle=1;align=center;resizeLast=1;" parent="1" vertex="1">
          <mxGeometry x="-400" y="540" width="280" height="300" as="geometry" />
        </mxCell>
        <mxCell id="n3_dwfvNtSZMq8lMFj5W-92" value="" style="shape=partialRectangle;collapsible=0;dropTarget=0;pointerEvents=0;fillColor=none;points=[[0,0.5],[1,0.5]];portConstraint=eastwest;top=0;left=0;right=0;bottom=1;" parent="n3_dwfvNtSZMq8lMFj5W-91" vertex="1">
          <mxGeometry y="30" width="280" height="30" as="geometry" />
        </mxCell>
        <mxCell id="n3_dwfvNtSZMq8lMFj5W-93" value="PK" style="shape=partialRectangle;overflow=hidden;connectable=0;fillColor=none;top=0;left=0;bottom=0;right=0;fontStyle=1;" parent="n3_dwfvNtSZMq8lMFj5W-92" vertex="1">
          <mxGeometry width="30" height="30" as="geometry">
            <mxRectangle width="30" height="30" as="alternateBounds" />
          </mxGeometry>
        </mxCell>
        <mxCell id="n3_dwfvNtSZMq8lMFj5W-94" value="id uuid4 NOT NULL" style="shape=partialRectangle;overflow=hidden;connectable=0;fillColor=none;top=0;left=0;bottom=0;right=0;align=left;spacingLeft=6;fontStyle=5;" parent="n3_dwfvNtSZMq8lMFj5W-92" vertex="1">
          <mxGeometry x="30" width="250" height="30" as="geometry">
            <mxRectangle width="250" height="30" as="alternateBounds" />
          </mxGeometry>
        </mxCell>
        <mxCell id="pALLQwBjl_XyyZtuF9r6-120" value="" style="shape=partialRectangle;collapsible=0;dropTarget=0;pointerEvents=0;fillColor=none;points=[[0,0.5],[1,0.5]];portConstraint=eastwest;top=0;left=0;right=0;bottom=0;" parent="n3_dwfvNtSZMq8lMFj5W-91" vertex="1">
          <mxGeometry y="60" width="280" height="30" as="geometry" />
        </mxCell>
        <mxCell id="pALLQwBjl_XyyZtuF9r6-121" value="FK" style="shape=partialRectangle;overflow=hidden;connectable=0;fillColor=none;top=0;left=0;bottom=0;right=0;" parent="pALLQwBjl_XyyZtuF9r6-120" vertex="1">
          <mxGeometry width="30" height="30" as="geometry">
            <mxRectangle width="30" height="30" as="alternateBounds" />
          </mxGeometry>
        </mxCell>
        <mxCell id="pALLQwBjl_XyyZtuF9r6-122" value="owner" style="shape=partialRectangle;overflow=hidden;connectable=0;fillColor=none;top=0;left=0;bottom=0;right=0;align=left;spacingLeft=6;" parent="pALLQwBjl_XyyZtuF9r6-120" vertex="1">
          <mxGeometry x="30" width="250" height="30" as="geometry">
            <mxRectangle width="250" height="30" as="alternateBounds" />
          </mxGeometry>
        </mxCell>
        <mxCell id="pALLQwBjl_XyyZtuF9r6-124" value="" style="shape=partialRectangle;collapsible=0;dropTarget=0;pointerEvents=0;fillColor=none;points=[[0,0.5],[1,0.5]];portConstraint=eastwest;top=0;left=0;right=0;bottom=0;" parent="n3_dwfvNtSZMq8lMFj5W-91" vertex="1">
          <mxGeometry y="90" width="280" height="30" as="geometry" />
        </mxCell>
        <mxCell id="pALLQwBjl_XyyZtuF9r6-125" value="FK" style="shape=partialRectangle;overflow=hidden;connectable=0;fillColor=none;top=0;left=0;bottom=0;right=0;" parent="pALLQwBjl_XyyZtuF9r6-124" vertex="1">
          <mxGeometry width="30" height="30" as="geometry">
            <mxRectangle width="30" height="30" as="alternateBounds" />
          </mxGeometry>
        </mxCell>
        <mxCell id="pALLQwBjl_XyyZtuF9r6-126" value="bankconnect" style="shape=partialRectangle;overflow=hidden;connectable=0;fillColor=none;top=0;left=0;bottom=0;right=0;align=left;spacingLeft=6;" parent="pALLQwBjl_XyyZtuF9r6-124" vertex="1">
          <mxGeometry x="30" width="250" height="30" as="geometry">
            <mxRectangle width="250" height="30" as="alternateBounds" />
          </mxGeometry>
        </mxCell>
        <mxCell id="pALLQwBjl_XyyZtuF9r6-146" value="" style="shape=partialRectangle;collapsible=0;dropTarget=0;pointerEvents=0;fillColor=none;points=[[0,0.5],[1,0.5]];portConstraint=eastwest;top=0;left=0;right=0;bottom=0;" parent="n3_dwfvNtSZMq8lMFj5W-91" vertex="1">
          <mxGeometry y="120" width="280" height="30" as="geometry" />
        </mxCell>
        <mxCell id="pALLQwBjl_XyyZtuF9r6-147" value="" style="shape=partialRectangle;overflow=hidden;connectable=0;fillColor=none;top=0;left=0;bottom=0;right=0;" parent="pALLQwBjl_XyyZtuF9r6-146" vertex="1">
          <mxGeometry width="30" height="30" as="geometry">
            <mxRectangle width="30" height="30" as="alternateBounds" />
          </mxGeometry>
        </mxCell>
        <mxCell id="pALLQwBjl_XyyZtuF9r6-148" value="cardnumber varchar(50) NOT NULL" style="shape=partialRectangle;overflow=hidden;connectable=0;fillColor=none;top=0;left=0;bottom=0;right=0;align=left;spacingLeft=6;" parent="pALLQwBjl_XyyZtuF9r6-146" vertex="1">
          <mxGeometry x="30" width="250" height="30" as="geometry">
            <mxRectangle width="250" height="30" as="alternateBounds" />
          </mxGeometry>
        </mxCell>
        <mxCell id="n3_dwfvNtSZMq8lMFj5W-95" value="" style="shape=partialRectangle;collapsible=0;dropTarget=0;pointerEvents=0;fillColor=none;points=[[0,0.5],[1,0.5]];portConstraint=eastwest;top=0;left=0;right=0;bottom=0;" parent="n3_dwfvNtSZMq8lMFj5W-91" vertex="1">
          <mxGeometry y="150" width="280" height="30" as="geometry" />
        </mxCell>
        <mxCell id="n3_dwfvNtSZMq8lMFj5W-96" value="" style="shape=partialRectangle;overflow=hidden;connectable=0;fillColor=none;top=0;left=0;bottom=0;right=0;" parent="n3_dwfvNtSZMq8lMFj5W-95" vertex="1">
          <mxGeometry width="30" height="30" as="geometry">
            <mxRectangle width="30" height="30" as="alternateBounds" />
          </mxGeometry>
        </mxCell>
        <mxCell id="n3_dwfvNtSZMq8lMFj5W-97" value="nickname varchar(250) NOT NULL" style="shape=partialRectangle;overflow=hidden;connectable=0;fillColor=none;top=0;left=0;bottom=0;right=0;align=left;spacingLeft=6;" parent="n3_dwfvNtSZMq8lMFj5W-95" vertex="1">
          <mxGeometry x="30" width="250" height="30" as="geometry">
            <mxRectangle width="250" height="30" as="alternateBounds" />
          </mxGeometry>
        </mxCell>
        <mxCell id="n3_dwfvNtSZMq8lMFj5W-98" value="" style="shape=partialRectangle;collapsible=0;dropTarget=0;pointerEvents=0;fillColor=none;points=[[0,0.5],[1,0.5]];portConstraint=eastwest;top=0;left=0;right=0;bottom=0;" parent="n3_dwfvNtSZMq8lMFj5W-91" vertex="1">
          <mxGeometry y="180" width="280" height="30" as="geometry" />
        </mxCell>
        <mxCell id="n3_dwfvNtSZMq8lMFj5W-99" value="" style="shape=partialRectangle;overflow=hidden;connectable=0;fillColor=none;top=0;left=0;bottom=0;right=0;" parent="n3_dwfvNtSZMq8lMFj5W-98" vertex="1">
          <mxGeometry width="30" height="30" as="geometry">
            <mxRectangle width="30" height="30" as="alternateBounds" />
          </mxGeometry>
        </mxCell>
        <mxCell id="n3_dwfvNtSZMq8lMFj5W-100" value="corpname varchar(20) NOT NULL" style="shape=partialRectangle;overflow=hidden;connectable=0;fillColor=none;top=0;left=0;bottom=0;right=0;align=left;spacingLeft=6;" parent="n3_dwfvNtSZMq8lMFj5W-98" vertex="1">
          <mxGeometry x="30" width="250" height="30" as="geometry">
            <mxRectangle width="250" height="30" as="alternateBounds" />
          </mxGeometry>
        </mxCell>
        <mxCell id="n3_dwfvNtSZMq8lMFj5W-101" value="" style="shape=partialRectangle;collapsible=0;dropTarget=0;pointerEvents=0;fillColor=none;points=[[0,0.5],[1,0.5]];portConstraint=eastwest;top=0;left=0;right=0;bottom=0;" parent="n3_dwfvNtSZMq8lMFj5W-91" vertex="1">
          <mxGeometry y="210" width="280" height="30" as="geometry" />
        </mxCell>
        <mxCell id="n3_dwfvNtSZMq8lMFj5W-102" value="" style="shape=partialRectangle;overflow=hidden;connectable=0;fillColor=none;top=0;left=0;bottom=0;right=0;" parent="n3_dwfvNtSZMq8lMFj5W-101" vertex="1">
          <mxGeometry width="30" height="30" as="geometry">
            <mxRectangle width="30" height="30" as="alternateBounds" />
          </mxGeometry>
        </mxCell>
        <mxCell id="n3_dwfvNtSZMq8lMFj5W-103" value="cardtype varchar(50) NOT NULL" style="shape=partialRectangle;overflow=hidden;connectable=0;fillColor=none;top=0;left=0;bottom=0;right=0;align=left;spacingLeft=6;" parent="n3_dwfvNtSZMq8lMFj5W-101" vertex="1">
          <mxGeometry x="30" width="250" height="30" as="geometry">
            <mxRectangle width="250" height="30" as="alternateBounds" />
          </mxGeometry>
        </mxCell>
        <mxCell id="pALLQwBjl_XyyZtuF9r6-136" value="" style="shape=partialRectangle;collapsible=0;dropTarget=0;pointerEvents=0;fillColor=none;points=[[0,0.5],[1,0.5]];portConstraint=eastwest;top=0;left=0;right=0;bottom=0;" parent="n3_dwfvNtSZMq8lMFj5W-91" vertex="1">
          <mxGeometry y="240" width="280" height="30" as="geometry" />
        </mxCell>
        <mxCell id="pALLQwBjl_XyyZtuF9r6-137" value="" style="shape=partialRectangle;overflow=hidden;connectable=0;fillColor=none;top=0;left=0;bottom=0;right=0;" parent="pALLQwBjl_XyyZtuF9r6-136" vertex="1">
          <mxGeometry width="30" height="30" as="geometry">
            <mxRectangle width="30" height="30" as="alternateBounds" />
          </mxGeometry>
        </mxCell>
        <mxCell id="pALLQwBjl_XyyZtuF9r6-138" value="expiredmonth date NOT NULL" style="shape=partialRectangle;overflow=hidden;connectable=0;fillColor=none;top=0;left=0;bottom=0;right=0;align=left;spacingLeft=6;" parent="pALLQwBjl_XyyZtuF9r6-136" vertex="1">
          <mxGeometry x="30" width="250" height="30" as="geometry">
            <mxRectangle width="250" height="30" as="alternateBounds" />
          </mxGeometry>
        </mxCell>
        <mxCell id="n3_dwfvNtSZMq8lMFj5W-113" value="" style="shape=partialRectangle;collapsible=0;dropTarget=0;pointerEvents=0;fillColor=none;points=[[0,0.5],[1,0.5]];portConstraint=eastwest;top=0;left=0;right=0;bottom=0;" parent="n3_dwfvNtSZMq8lMFj5W-91" vertex="1">
          <mxGeometry y="270" width="280" height="30" as="geometry" />
        </mxCell>
        <mxCell id="n3_dwfvNtSZMq8lMFj5W-114" value="" style="shape=partialRectangle;overflow=hidden;connectable=0;fillColor=none;top=0;left=0;bottom=0;right=0;" parent="n3_dwfvNtSZMq8lMFj5W-113" vertex="1">
          <mxGeometry width="30" height="30" as="geometry">
            <mxRectangle width="30" height="30" as="alternateBounds" />
          </mxGeometry>
        </mxCell>
        <mxCell id="n3_dwfvNtSZMq8lMFj5W-115" value="description text" style="shape=partialRectangle;overflow=hidden;connectable=0;fillColor=none;top=0;left=0;bottom=0;right=0;align=left;spacingLeft=6;" parent="n3_dwfvNtSZMq8lMFj5W-113" vertex="1">
          <mxGeometry x="30" width="250" height="30" as="geometry">
            <mxRectangle width="250" height="30" as="alternateBounds" />
          </mxGeometry>
        </mxCell>
        <mxCell id="n3_dwfvNtSZMq8lMFj5W-116" value="Pay Account" style="shape=table;startSize=30;container=1;collapsible=1;childLayout=tableLayout;fixedRows=1;rowLines=0;fontStyle=1;align=center;resizeLast=1;" parent="1" vertex="1">
          <mxGeometry x="-400" y="860" width="280" height="271" as="geometry" />
        </mxCell>
        <mxCell id="n3_dwfvNtSZMq8lMFj5W-117" value="" style="shape=partialRectangle;collapsible=0;dropTarget=0;pointerEvents=0;fillColor=none;points=[[0,0.5],[1,0.5]];portConstraint=eastwest;top=0;left=0;right=0;bottom=1;" parent="n3_dwfvNtSZMq8lMFj5W-116" vertex="1">
          <mxGeometry y="30" width="280" height="30" as="geometry" />
        </mxCell>
        <mxCell id="n3_dwfvNtSZMq8lMFj5W-118" value="PK" style="shape=partialRectangle;overflow=hidden;connectable=0;fillColor=none;top=0;left=0;bottom=0;right=0;fontStyle=1;" parent="n3_dwfvNtSZMq8lMFj5W-117" vertex="1">
          <mxGeometry width="30" height="30" as="geometry">
            <mxRectangle width="30" height="30" as="alternateBounds" />
          </mxGeometry>
        </mxCell>
        <mxCell id="n3_dwfvNtSZMq8lMFj5W-119" value="id int NOT NULL " style="shape=partialRectangle;overflow=hidden;connectable=0;fillColor=none;top=0;left=0;bottom=0;right=0;align=left;spacingLeft=6;fontStyle=5;" parent="n3_dwfvNtSZMq8lMFj5W-117" vertex="1">
          <mxGeometry x="30" width="250" height="30" as="geometry">
            <mxRectangle width="250" height="30" as="alternateBounds" />
          </mxGeometry>
        </mxCell>
        <mxCell id="n3_dwfvNtSZMq8lMFj5W-120" value="" style="shape=partialRectangle;collapsible=0;dropTarget=0;pointerEvents=0;fillColor=none;points=[[0,0.5],[1,0.5]];portConstraint=eastwest;top=0;left=0;right=0;bottom=0;" parent="n3_dwfvNtSZMq8lMFj5W-116" vertex="1">
          <mxGeometry y="60" width="280" height="30" as="geometry" />
        </mxCell>
        <mxCell id="n3_dwfvNtSZMq8lMFj5W-121" value="FK" style="shape=partialRectangle;overflow=hidden;connectable=0;fillColor=none;top=0;left=0;bottom=0;right=0;" parent="n3_dwfvNtSZMq8lMFj5W-120" vertex="1">
          <mxGeometry width="30" height="30" as="geometry">
            <mxRectangle width="30" height="30" as="alternateBounds" />
          </mxGeometry>
        </mxCell>
        <mxCell id="n3_dwfvNtSZMq8lMFj5W-122" value="owner" style="shape=partialRectangle;overflow=hidden;connectable=0;fillColor=none;top=0;left=0;bottom=0;right=0;align=left;spacingLeft=6;" parent="n3_dwfvNtSZMq8lMFj5W-120" vertex="1">
          <mxGeometry x="30" width="250" height="30" as="geometry">
            <mxRectangle width="250" height="30" as="alternateBounds" />
          </mxGeometry>
        </mxCell>
        <mxCell id="pALLQwBjl_XyyZtuF9r6-130" value="" style="shape=partialRectangle;collapsible=0;dropTarget=0;pointerEvents=0;fillColor=none;points=[[0,0.5],[1,0.5]];portConstraint=eastwest;top=0;left=0;right=0;bottom=0;" parent="n3_dwfvNtSZMq8lMFj5W-116" vertex="1">
          <mxGeometry y="90" width="280" height="30" as="geometry" />
        </mxCell>
        <mxCell id="pALLQwBjl_XyyZtuF9r6-131" value="FK" style="shape=partialRectangle;overflow=hidden;connectable=0;fillColor=none;top=0;left=0;bottom=0;right=0;" parent="pALLQwBjl_XyyZtuF9r6-130" vertex="1">
          <mxGeometry width="30" height="30" as="geometry">
            <mxRectangle width="30" height="30" as="alternateBounds" />
          </mxGeometry>
        </mxCell>
        <mxCell id="pALLQwBjl_XyyZtuF9r6-132" value="bankconnection" style="shape=partialRectangle;overflow=hidden;connectable=0;fillColor=none;top=0;left=0;bottom=0;right=0;align=left;spacingLeft=6;" parent="pALLQwBjl_XyyZtuF9r6-130" vertex="1">
          <mxGeometry x="30" width="250" height="30" as="geometry">
            <mxRectangle width="250" height="30" as="alternateBounds" />
          </mxGeometry>
        </mxCell>
        <mxCell id="pALLQwBjl_XyyZtuF9r6-139" value="" style="shape=partialRectangle;collapsible=0;dropTarget=0;pointerEvents=0;fillColor=none;points=[[0,0.5],[1,0.5]];portConstraint=eastwest;top=0;left=0;right=0;bottom=0;" parent="n3_dwfvNtSZMq8lMFj5W-116" vertex="1">
          <mxGeometry y="120" width="280" height="30" as="geometry" />
        </mxCell>
        <mxCell id="pALLQwBjl_XyyZtuF9r6-140" value="FK" style="shape=partialRectangle;overflow=hidden;connectable=0;fillColor=none;top=0;left=0;bottom=0;right=0;" parent="pALLQwBjl_XyyZtuF9r6-139" vertex="1">
          <mxGeometry width="30" height="30" as="geometry">
            <mxRectangle width="30" height="30" as="alternateBounds" />
          </mxGeometry>
        </mxCell>
        <mxCell id="pALLQwBjl_XyyZtuF9r6-141" value="cardconnection" style="shape=partialRectangle;overflow=hidden;connectable=0;fillColor=none;top=0;left=0;bottom=0;right=0;align=left;spacingLeft=6;" parent="pALLQwBjl_XyyZtuF9r6-139" vertex="1">
          <mxGeometry x="30" width="250" height="30" as="geometry">
            <mxRectangle width="250" height="30" as="alternateBounds" />
          </mxGeometry>
        </mxCell>
        <mxCell id="pALLQwBjl_XyyZtuF9r6-133" value="" style="shape=partialRectangle;collapsible=0;dropTarget=0;pointerEvents=0;fillColor=none;points=[[0,0.5],[1,0.5]];portConstraint=eastwest;top=0;left=0;right=0;bottom=0;" parent="n3_dwfvNtSZMq8lMFj5W-116" vertex="1">
          <mxGeometry y="150" width="280" height="30" as="geometry" />
        </mxCell>
        <mxCell id="pALLQwBjl_XyyZtuF9r6-134" value="" style="shape=partialRectangle;overflow=hidden;connectable=0;fillColor=none;top=0;left=0;bottom=0;right=0;" parent="pALLQwBjl_XyyZtuF9r6-133" vertex="1">
          <mxGeometry width="30" height="30" as="geometry">
            <mxRectangle width="30" height="30" as="alternateBounds" />
          </mxGeometry>
        </mxCell>
        <mxCell id="pALLQwBjl_XyyZtuF9r6-135" value="nickname varchar(250) NOT NULL" style="shape=partialRectangle;overflow=hidden;connectable=0;fillColor=none;top=0;left=0;bottom=0;right=0;align=left;spacingLeft=6;" parent="pALLQwBjl_XyyZtuF9r6-133" vertex="1">
          <mxGeometry x="30" width="250" height="30" as="geometry">
            <mxRectangle width="250" height="30" as="alternateBounds" />
          </mxGeometry>
        </mxCell>
        <mxCell id="n3_dwfvNtSZMq8lMFj5W-123" value="" style="shape=partialRectangle;collapsible=0;dropTarget=0;pointerEvents=0;fillColor=none;points=[[0,0.5],[1,0.5]];portConstraint=eastwest;top=0;left=0;right=0;bottom=0;" parent="n3_dwfvNtSZMq8lMFj5W-116" vertex="1">
          <mxGeometry y="180" width="280" height="30" as="geometry" />
        </mxCell>
        <mxCell id="n3_dwfvNtSZMq8lMFj5W-124" value="" style="shape=partialRectangle;overflow=hidden;connectable=0;fillColor=none;top=0;left=0;bottom=0;right=0;" parent="n3_dwfvNtSZMq8lMFj5W-123" vertex="1">
          <mxGeometry width="30" height="30" as="geometry">
            <mxRectangle width="30" height="30" as="alternateBounds" />
          </mxGeometry>
        </mxCell>
        <mxCell id="n3_dwfvNtSZMq8lMFj5W-125" value="corpname varchar(20) NOT NULL" style="shape=partialRectangle;overflow=hidden;connectable=0;fillColor=none;top=0;left=0;bottom=0;right=0;align=left;spacingLeft=6;" parent="n3_dwfvNtSZMq8lMFj5W-123" vertex="1">
          <mxGeometry x="30" width="250" height="30" as="geometry">
            <mxRectangle width="250" height="30" as="alternateBounds" />
          </mxGeometry>
        </mxCell>
        <mxCell id="n3_dwfvNtSZMq8lMFj5W-135" value="" style="shape=partialRectangle;collapsible=0;dropTarget=0;pointerEvents=0;fillColor=none;points=[[0,0.5],[1,0.5]];portConstraint=eastwest;top=0;left=0;right=0;bottom=0;" parent="n3_dwfvNtSZMq8lMFj5W-116" vertex="1">
          <mxGeometry y="210" width="280" height="30" as="geometry" />
        </mxCell>
        <mxCell id="n3_dwfvNtSZMq8lMFj5W-136" value="" style="shape=partialRectangle;overflow=hidden;connectable=0;fillColor=none;top=0;left=0;bottom=0;right=0;" parent="n3_dwfvNtSZMq8lMFj5W-135" vertex="1">
          <mxGeometry width="30" height="30" as="geometry">
            <mxRectangle width="30" height="30" as="alternateBounds" />
          </mxGeometry>
        </mxCell>
        <mxCell id="n3_dwfvNtSZMq8lMFj5W-137" value="assetamount int" style="shape=partialRectangle;overflow=hidden;connectable=0;fillColor=none;top=0;left=0;bottom=0;right=0;align=left;spacingLeft=6;" parent="n3_dwfvNtSZMq8lMFj5W-135" vertex="1">
          <mxGeometry x="30" width="250" height="30" as="geometry">
            <mxRectangle width="250" height="30" as="alternateBounds" />
          </mxGeometry>
        </mxCell>
        <mxCell id="n3_dwfvNtSZMq8lMFj5W-138" value="" style="shape=partialRectangle;collapsible=0;dropTarget=0;pointerEvents=0;fillColor=none;points=[[0,0.5],[1,0.5]];portConstraint=eastwest;top=0;left=0;right=0;bottom=0;" parent="n3_dwfvNtSZMq8lMFj5W-116" vertex="1">
          <mxGeometry y="240" width="280" height="30" as="geometry" />
        </mxCell>
        <mxCell id="n3_dwfvNtSZMq8lMFj5W-139" value="" style="shape=partialRectangle;overflow=hidden;connectable=0;fillColor=none;top=0;left=0;bottom=0;right=0;" parent="n3_dwfvNtSZMq8lMFj5W-138" vertex="1">
          <mxGeometry width="30" height="30" as="geometry">
            <mxRectangle width="30" height="30" as="alternateBounds" />
          </mxGeometry>
        </mxCell>
        <mxCell id="n3_dwfvNtSZMq8lMFj5W-140" value="description text" style="shape=partialRectangle;overflow=hidden;connectable=0;fillColor=none;top=0;left=0;bottom=0;right=0;align=left;spacingLeft=6;" parent="n3_dwfvNtSZMq8lMFj5W-138" vertex="1">
          <mxGeometry x="30" width="250" height="30" as="geometry">
            <mxRectangle width="250" height="30" as="alternateBounds" />
          </mxGeometry>
        </mxCell>
        <mxCell id="n3_dwfvNtSZMq8lMFj5W-154" value="Tag Category" style="shape=table;startSize=30;container=1;collapsible=1;childLayout=tableLayout;fixedRows=1;rowLines=0;fontStyle=1;align=center;resizeLast=1;" parent="1" vertex="1">
          <mxGeometry x="-780" y="900" width="320" height="60" as="geometry" />
        </mxCell>
        <mxCell id="n3_dwfvNtSZMq8lMFj5W-155" value="" style="shape=partialRectangle;collapsible=0;dropTarget=0;pointerEvents=0;fillColor=none;points=[[0,0.5],[1,0.5]];portConstraint=eastwest;top=0;left=0;right=0;bottom=1;" parent="n3_dwfvNtSZMq8lMFj5W-154" vertex="1">
          <mxGeometry y="30" width="320" height="30" as="geometry" />
        </mxCell>
        <mxCell id="n3_dwfvNtSZMq8lMFj5W-156" value="PK" style="shape=partialRectangle;overflow=hidden;connectable=0;fillColor=none;top=0;left=0;bottom=0;right=0;fontStyle=1;" parent="n3_dwfvNtSZMq8lMFj5W-155" vertex="1">
          <mxGeometry width="30" height="30" as="geometry">
            <mxRectangle width="30" height="30" as="alternateBounds" />
          </mxGeometry>
        </mxCell>
        <mxCell id="n3_dwfvNtSZMq8lMFj5W-157" value="sub_category varcher(50) NOT NULL " style="shape=partialRectangle;overflow=hidden;connectable=0;fillColor=none;top=0;left=0;bottom=0;right=0;align=left;spacingLeft=6;fontStyle=5;" parent="n3_dwfvNtSZMq8lMFj5W-155" vertex="1">
          <mxGeometry x="30" width="290" height="30" as="geometry">
            <mxRectangle width="290" height="30" as="alternateBounds" />
          </mxGeometry>
        </mxCell>
        <mxCell id="dSE2-kc4EHO7MlBHpSCO-65" style="edgeStyle=orthogonalEdgeStyle;rounded=0;orthogonalLoop=1;jettySize=auto;html=1;exitX=0.5;exitY=1;exitDx=0;exitDy=0;entryX=0.503;entryY=1.067;entryDx=0;entryDy=0;entryPerimeter=0;" parent="n3_dwfvNtSZMq8lMFj5W-154" source="n3_dwfvNtSZMq8lMFj5W-154" target="n3_dwfvNtSZMq8lMFj5W-155" edge="1">
          <mxGeometry relative="1" as="geometry" />
        </mxCell>
        <mxCell id="n3_dwfvNtSZMq8lMFj5W-234" value="" style="edgeStyle=orthogonalEdgeStyle;fontSize=12;html=1;endArrow=ERzeroToMany;startArrow=ERmandOne;rounded=0;entryX=0;entryY=0.5;entryDx=0;entryDy=0;exitX=0;exitY=0.5;exitDx=0;exitDy=0;jumpStyle=none;strokeColor=#ff0000;" parent="1" source="pALLQwBjl_XyyZtuF9r6-2" target="pALLQwBjl_XyyZtuF9r6-110" edge="1">
          <mxGeometry width="100" height="100" relative="1" as="geometry">
            <mxPoint x="-195.23999999999978" y="454.27" as="sourcePoint" />
            <mxPoint x="-480" y="655" as="targetPoint" />
            <Array as="points">
              <mxPoint x="-420" y="55" />
              <mxPoint x="-420" y="265" />
            </Array>
          </mxGeometry>
        </mxCell>
        <mxCell id="pALLQwBjl_XyyZtuF9r6-1" value="User(Django Default);Djoser" style="shape=table;startSize=30;container=1;collapsible=1;childLayout=tableLayout;fixedRows=1;rowLines=0;fontStyle=1;align=center;resizeLast=1;html=1;" parent="1" vertex="1">
          <mxGeometry x="-400" y="10" width="180" height="150" as="geometry" />
        </mxCell>
        <mxCell id="pALLQwBjl_XyyZtuF9r6-2" value="" style="shape=tableRow;horizontal=0;startSize=0;swimlaneHead=0;swimlaneBody=0;fillColor=none;collapsible=0;dropTarget=0;points=[[0,0.5],[1,0.5]];portConstraint=eastwest;top=0;left=0;right=0;bottom=1;" parent="pALLQwBjl_XyyZtuF9r6-1" vertex="1">
          <mxGeometry y="30" width="180" height="30" as="geometry" />
        </mxCell>
        <mxCell id="pALLQwBjl_XyyZtuF9r6-3" value="PK" style="shape=partialRectangle;connectable=0;fillColor=none;top=0;left=0;bottom=0;right=0;fontStyle=1;overflow=hidden;whiteSpace=wrap;html=1;" parent="pALLQwBjl_XyyZtuF9r6-2" vertex="1">
          <mxGeometry width="30" height="30" as="geometry">
            <mxRectangle width="30" height="30" as="alternateBounds" />
          </mxGeometry>
        </mxCell>
        <mxCell id="pALLQwBjl_XyyZtuF9r6-4" value="username" style="shape=partialRectangle;connectable=0;fillColor=none;top=0;left=0;bottom=0;right=0;align=left;spacingLeft=6;fontStyle=5;overflow=hidden;whiteSpace=wrap;html=1;" parent="pALLQwBjl_XyyZtuF9r6-2" vertex="1">
          <mxGeometry x="30" width="150" height="30" as="geometry">
            <mxRectangle width="150" height="30" as="alternateBounds" />
          </mxGeometry>
        </mxCell>
        <mxCell id="pALLQwBjl_XyyZtuF9r6-5" value="" style="shape=tableRow;horizontal=0;startSize=0;swimlaneHead=0;swimlaneBody=0;fillColor=none;collapsible=0;dropTarget=0;points=[[0,0.5],[1,0.5]];portConstraint=eastwest;top=0;left=0;right=0;bottom=0;" parent="pALLQwBjl_XyyZtuF9r6-1" vertex="1">
          <mxGeometry y="60" width="180" height="30" as="geometry" />
        </mxCell>
        <mxCell id="pALLQwBjl_XyyZtuF9r6-6" value="" style="shape=partialRectangle;connectable=0;fillColor=none;top=0;left=0;bottom=0;right=0;editable=1;overflow=hidden;whiteSpace=wrap;html=1;" parent="pALLQwBjl_XyyZtuF9r6-5" vertex="1">
          <mxGeometry width="30" height="30" as="geometry">
            <mxRectangle width="30" height="30" as="alternateBounds" />
          </mxGeometry>
        </mxCell>
        <mxCell id="pALLQwBjl_XyyZtuF9r6-7" value="email" style="shape=partialRectangle;connectable=0;fillColor=none;top=0;left=0;bottom=0;right=0;align=left;spacingLeft=6;overflow=hidden;whiteSpace=wrap;html=1;" parent="pALLQwBjl_XyyZtuF9r6-5" vertex="1">
          <mxGeometry x="30" width="150" height="30" as="geometry">
            <mxRectangle width="150" height="30" as="alternateBounds" />
          </mxGeometry>
        </mxCell>
        <mxCell id="dSE2-kc4EHO7MlBHpSCO-1" value="" style="shape=tableRow;horizontal=0;startSize=0;swimlaneHead=0;swimlaneBody=0;fillColor=none;collapsible=0;dropTarget=0;points=[[0,0.5],[1,0.5]];portConstraint=eastwest;top=0;left=0;right=0;bottom=0;" parent="pALLQwBjl_XyyZtuF9r6-1" vertex="1">
          <mxGeometry y="90" width="180" height="30" as="geometry" />
        </mxCell>
        <mxCell id="dSE2-kc4EHO7MlBHpSCO-2" value="" style="shape=partialRectangle;connectable=0;fillColor=none;top=0;left=0;bottom=0;right=0;editable=1;overflow=hidden;whiteSpace=wrap;html=1;" parent="dSE2-kc4EHO7MlBHpSCO-1" vertex="1">
          <mxGeometry width="30" height="30" as="geometry">
            <mxRectangle width="30" height="30" as="alternateBounds" />
          </mxGeometry>
        </mxCell>
        <mxCell id="dSE2-kc4EHO7MlBHpSCO-3" value="password" style="shape=partialRectangle;connectable=0;fillColor=none;top=0;left=0;bottom=0;right=0;align=left;spacingLeft=6;overflow=hidden;whiteSpace=wrap;html=1;" parent="dSE2-kc4EHO7MlBHpSCO-1" vertex="1">
          <mxGeometry x="30" width="150" height="30" as="geometry">
            <mxRectangle width="150" height="30" as="alternateBounds" />
          </mxGeometry>
        </mxCell>
        <mxCell id="pALLQwBjl_XyyZtuF9r6-8" value="" style="shape=tableRow;horizontal=0;startSize=0;swimlaneHead=0;swimlaneBody=0;fillColor=none;collapsible=0;dropTarget=0;points=[[0,0.5],[1,0.5]];portConstraint=eastwest;top=0;left=0;right=0;bottom=0;" parent="pALLQwBjl_XyyZtuF9r6-1" vertex="1">
          <mxGeometry y="120" width="180" height="30" as="geometry" />
        </mxCell>
        <mxCell id="pALLQwBjl_XyyZtuF9r6-9" value="" style="shape=partialRectangle;connectable=0;fillColor=none;top=0;left=0;bottom=0;right=0;editable=1;overflow=hidden;whiteSpace=wrap;html=1;" parent="pALLQwBjl_XyyZtuF9r6-8" vertex="1">
          <mxGeometry width="30" height="30" as="geometry">
            <mxRectangle width="30" height="30" as="alternateBounds" />
          </mxGeometry>
        </mxCell>
        <mxCell id="pALLQwBjl_XyyZtuF9r6-10" value="password" style="shape=partialRectangle;connectable=0;fillColor=none;top=0;left=0;bottom=0;right=0;align=left;spacingLeft=6;overflow=hidden;whiteSpace=wrap;html=1;" parent="pALLQwBjl_XyyZtuF9r6-8" vertex="1">
          <mxGeometry x="30" width="150" height="30" as="geometry">
            <mxRectangle width="150" height="30" as="alternateBounds" />
          </mxGeometry>
        </mxCell>
        <mxCell id="pALLQwBjl_XyyZtuF9r6-35" value="MonthBudeget Setting" style="shape=table;startSize=30;container=1;collapsible=1;childLayout=tableLayout;fixedRows=1;rowLines=0;fontStyle=1;align=center;resizeLast=1;html=1;" parent="1" vertex="1">
          <mxGeometry x="-10" y="370" width="260" height="120" as="geometry" />
        </mxCell>
        <mxCell id="pALLQwBjl_XyyZtuF9r6-36" value="" style="shape=tableRow;horizontal=0;startSize=0;swimlaneHead=0;swimlaneBody=0;fillColor=none;collapsible=0;dropTarget=0;points=[[0,0.5],[1,0.5]];portConstraint=eastwest;top=0;left=0;right=0;bottom=1;" parent="pALLQwBjl_XyyZtuF9r6-35" vertex="1">
          <mxGeometry y="30" width="260" height="30" as="geometry" />
        </mxCell>
        <mxCell id="pALLQwBjl_XyyZtuF9r6-37" value="PK" style="shape=partialRectangle;connectable=0;fillColor=none;top=0;left=0;bottom=0;right=0;fontStyle=1;overflow=hidden;whiteSpace=wrap;html=1;" parent="pALLQwBjl_XyyZtuF9r6-36" vertex="1">
          <mxGeometry width="30" height="30" as="geometry">
            <mxRectangle width="30" height="30" as="alternateBounds" />
          </mxGeometry>
        </mxCell>
        <mxCell id="pALLQwBjl_XyyZtuF9r6-38" value="id int" style="shape=partialRectangle;connectable=0;fillColor=none;top=0;left=0;bottom=0;right=0;align=left;spacingLeft=6;fontStyle=5;overflow=hidden;whiteSpace=wrap;html=1;" parent="pALLQwBjl_XyyZtuF9r6-36" vertex="1">
          <mxGeometry x="30" width="230" height="30" as="geometry">
            <mxRectangle width="230" height="30" as="alternateBounds" />
          </mxGeometry>
        </mxCell>
        <mxCell id="pALLQwBjl_XyyZtuF9r6-39" value="" style="shape=tableRow;horizontal=0;startSize=0;swimlaneHead=0;swimlaneBody=0;fillColor=none;collapsible=0;dropTarget=0;points=[[0,0.5],[1,0.5]];portConstraint=eastwest;top=0;left=0;right=0;bottom=0;" parent="pALLQwBjl_XyyZtuF9r6-35" vertex="1">
          <mxGeometry y="60" width="260" height="30" as="geometry" />
        </mxCell>
        <mxCell id="pALLQwBjl_XyyZtuF9r6-40" value="FK" style="shape=partialRectangle;connectable=0;fillColor=none;top=0;left=0;bottom=0;right=0;editable=1;overflow=hidden;whiteSpace=wrap;html=1;" parent="pALLQwBjl_XyyZtuF9r6-39" vertex="1">
          <mxGeometry width="30" height="30" as="geometry">
            <mxRectangle width="30" height="30" as="alternateBounds" />
          </mxGeometry>
        </mxCell>
        <mxCell id="pALLQwBjl_XyyZtuF9r6-41" value="owner" style="shape=partialRectangle;connectable=0;fillColor=none;top=0;left=0;bottom=0;right=0;align=left;spacingLeft=6;overflow=hidden;whiteSpace=wrap;html=1;" parent="pALLQwBjl_XyyZtuF9r6-39" vertex="1">
          <mxGeometry x="30" width="230" height="30" as="geometry">
            <mxRectangle width="230" height="30" as="alternateBounds" />
          </mxGeometry>
        </mxCell>
        <mxCell id="pALLQwBjl_XyyZtuF9r6-42" value="" style="shape=tableRow;horizontal=0;startSize=0;swimlaneHead=0;swimlaneBody=0;fillColor=none;collapsible=0;dropTarget=0;points=[[0,0.5],[1,0.5]];portConstraint=eastwest;top=0;left=0;right=0;bottom=0;" parent="pALLQwBjl_XyyZtuF9r6-35" vertex="1">
          <mxGeometry y="90" width="260" height="30" as="geometry" />
        </mxCell>
        <mxCell id="pALLQwBjl_XyyZtuF9r6-43" value="" style="shape=partialRectangle;connectable=0;fillColor=none;top=0;left=0;bottom=0;right=0;editable=1;overflow=hidden;whiteSpace=wrap;html=1;" parent="pALLQwBjl_XyyZtuF9r6-42" vertex="1">
          <mxGeometry width="30" height="30" as="geometry">
            <mxRectangle width="30" height="30" as="alternateBounds" />
          </mxGeometry>
        </mxCell>
        <mxCell id="pALLQwBjl_XyyZtuF9r6-44" value="json_string text" style="shape=partialRectangle;connectable=0;fillColor=none;top=0;left=0;bottom=0;right=0;align=left;spacingLeft=6;overflow=hidden;whiteSpace=wrap;html=1;" parent="pALLQwBjl_XyyZtuF9r6-42" vertex="1">
          <mxGeometry x="30" width="230" height="30" as="geometry">
            <mxRectangle width="230" height="30" as="alternateBounds" />
          </mxGeometry>
        </mxCell>
        <mxCell id="pALLQwBjl_XyyZtuF9r6-45" value="Category Setting" style="shape=table;startSize=30;container=1;collapsible=1;childLayout=tableLayout;fixedRows=1;rowLines=0;fontStyle=1;align=center;resizeLast=1;html=1;" parent="1" vertex="1">
          <mxGeometry x="-10" y="230" width="260" height="120" as="geometry" />
        </mxCell>
        <mxCell id="pALLQwBjl_XyyZtuF9r6-46" value="" style="shape=tableRow;horizontal=0;startSize=0;swimlaneHead=0;swimlaneBody=0;fillColor=none;collapsible=0;dropTarget=0;points=[[0,0.5],[1,0.5]];portConstraint=eastwest;top=0;left=0;right=0;bottom=1;" parent="pALLQwBjl_XyyZtuF9r6-45" vertex="1">
          <mxGeometry y="30" width="260" height="30" as="geometry" />
        </mxCell>
        <mxCell id="pALLQwBjl_XyyZtuF9r6-47" value="PK" style="shape=partialRectangle;connectable=0;fillColor=none;top=0;left=0;bottom=0;right=0;fontStyle=1;overflow=hidden;whiteSpace=wrap;html=1;" parent="pALLQwBjl_XyyZtuF9r6-46" vertex="1">
          <mxGeometry width="30" height="30" as="geometry">
            <mxRectangle width="30" height="30" as="alternateBounds" />
          </mxGeometry>
        </mxCell>
        <mxCell id="pALLQwBjl_XyyZtuF9r6-48" value="id int" style="shape=partialRectangle;connectable=0;fillColor=none;top=0;left=0;bottom=0;right=0;align=left;spacingLeft=6;fontStyle=5;overflow=hidden;whiteSpace=wrap;html=1;" parent="pALLQwBjl_XyyZtuF9r6-46" vertex="1">
          <mxGeometry x="30" width="230" height="30" as="geometry">
            <mxRectangle width="230" height="30" as="alternateBounds" />
          </mxGeometry>
        </mxCell>
        <mxCell id="pALLQwBjl_XyyZtuF9r6-49" value="" style="shape=tableRow;horizontal=0;startSize=0;swimlaneHead=0;swimlaneBody=0;fillColor=none;collapsible=0;dropTarget=0;points=[[0,0.5],[1,0.5]];portConstraint=eastwest;top=0;left=0;right=0;bottom=0;" parent="pALLQwBjl_XyyZtuF9r6-45" vertex="1">
          <mxGeometry y="60" width="260" height="30" as="geometry" />
        </mxCell>
        <mxCell id="pALLQwBjl_XyyZtuF9r6-50" value="FK" style="shape=partialRectangle;connectable=0;fillColor=none;top=0;left=0;bottom=0;right=0;editable=1;overflow=hidden;whiteSpace=wrap;html=1;" parent="pALLQwBjl_XyyZtuF9r6-49" vertex="1">
          <mxGeometry width="30" height="30" as="geometry">
            <mxRectangle width="30" height="30" as="alternateBounds" />
          </mxGeometry>
        </mxCell>
        <mxCell id="pALLQwBjl_XyyZtuF9r6-51" value="owner" style="shape=partialRectangle;connectable=0;fillColor=none;top=0;left=0;bottom=0;right=0;align=left;spacingLeft=6;overflow=hidden;whiteSpace=wrap;html=1;" parent="pALLQwBjl_XyyZtuF9r6-49" vertex="1">
          <mxGeometry x="30" width="230" height="30" as="geometry">
            <mxRectangle width="230" height="30" as="alternateBounds" />
          </mxGeometry>
        </mxCell>
        <mxCell id="pALLQwBjl_XyyZtuF9r6-52" value="" style="shape=tableRow;horizontal=0;startSize=0;swimlaneHead=0;swimlaneBody=0;fillColor=none;collapsible=0;dropTarget=0;points=[[0,0.5],[1,0.5]];portConstraint=eastwest;top=0;left=0;right=0;bottom=0;" parent="pALLQwBjl_XyyZtuF9r6-45" vertex="1">
          <mxGeometry y="90" width="260" height="30" as="geometry" />
        </mxCell>
        <mxCell id="pALLQwBjl_XyyZtuF9r6-53" value="" style="shape=partialRectangle;connectable=0;fillColor=none;top=0;left=0;bottom=0;right=0;editable=1;overflow=hidden;whiteSpace=wrap;html=1;" parent="pALLQwBjl_XyyZtuF9r6-52" vertex="1">
          <mxGeometry width="30" height="30" as="geometry">
            <mxRectangle width="30" height="30" as="alternateBounds" />
          </mxGeometry>
        </mxCell>
        <mxCell id="pALLQwBjl_XyyZtuF9r6-54" value="json_string text" style="shape=partialRectangle;connectable=0;fillColor=none;top=0;left=0;bottom=0;right=0;align=left;spacingLeft=6;overflow=hidden;whiteSpace=wrap;html=1;" parent="pALLQwBjl_XyyZtuF9r6-52" vertex="1">
          <mxGeometry x="30" width="230" height="30" as="geometry">
            <mxRectangle width="230" height="30" as="alternateBounds" />
          </mxGeometry>
        </mxCell>
        <mxCell id="pALLQwBjl_XyyZtuF9r6-55" value="Nickname Setting" style="shape=table;startSize=30;container=1;collapsible=1;childLayout=tableLayout;fixedRows=1;rowLines=0;fontStyle=1;align=center;resizeLast=1;html=1;" parent="1" vertex="1">
          <mxGeometry x="-10" y="30" width="260" height="180" as="geometry" />
        </mxCell>
        <mxCell id="pALLQwBjl_XyyZtuF9r6-56" value="" style="shape=tableRow;horizontal=0;startSize=0;swimlaneHead=0;swimlaneBody=0;fillColor=none;collapsible=0;dropTarget=0;points=[[0,0.5],[1,0.5]];portConstraint=eastwest;top=0;left=0;right=0;bottom=1;" parent="pALLQwBjl_XyyZtuF9r6-55" vertex="1">
          <mxGeometry y="30" width="260" height="30" as="geometry" />
        </mxCell>
        <mxCell id="pALLQwBjl_XyyZtuF9r6-57" value="PK" style="shape=partialRectangle;connectable=0;fillColor=none;top=0;left=0;bottom=0;right=0;fontStyle=1;overflow=hidden;whiteSpace=wrap;html=1;" parent="pALLQwBjl_XyyZtuF9r6-56" vertex="1">
          <mxGeometry width="30" height="30" as="geometry">
            <mxRectangle width="30" height="30" as="alternateBounds" />
          </mxGeometry>
        </mxCell>
        <mxCell id="pALLQwBjl_XyyZtuF9r6-58" value="id int" style="shape=partialRectangle;connectable=0;fillColor=none;top=0;left=0;bottom=0;right=0;align=left;spacingLeft=6;fontStyle=5;overflow=hidden;whiteSpace=wrap;html=1;" parent="pALLQwBjl_XyyZtuF9r6-56" vertex="1">
          <mxGeometry x="30" width="230" height="30" as="geometry">
            <mxRectangle width="230" height="30" as="alternateBounds" />
          </mxGeometry>
        </mxCell>
        <mxCell id="pALLQwBjl_XyyZtuF9r6-59" value="" style="shape=tableRow;horizontal=0;startSize=0;swimlaneHead=0;swimlaneBody=0;fillColor=none;collapsible=0;dropTarget=0;points=[[0,0.5],[1,0.5]];portConstraint=eastwest;top=0;left=0;right=0;bottom=0;" parent="pALLQwBjl_XyyZtuF9r6-55" vertex="1">
          <mxGeometry y="60" width="260" height="30" as="geometry" />
        </mxCell>
        <mxCell id="pALLQwBjl_XyyZtuF9r6-60" value="FK" style="shape=partialRectangle;connectable=0;fillColor=none;top=0;left=0;bottom=0;right=0;editable=1;overflow=hidden;whiteSpace=wrap;html=1;" parent="pALLQwBjl_XyyZtuF9r6-59" vertex="1">
          <mxGeometry width="30" height="30" as="geometry">
            <mxRectangle width="30" height="30" as="alternateBounds" />
          </mxGeometry>
        </mxCell>
        <mxCell id="pALLQwBjl_XyyZtuF9r6-61" value="owner" style="shape=partialRectangle;connectable=0;fillColor=none;top=0;left=0;bottom=0;right=0;align=left;spacingLeft=6;overflow=hidden;whiteSpace=wrap;html=1;" parent="pALLQwBjl_XyyZtuF9r6-59" vertex="1">
          <mxGeometry x="30" width="230" height="30" as="geometry">
            <mxRectangle width="230" height="30" as="alternateBounds" />
          </mxGeometry>
        </mxCell>
        <mxCell id="pALLQwBjl_XyyZtuF9r6-62" value="" style="shape=tableRow;horizontal=0;startSize=0;swimlaneHead=0;swimlaneBody=0;fillColor=none;collapsible=0;dropTarget=0;points=[[0,0.5],[1,0.5]];portConstraint=eastwest;top=0;left=0;right=0;bottom=0;" parent="pALLQwBjl_XyyZtuF9r6-55" vertex="1">
          <mxGeometry y="90" width="260" height="30" as="geometry" />
        </mxCell>
        <mxCell id="pALLQwBjl_XyyZtuF9r6-63" value="" style="shape=partialRectangle;connectable=0;fillColor=none;top=0;left=0;bottom=0;right=0;editable=1;overflow=hidden;whiteSpace=wrap;html=1;" parent="pALLQwBjl_XyyZtuF9r6-62" vertex="1">
          <mxGeometry width="30" height="30" as="geometry">
            <mxRectangle width="30" height="30" as="alternateBounds" />
          </mxGeometry>
        </mxCell>
        <mxCell id="pALLQwBjl_XyyZtuF9r6-64" value="company_name&amp;nbsp;varchar(250) NOT NULL" style="shape=partialRectangle;connectable=0;fillColor=none;top=0;left=0;bottom=0;right=0;align=left;spacingLeft=6;overflow=hidden;whiteSpace=wrap;html=1;" parent="pALLQwBjl_XyyZtuF9r6-62" vertex="1">
          <mxGeometry x="30" width="230" height="30" as="geometry">
            <mxRectangle width="230" height="30" as="alternateBounds" />
          </mxGeometry>
        </mxCell>
        <mxCell id="pALLQwBjl_XyyZtuF9r6-66" value="" style="shape=tableRow;horizontal=0;startSize=0;swimlaneHead=0;swimlaneBody=0;fillColor=none;collapsible=0;dropTarget=0;points=[[0,0.5],[1,0.5]];portConstraint=eastwest;top=0;left=0;right=0;bottom=0;" parent="pALLQwBjl_XyyZtuF9r6-55" vertex="1">
          <mxGeometry y="120" width="260" height="30" as="geometry" />
        </mxCell>
        <mxCell id="pALLQwBjl_XyyZtuF9r6-67" value="" style="shape=partialRectangle;connectable=0;fillColor=none;top=0;left=0;bottom=0;right=0;editable=1;overflow=hidden;whiteSpace=wrap;html=1;" parent="pALLQwBjl_XyyZtuF9r6-66" vertex="1">
          <mxGeometry width="30" height="30" as="geometry">
            <mxRectangle width="30" height="30" as="alternateBounds" />
          </mxGeometry>
        </mxCell>
        <mxCell id="pALLQwBjl_XyyZtuF9r6-68" value="company_nickname&amp;nbsp;varchar(250)" style="shape=partialRectangle;connectable=0;fillColor=none;top=0;left=0;bottom=0;right=0;align=left;spacingLeft=6;overflow=hidden;whiteSpace=wrap;html=1;" parent="pALLQwBjl_XyyZtuF9r6-66" vertex="1">
          <mxGeometry x="30" width="230" height="30" as="geometry">
            <mxRectangle width="230" height="30" as="alternateBounds" />
          </mxGeometry>
        </mxCell>
        <mxCell id="pALLQwBjl_XyyZtuF9r6-94" value="" style="shape=tableRow;horizontal=0;startSize=0;swimlaneHead=0;swimlaneBody=0;fillColor=none;collapsible=0;dropTarget=0;points=[[0,0.5],[1,0.5]];portConstraint=eastwest;top=0;left=0;right=0;bottom=0;" parent="pALLQwBjl_XyyZtuF9r6-55" vertex="1">
          <mxGeometry y="150" width="260" height="30" as="geometry" />
        </mxCell>
        <mxCell id="pALLQwBjl_XyyZtuF9r6-95" value="" style="shape=partialRectangle;connectable=0;fillColor=none;top=0;left=0;bottom=0;right=0;editable=1;overflow=hidden;whiteSpace=wrap;html=1;" parent="pALLQwBjl_XyyZtuF9r6-94" vertex="1">
          <mxGeometry width="30" height="30" as="geometry">
            <mxRectangle width="30" height="30" as="alternateBounds" />
          </mxGeometry>
        </mxCell>
        <mxCell id="pALLQwBjl_XyyZtuF9r6-96" value="category_hook&amp;nbsp;varchar(250)" style="shape=partialRectangle;connectable=0;fillColor=none;top=0;left=0;bottom=0;right=0;align=left;spacingLeft=6;overflow=hidden;whiteSpace=wrap;html=1;" parent="pALLQwBjl_XyyZtuF9r6-94" vertex="1">
          <mxGeometry x="30" width="230" height="30" as="geometry">
            <mxRectangle width="230" height="30" as="alternateBounds" />
          </mxGeometry>
        </mxCell>
        <mxCell id="pALLQwBjl_XyyZtuF9r6-98" value="USER SETTING" style="text;html=1;align=center;verticalAlign=middle;resizable=0;points=[];autosize=1;strokeColor=none;fillColor=none;fontSize=15;fontStyle=1" parent="1" vertex="1">
          <mxGeometry x="246" y="10" width="130" height="30" as="geometry" />
        </mxCell>
        <mxCell id="pALLQwBjl_XyyZtuF9r6-104" value="" style="fontSize=12;html=1;endArrow=ERmandOne;startArrow=ERmandOne;rounded=0;exitX=1;exitY=0.5;exitDx=0;exitDy=0;entryX=0;entryY=0.5;entryDx=0;entryDy=0;strokeColor=#ff0000;edgeStyle=orthogonalEdgeStyle;" parent="1" source="pALLQwBjl_XyyZtuF9r6-2" target="pALLQwBjl_XyyZtuF9r6-59" edge="1">
          <mxGeometry width="100" height="100" relative="1" as="geometry">
            <mxPoint x="-70" y="130" as="sourcePoint" />
            <mxPoint x="30" y="30" as="targetPoint" />
            <Array as="points">
              <mxPoint x="-80" y="55" />
              <mxPoint x="-80" y="105" />
            </Array>
          </mxGeometry>
        </mxCell>
        <mxCell id="pALLQwBjl_XyyZtuF9r6-105" value="" style="fontSize=12;html=1;endArrow=ERmandOne;startArrow=ERmandOne;rounded=0;exitX=1;exitY=0.5;exitDx=0;exitDy=0;entryX=0;entryY=0.5;entryDx=0;entryDy=0;strokeColor=#ff0000;edgeStyle=orthogonalEdgeStyle;" parent="1" source="pALLQwBjl_XyyZtuF9r6-2" target="pALLQwBjl_XyyZtuF9r6-49" edge="1">
          <mxGeometry width="100" height="100" relative="1" as="geometry">
            <mxPoint x="-210" y="250" as="sourcePoint" />
            <mxPoint x="-70" y="200" as="targetPoint" />
            <Array as="points">
              <mxPoint x="-80" y="55" />
              <mxPoint x="-80" y="305" />
            </Array>
          </mxGeometry>
        </mxCell>
        <mxCell id="pALLQwBjl_XyyZtuF9r6-106" value="" style="fontSize=12;html=1;endArrow=ERmandOne;startArrow=ERmandOne;rounded=0;exitX=1;exitY=0.5;exitDx=0;exitDy=0;entryX=0;entryY=0.5;entryDx=0;entryDy=0;strokeColor=#ff0000;edgeStyle=orthogonalEdgeStyle;" parent="1" source="pALLQwBjl_XyyZtuF9r6-2" target="pALLQwBjl_XyyZtuF9r6-39" edge="1">
          <mxGeometry width="100" height="100" relative="1" as="geometry">
            <mxPoint x="-210" y="300" as="sourcePoint" />
            <mxPoint x="-70" y="250" as="targetPoint" />
            <Array as="points">
              <mxPoint x="-80" y="55" />
              <mxPoint x="-80" y="445" />
            </Array>
          </mxGeometry>
        </mxCell>
        <mxCell id="pALLQwBjl_XyyZtuF9r6-119" value="" style="edgeStyle=orthogonalEdgeStyle;fontSize=12;html=1;endArrow=ERzeroToMany;startArrow=ERmandOne;rounded=0;exitX=0;exitY=0.5;exitDx=0;exitDy=0;entryX=0;entryY=0.5;entryDx=0;entryDy=0;strokeColor=#ff0000;" parent="1" source="pALLQwBjl_XyyZtuF9r6-2" target="pALLQwBjl_XyyZtuF9r6-120" edge="1">
          <mxGeometry width="100" height="100" relative="1" as="geometry">
            <mxPoint x="-70" y="490" as="sourcePoint" />
            <mxPoint x="-450" y="590" as="targetPoint" />
            <Array as="points">
              <mxPoint x="-420" y="55" />
              <mxPoint x="-420" y="615" />
            </Array>
          </mxGeometry>
        </mxCell>
        <mxCell id="pALLQwBjl_XyyZtuF9r6-128" value="" style="fontSize=12;html=1;endArrow=ERzeroToMany;endFill=1;startArrow=ERzeroToMany;rounded=0;entryX=1;entryY=0.5;entryDx=0;entryDy=0;jumpStyle=arc;exitX=1;exitY=0.5;exitDx=0;exitDy=0;edgeStyle=orthogonalEdgeStyle;strokeColor=#00ff00;" parent="1" source="pALLQwBjl_XyyZtuF9r6-130" target="5MaNj-TpyxH5WY9Q9MdJ-4" edge="1">
          <mxGeometry width="100" height="100" relative="1" as="geometry">
            <mxPoint x="-90" y="1010" as="sourcePoint" />
            <mxPoint x="-80" y="270" as="targetPoint" />
            <Array as="points">
              <mxPoint x="-90" y="965" />
              <mxPoint x="-90" y="235" />
            </Array>
          </mxGeometry>
        </mxCell>
        <mxCell id="pALLQwBjl_XyyZtuF9r6-145" value="" style="fontSize=12;html=1;endArrow=ERzeroToMany;startArrow=ERmandOne;rounded=0;exitX=0;exitY=0.5;exitDx=0;exitDy=0;entryX=0;entryY=0.5;entryDx=0;entryDy=0;edgeStyle=orthogonalEdgeStyle;jumpStyle=none;strokeColor=#ff0000;" parent="1" source="pALLQwBjl_XyyZtuF9r6-2" target="n3_dwfvNtSZMq8lMFj5W-120" edge="1">
          <mxGeometry width="100" height="100" relative="1" as="geometry">
            <mxPoint x="-380" y="165" as="sourcePoint" />
            <mxPoint x="-380" y="695" as="targetPoint" />
            <Array as="points">
              <mxPoint x="-420" y="55" />
              <mxPoint x="-420" y="935" />
            </Array>
          </mxGeometry>
        </mxCell>
        <mxCell id="pALLQwBjl_XyyZtuF9r6-129" value="" style="fontSize=12;html=1;endArrow=ERzeroToMany;endFill=1;startArrow=ERzeroToMany;rounded=0;entryX=1;entryY=0.5;entryDx=0;entryDy=0;jumpStyle=arc;exitX=1;exitY=0.5;exitDx=0;exitDy=0;edgeStyle=elbowEdgeStyle;strokeColor=#0000ff;" parent="1" source="pALLQwBjl_XyyZtuF9r6-139" target="n3_dwfvNtSZMq8lMFj5W-92" edge="1">
          <mxGeometry width="100" height="100" relative="1" as="geometry">
            <mxPoint x="-410" y="1040" as="sourcePoint" />
            <mxPoint x="110" y="695" as="targetPoint" />
            <Array as="points">
              <mxPoint x="-50" y="790" />
            </Array>
          </mxGeometry>
        </mxCell>
        <mxCell id="216igLRW1TcHRJ4uF2Pu-1" value="Transaction" style="shape=table;startSize=30;container=1;collapsible=1;childLayout=tableLayout;fixedRows=1;rowLines=0;fontStyle=1;align=center;resizeLast=1;" parent="1" vertex="1">
          <mxGeometry x="-780" y="110" width="320" height="360" as="geometry" />
        </mxCell>
        <mxCell id="216igLRW1TcHRJ4uF2Pu-2" value="" style="shape=partialRectangle;collapsible=0;dropTarget=0;pointerEvents=0;fillColor=none;points=[[0,0.5],[1,0.5]];portConstraint=eastwest;top=0;left=0;right=0;bottom=1;" parent="216igLRW1TcHRJ4uF2Pu-1" vertex="1">
          <mxGeometry y="30" width="320" height="30" as="geometry" />
        </mxCell>
        <mxCell id="216igLRW1TcHRJ4uF2Pu-3" value="PK" style="shape=partialRectangle;overflow=hidden;connectable=0;fillColor=none;top=0;left=0;bottom=0;right=0;fontStyle=1;" parent="216igLRW1TcHRJ4uF2Pu-2" vertex="1">
          <mxGeometry width="30" height="30" as="geometry">
            <mxRectangle width="30" height="30" as="alternateBounds" />
          </mxGeometry>
        </mxCell>
        <mxCell id="216igLRW1TcHRJ4uF2Pu-4" value="transaction_id int NOT NULL " style="shape=partialRectangle;overflow=hidden;connectable=0;fillColor=none;top=0;left=0;bottom=0;right=0;align=left;spacingLeft=6;fontStyle=5;" parent="216igLRW1TcHRJ4uF2Pu-2" vertex="1">
          <mxGeometry x="30" width="290" height="30" as="geometry">
            <mxRectangle width="290" height="30" as="alternateBounds" />
          </mxGeometry>
        </mxCell>
        <mxCell id="216igLRW1TcHRJ4uF2Pu-5" value="" style="shape=partialRectangle;collapsible=0;dropTarget=0;pointerEvents=0;fillColor=none;points=[[0,0.5],[1,0.5]];portConstraint=eastwest;top=0;left=0;right=0;bottom=0;" parent="216igLRW1TcHRJ4uF2Pu-1" vertex="1">
          <mxGeometry y="60" width="320" height="30" as="geometry" />
        </mxCell>
        <mxCell id="216igLRW1TcHRJ4uF2Pu-6" value="" style="shape=partialRectangle;overflow=hidden;connectable=0;fillColor=none;top=0;left=0;bottom=0;right=0;" parent="216igLRW1TcHRJ4uF2Pu-5" vertex="1">
          <mxGeometry width="30" height="30" as="geometry">
            <mxRectangle width="30" height="30" as="alternateBounds" />
          </mxGeometry>
        </mxCell>
        <mxCell id="216igLRW1TcHRJ4uF2Pu-7" value="written_datetime datetime NOT NULL" style="shape=partialRectangle;overflow=hidden;connectable=0;fillColor=none;top=0;left=0;bottom=0;right=0;align=left;spacingLeft=6;" parent="216igLRW1TcHRJ4uF2Pu-5" vertex="1">
          <mxGeometry x="30" width="290" height="30" as="geometry">
            <mxRectangle width="290" height="30" as="alternateBounds" />
          </mxGeometry>
        </mxCell>
        <mxCell id="216igLRW1TcHRJ4uF2Pu-8" value="" style="shape=partialRectangle;collapsible=0;dropTarget=0;pointerEvents=0;fillColor=none;points=[[0,0.5],[1,0.5]];portConstraint=eastwest;top=0;left=0;right=0;bottom=0;" parent="216igLRW1TcHRJ4uF2Pu-1" vertex="1">
          <mxGeometry y="90" width="320" height="30" as="geometry" />
        </mxCell>
        <mxCell id="216igLRW1TcHRJ4uF2Pu-9" value="" style="shape=partialRectangle;overflow=hidden;connectable=0;fillColor=none;top=0;left=0;bottom=0;right=0;" parent="216igLRW1TcHRJ4uF2Pu-8" vertex="1">
          <mxGeometry width="30" height="30" as="geometry">
            <mxRectangle width="30" height="30" as="alternateBounds" />
          </mxGeometry>
        </mxCell>
        <mxCell id="216igLRW1TcHRJ4uF2Pu-10" value="updated_datetime datetime NOT NULL" style="shape=partialRectangle;overflow=hidden;connectable=0;fillColor=none;top=0;left=0;bottom=0;right=0;align=left;spacingLeft=6;" parent="216igLRW1TcHRJ4uF2Pu-8" vertex="1">
          <mxGeometry x="30" width="290" height="30" as="geometry">
            <mxRectangle width="290" height="30" as="alternateBounds" />
          </mxGeometry>
        </mxCell>
        <mxCell id="216igLRW1TcHRJ4uF2Pu-11" value="" style="shape=partialRectangle;collapsible=0;dropTarget=0;pointerEvents=0;fillColor=none;points=[[0,0.5],[1,0.5]];portConstraint=eastwest;top=0;left=0;right=0;bottom=0;" parent="216igLRW1TcHRJ4uF2Pu-1" vertex="1">
          <mxGeometry y="120" width="320" height="30" as="geometry" />
        </mxCell>
        <mxCell id="216igLRW1TcHRJ4uF2Pu-12" value="" style="shape=partialRectangle;overflow=hidden;connectable=0;fillColor=none;top=0;left=0;bottom=0;right=0;" parent="216igLRW1TcHRJ4uF2Pu-11" vertex="1">
          <mxGeometry width="30" height="30" as="geometry">
            <mxRectangle width="30" height="30" as="alternateBounds" />
          </mxGeometry>
        </mxCell>
        <mxCell id="216igLRW1TcHRJ4uF2Pu-13" value="transaction_time datetime NOT NULL" style="shape=partialRectangle;overflow=hidden;connectable=0;fillColor=none;top=0;left=0;bottom=0;right=0;align=left;spacingLeft=6;" parent="216igLRW1TcHRJ4uF2Pu-11" vertex="1">
          <mxGeometry x="30" width="290" height="30" as="geometry">
            <mxRectangle width="290" height="30" as="alternateBounds" />
          </mxGeometry>
        </mxCell>
        <mxCell id="216igLRW1TcHRJ4uF2Pu-14" value="" style="shape=partialRectangle;collapsible=0;dropTarget=0;pointerEvents=0;fillColor=none;points=[[0,0.5],[1,0.5]];portConstraint=eastwest;top=0;left=0;right=0;bottom=0;" parent="216igLRW1TcHRJ4uF2Pu-1" vertex="1">
          <mxGeometry y="150" width="320" height="30" as="geometry" />
        </mxCell>
        <mxCell id="216igLRW1TcHRJ4uF2Pu-15" value="FK" style="shape=partialRectangle;overflow=hidden;connectable=0;fillColor=none;top=0;left=0;bottom=0;right=0;" parent="216igLRW1TcHRJ4uF2Pu-14" vertex="1">
          <mxGeometry width="30" height="30" as="geometry">
            <mxRectangle width="30" height="30" as="alternateBounds" />
          </mxGeometry>
        </mxCell>
        <mxCell id="216igLRW1TcHRJ4uF2Pu-16" value="transaction_from NOT NULL" style="shape=partialRectangle;overflow=hidden;connectable=0;fillColor=none;top=0;left=0;bottom=0;right=0;align=left;spacingLeft=6;" parent="216igLRW1TcHRJ4uF2Pu-14" vertex="1">
          <mxGeometry x="30" width="290" height="30" as="geometry">
            <mxRectangle width="290" height="30" as="alternateBounds" />
          </mxGeometry>
        </mxCell>
        <mxCell id="216igLRW1TcHRJ4uF2Pu-17" value="" style="shape=partialRectangle;collapsible=0;dropTarget=0;pointerEvents=0;fillColor=none;points=[[0,0.5],[1,0.5]];portConstraint=eastwest;top=0;left=0;right=0;bottom=0;" parent="216igLRW1TcHRJ4uF2Pu-1" vertex="1">
          <mxGeometry y="180" width="320" height="30" as="geometry" />
        </mxCell>
        <mxCell id="216igLRW1TcHRJ4uF2Pu-18" value="FK" style="shape=partialRectangle;overflow=hidden;connectable=0;fillColor=none;top=0;left=0;bottom=0;right=0;" parent="216igLRW1TcHRJ4uF2Pu-17" vertex="1">
          <mxGeometry width="30" height="30" as="geometry">
            <mxRectangle width="30" height="30" as="alternateBounds" />
          </mxGeometry>
        </mxCell>
        <mxCell id="216igLRW1TcHRJ4uF2Pu-19" value="transaction_from_card" style="shape=partialRectangle;overflow=hidden;connectable=0;fillColor=none;top=0;left=0;bottom=0;right=0;align=left;spacingLeft=6;" parent="216igLRW1TcHRJ4uF2Pu-17" vertex="1">
          <mxGeometry x="30" width="290" height="30" as="geometry">
            <mxRectangle width="290" height="30" as="alternateBounds" />
          </mxGeometry>
        </mxCell>
        <mxCell id="dSE2-kc4EHO7MlBHpSCO-42" value="" style="shape=partialRectangle;collapsible=0;dropTarget=0;pointerEvents=0;fillColor=none;points=[[0,0.5],[1,0.5]];portConstraint=eastwest;top=0;left=0;right=0;bottom=0;" parent="216igLRW1TcHRJ4uF2Pu-1" vertex="1">
          <mxGeometry y="210" width="320" height="30" as="geometry" />
        </mxCell>
        <mxCell id="dSE2-kc4EHO7MlBHpSCO-43" value="" style="shape=partialRectangle;overflow=hidden;connectable=0;fillColor=none;top=0;left=0;bottom=0;right=0;" parent="dSE2-kc4EHO7MlBHpSCO-42" vertex="1">
          <mxGeometry width="30" height="30" as="geometry">
            <mxRectangle width="30" height="30" as="alternateBounds" />
          </mxGeometry>
        </mxCell>
        <mxCell id="dSE2-kc4EHO7MlBHpSCO-44" value="deposit_amount int NOT NULL" style="shape=partialRectangle;overflow=hidden;connectable=0;fillColor=none;top=0;left=0;bottom=0;right=0;align=left;spacingLeft=6;" parent="dSE2-kc4EHO7MlBHpSCO-42" vertex="1">
          <mxGeometry x="30" width="290" height="30" as="geometry">
            <mxRectangle width="290" height="30" as="alternateBounds" />
          </mxGeometry>
        </mxCell>
        <mxCell id="216igLRW1TcHRJ4uF2Pu-23" value="" style="shape=partialRectangle;collapsible=0;dropTarget=0;pointerEvents=0;fillColor=none;points=[[0,0.5],[1,0.5]];portConstraint=eastwest;top=0;left=0;right=0;bottom=0;" parent="216igLRW1TcHRJ4uF2Pu-1" vertex="1">
          <mxGeometry y="240" width="320" height="30" as="geometry" />
        </mxCell>
        <mxCell id="216igLRW1TcHRJ4uF2Pu-24" value="" style="shape=partialRectangle;overflow=hidden;connectable=0;fillColor=none;top=0;left=0;bottom=0;right=0;" parent="216igLRW1TcHRJ4uF2Pu-23" vertex="1">
          <mxGeometry width="30" height="30" as="geometry">
            <mxRectangle width="30" height="30" as="alternateBounds" />
          </mxGeometry>
        </mxCell>
        <mxCell id="216igLRW1TcHRJ4uF2Pu-25" value="withdrawal_amount int NOT NULL" style="shape=partialRectangle;overflow=hidden;connectable=0;fillColor=none;top=0;left=0;bottom=0;right=0;align=left;spacingLeft=6;" parent="216igLRW1TcHRJ4uF2Pu-23" vertex="1">
          <mxGeometry x="30" width="290" height="30" as="geometry">
            <mxRectangle width="290" height="30" as="alternateBounds" />
          </mxGeometry>
        </mxCell>
        <mxCell id="216igLRW1TcHRJ4uF2Pu-26" value="" style="shape=partialRectangle;collapsible=0;dropTarget=0;pointerEvents=0;fillColor=none;points=[[0,0.5],[1,0.5]];portConstraint=eastwest;top=0;left=0;right=0;bottom=0;" parent="216igLRW1TcHRJ4uF2Pu-1" vertex="1">
          <mxGeometry y="270" width="320" height="30" as="geometry" />
        </mxCell>
        <mxCell id="216igLRW1TcHRJ4uF2Pu-27" value="" style="shape=partialRectangle;overflow=hidden;connectable=0;fillColor=none;top=0;left=0;bottom=0;right=0;" parent="216igLRW1TcHRJ4uF2Pu-26" vertex="1">
          <mxGeometry width="30" height="30" as="geometry">
            <mxRectangle width="30" height="30" as="alternateBounds" />
          </mxGeometry>
        </mxCell>
        <mxCell id="216igLRW1TcHRJ4uF2Pu-28" value="main_category varchar(250) NOT NULL" style="shape=partialRectangle;overflow=hidden;connectable=0;fillColor=none;top=0;left=0;bottom=0;right=0;align=left;spacingLeft=6;" parent="216igLRW1TcHRJ4uF2Pu-26" vertex="1">
          <mxGeometry x="30" width="290" height="30" as="geometry">
            <mxRectangle width="290" height="30" as="alternateBounds" />
          </mxGeometry>
        </mxCell>
        <mxCell id="216igLRW1TcHRJ4uF2Pu-29" value="" style="shape=partialRectangle;collapsible=0;dropTarget=0;pointerEvents=0;fillColor=none;points=[[0,0.5],[1,0.5]];portConstraint=eastwest;top=0;left=0;right=0;bottom=0;" parent="216igLRW1TcHRJ4uF2Pu-1" vertex="1">
          <mxGeometry y="300" width="320" height="30" as="geometry" />
        </mxCell>
        <mxCell id="216igLRW1TcHRJ4uF2Pu-30" value="FK" style="shape=partialRectangle;overflow=hidden;connectable=0;fillColor=none;top=0;left=0;bottom=0;right=0;" parent="216igLRW1TcHRJ4uF2Pu-29" vertex="1">
          <mxGeometry width="30" height="30" as="geometry">
            <mxRectangle width="30" height="30" as="alternateBounds" />
          </mxGeometry>
        </mxCell>
        <mxCell id="216igLRW1TcHRJ4uF2Pu-31" value="sub_category" style="shape=partialRectangle;overflow=hidden;connectable=0;fillColor=none;top=0;left=0;bottom=0;right=0;align=left;spacingLeft=6;" parent="216igLRW1TcHRJ4uF2Pu-29" vertex="1">
          <mxGeometry x="30" width="290" height="30" as="geometry">
            <mxRectangle width="290" height="30" as="alternateBounds" />
          </mxGeometry>
        </mxCell>
        <mxCell id="216igLRW1TcHRJ4uF2Pu-35" value="" style="shape=partialRectangle;collapsible=0;dropTarget=0;pointerEvents=0;fillColor=none;points=[[0,0.5],[1,0.5]];portConstraint=eastwest;top=0;left=0;right=0;bottom=0;" parent="216igLRW1TcHRJ4uF2Pu-1" vertex="1">
          <mxGeometry y="330" width="320" height="30" as="geometry" />
        </mxCell>
        <mxCell id="216igLRW1TcHRJ4uF2Pu-36" value="" style="shape=partialRectangle;overflow=hidden;connectable=0;fillColor=none;top=0;left=0;bottom=0;right=0;" parent="216igLRW1TcHRJ4uF2Pu-35" vertex="1">
          <mxGeometry width="30" height="30" as="geometry">
            <mxRectangle width="30" height="30" as="alternateBounds" />
          </mxGeometry>
        </mxCell>
        <mxCell id="216igLRW1TcHRJ4uF2Pu-37" value="description text" style="shape=partialRectangle;overflow=hidden;connectable=0;fillColor=none;top=0;left=0;bottom=0;right=0;align=left;spacingLeft=6;" parent="216igLRW1TcHRJ4uF2Pu-35" vertex="1">
          <mxGeometry x="30" width="290" height="30" as="geometry">
            <mxRectangle width="290" height="30" as="alternateBounds" />
          </mxGeometry>
        </mxCell>
        <mxCell id="dSE2-kc4EHO7MlBHpSCO-4" value="Investment" style="shape=table;startSize=30;container=1;collapsible=1;childLayout=tableLayout;fixedRows=1;rowLines=0;fontStyle=1;align=center;resizeLast=1;" parent="1" vertex="1">
          <mxGeometry x="-780" y="490" width="320" height="390" as="geometry" />
        </mxCell>
        <mxCell id="dSE2-kc4EHO7MlBHpSCO-5" value="" style="shape=partialRectangle;collapsible=0;dropTarget=0;pointerEvents=0;fillColor=none;points=[[0,0.5],[1,0.5]];portConstraint=eastwest;top=0;left=0;right=0;bottom=1;" parent="dSE2-kc4EHO7MlBHpSCO-4" vertex="1">
          <mxGeometry y="30" width="320" height="30" as="geometry" />
        </mxCell>
        <mxCell id="dSE2-kc4EHO7MlBHpSCO-6" value="PK" style="shape=partialRectangle;overflow=hidden;connectable=0;fillColor=none;top=0;left=0;bottom=0;right=0;fontStyle=1;" parent="dSE2-kc4EHO7MlBHpSCO-5" vertex="1">
          <mxGeometry width="30" height="30" as="geometry">
            <mxRectangle width="30" height="30" as="alternateBounds" />
          </mxGeometry>
        </mxCell>
        <mxCell id="dSE2-kc4EHO7MlBHpSCO-7" value="investment_id int NOT NULL " style="shape=partialRectangle;overflow=hidden;connectable=0;fillColor=none;top=0;left=0;bottom=0;right=0;align=left;spacingLeft=6;fontStyle=5;" parent="dSE2-kc4EHO7MlBHpSCO-5" vertex="1">
          <mxGeometry x="30" width="290" height="30" as="geometry">
            <mxRectangle width="290" height="30" as="alternateBounds" />
          </mxGeometry>
        </mxCell>
        <mxCell id="dSE2-kc4EHO7MlBHpSCO-8" value="" style="shape=partialRectangle;collapsible=0;dropTarget=0;pointerEvents=0;fillColor=none;points=[[0,0.5],[1,0.5]];portConstraint=eastwest;top=0;left=0;right=0;bottom=0;" parent="dSE2-kc4EHO7MlBHpSCO-4" vertex="1">
          <mxGeometry y="60" width="320" height="30" as="geometry" />
        </mxCell>
        <mxCell id="dSE2-kc4EHO7MlBHpSCO-9" value="" style="shape=partialRectangle;overflow=hidden;connectable=0;fillColor=none;top=0;left=0;bottom=0;right=0;" parent="dSE2-kc4EHO7MlBHpSCO-8" vertex="1">
          <mxGeometry width="30" height="30" as="geometry">
            <mxRectangle width="30" height="30" as="alternateBounds" />
          </mxGeometry>
        </mxCell>
        <mxCell id="dSE2-kc4EHO7MlBHpSCO-10" value="written_datetime datetime NOT NULL" style="shape=partialRectangle;overflow=hidden;connectable=0;fillColor=none;top=0;left=0;bottom=0;right=0;align=left;spacingLeft=6;" parent="dSE2-kc4EHO7MlBHpSCO-8" vertex="1">
          <mxGeometry x="30" width="290" height="30" as="geometry">
            <mxRectangle width="290" height="30" as="alternateBounds" />
          </mxGeometry>
        </mxCell>
        <mxCell id="dSE2-kc4EHO7MlBHpSCO-11" value="" style="shape=partialRectangle;collapsible=0;dropTarget=0;pointerEvents=0;fillColor=none;points=[[0,0.5],[1,0.5]];portConstraint=eastwest;top=0;left=0;right=0;bottom=0;" parent="dSE2-kc4EHO7MlBHpSCO-4" vertex="1">
          <mxGeometry y="90" width="320" height="30" as="geometry" />
        </mxCell>
        <mxCell id="dSE2-kc4EHO7MlBHpSCO-12" value="" style="shape=partialRectangle;overflow=hidden;connectable=0;fillColor=none;top=0;left=0;bottom=0;right=0;" parent="dSE2-kc4EHO7MlBHpSCO-11" vertex="1">
          <mxGeometry width="30" height="30" as="geometry">
            <mxRectangle width="30" height="30" as="alternateBounds" />
          </mxGeometry>
        </mxCell>
        <mxCell id="dSE2-kc4EHO7MlBHpSCO-13" value="updated_datetime datetime NOT NULL" style="shape=partialRectangle;overflow=hidden;connectable=0;fillColor=none;top=0;left=0;bottom=0;right=0;align=left;spacingLeft=6;" parent="dSE2-kc4EHO7MlBHpSCO-11" vertex="1">
          <mxGeometry x="30" width="290" height="30" as="geometry">
            <mxRectangle width="290" height="30" as="alternateBounds" />
          </mxGeometry>
        </mxCell>
        <mxCell id="dSE2-kc4EHO7MlBHpSCO-14" value="" style="shape=partialRectangle;collapsible=0;dropTarget=0;pointerEvents=0;fillColor=none;points=[[0,0.5],[1,0.5]];portConstraint=eastwest;top=0;left=0;right=0;bottom=0;" parent="dSE2-kc4EHO7MlBHpSCO-4" vertex="1">
          <mxGeometry y="120" width="320" height="30" as="geometry" />
        </mxCell>
        <mxCell id="dSE2-kc4EHO7MlBHpSCO-15" value="" style="shape=partialRectangle;overflow=hidden;connectable=0;fillColor=none;top=0;left=0;bottom=0;right=0;" parent="dSE2-kc4EHO7MlBHpSCO-14" vertex="1">
          <mxGeometry width="30" height="30" as="geometry">
            <mxRectangle width="30" height="30" as="alternateBounds" />
          </mxGeometry>
        </mxCell>
        <mxCell id="dSE2-kc4EHO7MlBHpSCO-16" value="invest_time datetime NOT NULL" style="shape=partialRectangle;overflow=hidden;connectable=0;fillColor=none;top=0;left=0;bottom=0;right=0;align=left;spacingLeft=6;" parent="dSE2-kc4EHO7MlBHpSCO-14" vertex="1">
          <mxGeometry x="30" width="290" height="30" as="geometry">
            <mxRectangle width="290" height="30" as="alternateBounds" />
          </mxGeometry>
        </mxCell>
        <mxCell id="dSE2-kc4EHO7MlBHpSCO-17" value="" style="shape=partialRectangle;collapsible=0;dropTarget=0;pointerEvents=0;fillColor=none;points=[[0,0.5],[1,0.5]];portConstraint=eastwest;top=0;left=0;right=0;bottom=0;" parent="dSE2-kc4EHO7MlBHpSCO-4" vertex="1">
          <mxGeometry y="150" width="320" height="30" as="geometry" />
        </mxCell>
        <mxCell id="dSE2-kc4EHO7MlBHpSCO-18" value="FK" style="shape=partialRectangle;overflow=hidden;connectable=0;fillColor=none;top=0;left=0;bottom=0;right=0;" parent="dSE2-kc4EHO7MlBHpSCO-17" vertex="1">
          <mxGeometry width="30" height="30" as="geometry">
            <mxRectangle width="30" height="30" as="alternateBounds" />
          </mxGeometry>
        </mxCell>
        <mxCell id="dSE2-kc4EHO7MlBHpSCO-19" value="security_account NOT NULL" style="shape=partialRectangle;overflow=hidden;connectable=0;fillColor=none;top=0;left=0;bottom=0;right=0;align=left;spacingLeft=6;" parent="dSE2-kc4EHO7MlBHpSCO-17" vertex="1">
          <mxGeometry x="30" width="290" height="30" as="geometry">
            <mxRectangle width="290" height="30" as="alternateBounds" />
          </mxGeometry>
        </mxCell>
        <mxCell id="dSE2-kc4EHO7MlBHpSCO-49" value="" style="shape=partialRectangle;collapsible=0;dropTarget=0;pointerEvents=0;fillColor=none;points=[[0,0.5],[1,0.5]];portConstraint=eastwest;top=0;left=0;right=0;bottom=0;" parent="dSE2-kc4EHO7MlBHpSCO-4" vertex="1">
          <mxGeometry y="180" width="320" height="30" as="geometry" />
        </mxCell>
        <mxCell id="dSE2-kc4EHO7MlBHpSCO-50" value="" style="shape=partialRectangle;overflow=hidden;connectable=0;fillColor=none;top=0;left=0;bottom=0;right=0;" parent="dSE2-kc4EHO7MlBHpSCO-49" vertex="1">
          <mxGeometry width="30" height="30" as="geometry">
            <mxRectangle width="30" height="30" as="alternateBounds" />
          </mxGeometry>
        </mxCell>
        <mxCell id="dSE2-kc4EHO7MlBHpSCO-51" value="deal_price int NOT NULL" style="shape=partialRectangle;overflow=hidden;connectable=0;fillColor=none;top=0;left=0;bottom=0;right=0;align=left;spacingLeft=6;" parent="dSE2-kc4EHO7MlBHpSCO-49" vertex="1">
          <mxGeometry x="30" width="290" height="30" as="geometry">
            <mxRectangle width="290" height="30" as="alternateBounds" />
          </mxGeometry>
        </mxCell>
        <mxCell id="dSE2-kc4EHO7MlBHpSCO-52" value="" style="shape=partialRectangle;collapsible=0;dropTarget=0;pointerEvents=0;fillColor=none;points=[[0,0.5],[1,0.5]];portConstraint=eastwest;top=0;left=0;right=0;bottom=0;" parent="dSE2-kc4EHO7MlBHpSCO-4" vertex="1">
          <mxGeometry y="210" width="320" height="30" as="geometry" />
        </mxCell>
        <mxCell id="dSE2-kc4EHO7MlBHpSCO-53" value="" style="shape=partialRectangle;overflow=hidden;connectable=0;fillColor=none;top=0;left=0;bottom=0;right=0;" parent="dSE2-kc4EHO7MlBHpSCO-52" vertex="1">
          <mxGeometry width="30" height="30" as="geometry">
            <mxRectangle width="30" height="30" as="alternateBounds" />
          </mxGeometry>
        </mxCell>
        <mxCell id="dSE2-kc4EHO7MlBHpSCO-54" value="item_amount int NOT NULL" style="shape=partialRectangle;overflow=hidden;connectable=0;fillColor=none;top=0;left=0;bottom=0;right=0;align=left;spacingLeft=6;" parent="dSE2-kc4EHO7MlBHpSCO-52" vertex="1">
          <mxGeometry x="30" width="290" height="30" as="geometry">
            <mxRectangle width="290" height="30" as="alternateBounds" />
          </mxGeometry>
        </mxCell>
        <mxCell id="dSE2-kc4EHO7MlBHpSCO-55" value="" style="shape=partialRectangle;collapsible=0;dropTarget=0;pointerEvents=0;fillColor=none;points=[[0,0.5],[1,0.5]];portConstraint=eastwest;top=0;left=0;right=0;bottom=0;" parent="dSE2-kc4EHO7MlBHpSCO-4" vertex="1">
          <mxGeometry y="240" width="320" height="30" as="geometry" />
        </mxCell>
        <mxCell id="dSE2-kc4EHO7MlBHpSCO-56" value="" style="shape=partialRectangle;overflow=hidden;connectable=0;fillColor=none;top=0;left=0;bottom=0;right=0;" parent="dSE2-kc4EHO7MlBHpSCO-55" vertex="1">
          <mxGeometry width="30" height="30" as="geometry">
            <mxRectangle width="30" height="30" as="alternateBounds" />
          </mxGeometry>
        </mxCell>
        <mxCell id="dSE2-kc4EHO7MlBHpSCO-57" value="deal_type varchar(250) NOT NULL" style="shape=partialRectangle;overflow=hidden;connectable=0;fillColor=none;top=0;left=0;bottom=0;right=0;align=left;spacingLeft=6;" parent="dSE2-kc4EHO7MlBHpSCO-55" vertex="1">
          <mxGeometry x="30" width="290" height="30" as="geometry">
            <mxRectangle width="290" height="30" as="alternateBounds" />
          </mxGeometry>
        </mxCell>
        <mxCell id="dSE2-kc4EHO7MlBHpSCO-58" value="" style="shape=partialRectangle;collapsible=0;dropTarget=0;pointerEvents=0;fillColor=none;points=[[0,0.5],[1,0.5]];portConstraint=eastwest;top=0;left=0;right=0;bottom=0;" parent="dSE2-kc4EHO7MlBHpSCO-4" vertex="1">
          <mxGeometry y="270" width="320" height="30" as="geometry" />
        </mxCell>
        <mxCell id="dSE2-kc4EHO7MlBHpSCO-59" value="" style="shape=partialRectangle;overflow=hidden;connectable=0;fillColor=none;top=0;left=0;bottom=0;right=0;" parent="dSE2-kc4EHO7MlBHpSCO-58" vertex="1">
          <mxGeometry width="30" height="30" as="geometry">
            <mxRectangle width="30" height="30" as="alternateBounds" />
          </mxGeometry>
        </mxCell>
        <mxCell id="dSE2-kc4EHO7MlBHpSCO-60" value="item_category varchar(250) NOT NULL" style="shape=partialRectangle;overflow=hidden;connectable=0;fillColor=none;top=0;left=0;bottom=0;right=0;align=left;spacingLeft=6;" parent="dSE2-kc4EHO7MlBHpSCO-58" vertex="1">
          <mxGeometry x="30" width="290" height="30" as="geometry">
            <mxRectangle width="290" height="30" as="alternateBounds" />
          </mxGeometry>
        </mxCell>
        <mxCell id="dSE2-kc4EHO7MlBHpSCO-61" value="" style="shape=partialRectangle;collapsible=0;dropTarget=0;pointerEvents=0;fillColor=none;points=[[0,0.5],[1,0.5]];portConstraint=eastwest;top=0;left=0;right=0;bottom=0;" parent="dSE2-kc4EHO7MlBHpSCO-4" vertex="1">
          <mxGeometry y="300" width="320" height="30" as="geometry" />
        </mxCell>
        <mxCell id="dSE2-kc4EHO7MlBHpSCO-62" value="" style="shape=partialRectangle;overflow=hidden;connectable=0;fillColor=none;top=0;left=0;bottom=0;right=0;" parent="dSE2-kc4EHO7MlBHpSCO-61" vertex="1">
          <mxGeometry width="30" height="30" as="geometry">
            <mxRectangle width="30" height="30" as="alternateBounds" />
          </mxGeometry>
        </mxCell>
        <mxCell id="dSE2-kc4EHO7MlBHpSCO-63" value="invest_target_symbol varchar(250) NOT NULL" style="shape=partialRectangle;overflow=hidden;connectable=0;fillColor=none;top=0;left=0;bottom=0;right=0;align=left;spacingLeft=6;" parent="dSE2-kc4EHO7MlBHpSCO-61" vertex="1">
          <mxGeometry x="30" width="290" height="30" as="geometry">
            <mxRectangle width="290" height="30" as="alternateBounds" />
          </mxGeometry>
        </mxCell>
        <mxCell id="dSE2-kc4EHO7MlBHpSCO-26" value="" style="shape=partialRectangle;collapsible=0;dropTarget=0;pointerEvents=0;fillColor=none;points=[[0,0.5],[1,0.5]];portConstraint=eastwest;top=0;left=0;right=0;bottom=0;" parent="dSE2-kc4EHO7MlBHpSCO-4" vertex="1">
          <mxGeometry y="330" width="320" height="30" as="geometry" />
        </mxCell>
        <mxCell id="dSE2-kc4EHO7MlBHpSCO-27" value="" style="shape=partialRectangle;overflow=hidden;connectable=0;fillColor=none;top=0;left=0;bottom=0;right=0;" parent="dSE2-kc4EHO7MlBHpSCO-26" vertex="1">
          <mxGeometry width="30" height="30" as="geometry">
            <mxRectangle width="30" height="30" as="alternateBounds" />
          </mxGeometry>
        </mxCell>
        <mxCell id="dSE2-kc4EHO7MlBHpSCO-28" value="invest_target varchar(250) NOT NULL" style="shape=partialRectangle;overflow=hidden;connectable=0;fillColor=none;top=0;left=0;bottom=0;right=0;align=left;spacingLeft=6;" parent="dSE2-kc4EHO7MlBHpSCO-26" vertex="1">
          <mxGeometry x="30" width="290" height="30" as="geometry">
            <mxRectangle width="290" height="30" as="alternateBounds" />
          </mxGeometry>
        </mxCell>
        <mxCell id="dSE2-kc4EHO7MlBHpSCO-38" value="" style="shape=partialRectangle;collapsible=0;dropTarget=0;pointerEvents=0;fillColor=none;points=[[0,0.5],[1,0.5]];portConstraint=eastwest;top=0;left=0;right=0;bottom=0;" parent="dSE2-kc4EHO7MlBHpSCO-4" vertex="1">
          <mxGeometry y="360" width="320" height="30" as="geometry" />
        </mxCell>
        <mxCell id="dSE2-kc4EHO7MlBHpSCO-39" value="" style="shape=partialRectangle;overflow=hidden;connectable=0;fillColor=none;top=0;left=0;bottom=0;right=0;" parent="dSE2-kc4EHO7MlBHpSCO-38" vertex="1">
          <mxGeometry width="30" height="30" as="geometry">
            <mxRectangle width="30" height="30" as="alternateBounds" />
          </mxGeometry>
        </mxCell>
        <mxCell id="dSE2-kc4EHO7MlBHpSCO-40" value="description text" style="shape=partialRectangle;overflow=hidden;connectable=0;fillColor=none;top=0;left=0;bottom=0;right=0;align=left;spacingLeft=6;" parent="dSE2-kc4EHO7MlBHpSCO-38" vertex="1">
          <mxGeometry x="30" width="290" height="30" as="geometry">
            <mxRectangle width="290" height="30" as="alternateBounds" />
          </mxGeometry>
        </mxCell>
        <mxCell id="pALLQwBjl_XyyZtuF9r6-127" value="" style="fontSize=12;html=1;endArrow=ERzeroToMany;startArrow=ERmandOne;rounded=0;exitX=0;exitY=0.5;exitDx=0;exitDy=0;entryX=0;entryY=0.5;entryDx=0;entryDy=0;edgeStyle=orthogonalEdgeStyle;jumpStyle=arc;strokeColor=#00FF00;" parent="1" source="5MaNj-TpyxH5WY9Q9MdJ-4" target="pALLQwBjl_XyyZtuF9r6-124" edge="1">
          <mxGeometry width="100" height="100" relative="1" as="geometry">
            <mxPoint x="-940" y="110" as="sourcePoint" />
            <mxPoint x="-940" y="530" as="targetPoint" />
            <Array as="points">
              <mxPoint x="-430" y="235" />
              <mxPoint x="-430" y="645" />
            </Array>
          </mxGeometry>
        </mxCell>
        <mxCell id="dSE2-kc4EHO7MlBHpSCO-45" value="" style="edgeStyle=orthogonalEdgeStyle;fontSize=12;html=1;endArrow=ERzeroToMany;startArrow=ERmandOne;rounded=0;exitX=0;exitY=0.5;exitDx=0;exitDy=0;entryX=1;entryY=0.5;entryDx=0;entryDy=0;jumpStyle=arc;strokeColor=#00FF00;" parent="1" source="5MaNj-TpyxH5WY9Q9MdJ-4" target="216igLRW1TcHRJ4uF2Pu-14" edge="1">
          <mxGeometry width="100" height="100" relative="1" as="geometry">
            <mxPoint x="-510" y="370" as="sourcePoint" />
            <mxPoint x="-410" y="270" as="targetPoint" />
            <Array as="points">
              <mxPoint x="-430" y="235" />
              <mxPoint x="-430" y="275" />
            </Array>
          </mxGeometry>
        </mxCell>
        <mxCell id="dSE2-kc4EHO7MlBHpSCO-46" value="" style="edgeStyle=orthogonalEdgeStyle;fontSize=12;html=1;endArrow=ERzeroToMany;startArrow=ERmandOne;rounded=0;exitX=0;exitY=0.5;exitDx=0;exitDy=0;entryX=1;entryY=0.5;entryDx=0;entryDy=0;jumpStyle=arc;strokeColor=#00FF00;" parent="1" source="5MaNj-TpyxH5WY9Q9MdJ-4" target="dSE2-kc4EHO7MlBHpSCO-17" edge="1">
          <mxGeometry width="100" height="100" relative="1" as="geometry">
            <mxPoint x="-850" y="440" as="sourcePoint" />
            <mxPoint x="-930" y="420" as="targetPoint" />
            <Array as="points">
              <mxPoint x="-430" y="235" />
              <mxPoint x="-430" y="655" />
            </Array>
          </mxGeometry>
        </mxCell>
        <mxCell id="dSE2-kc4EHO7MlBHpSCO-48" value="" style="fontSize=12;html=1;endArrow=ERzeroToMany;startArrow=ERzeroToOne;rounded=0;exitX=0;exitY=0.5;exitDx=0;exitDy=0;entryX=1;entryY=0.5;entryDx=0;entryDy=0;edgeStyle=orthogonalEdgeStyle;strokeColor=#0000ff;jumpStyle=gap;" parent="1" source="n3_dwfvNtSZMq8lMFj5W-92" target="216igLRW1TcHRJ4uF2Pu-17" edge="1">
          <mxGeometry width="100" height="100" relative="1" as="geometry">
            <mxPoint x="-510" y="470" as="sourcePoint" />
            <mxPoint x="-410" y="370" as="targetPoint" />
            <Array as="points">
              <mxPoint x="-410" y="585" />
              <mxPoint x="-410" y="305" />
            </Array>
          </mxGeometry>
        </mxCell>
        <mxCell id="dSE2-kc4EHO7MlBHpSCO-64" value="" style="edgeStyle=orthogonalEdgeStyle;fontSize=12;html=1;endArrow=ERzeroToMany;endFill=1;startArrow=ERzeroToMany;rounded=0;entryX=0;entryY=0.5;entryDx=0;entryDy=0;exitX=0;exitY=0.5;exitDx=0;exitDy=0;" parent="1" source="n3_dwfvNtSZMq8lMFj5W-155" target="216igLRW1TcHRJ4uF2Pu-29" edge="1">
          <mxGeometry width="100" height="100" relative="1" as="geometry">
            <mxPoint x="-510" y="580" as="sourcePoint" />
            <mxPoint x="-410" y="480" as="targetPoint" />
            <Array as="points">
              <mxPoint x="-810" y="945" />
              <mxPoint x="-810" y="425" />
            </Array>
          </mxGeometry>
        </mxCell>
      </root>
    </mxGraphModel>
  </diagram>
  <diagram id="E07XoxtlxPig52tUIvkM" name="Sitemap-mobile">
    <mxGraphModel dx="1418" dy="828" grid="1" gridSize="10" guides="1" tooltips="1" connect="1" arrows="1" fold="1" page="1" pageScale="1" pageWidth="827" pageHeight="1169" math="0" shadow="0">
      <root>
        <mxCell id="0" />
        <mxCell id="1" parent="0" />
        <mxCell id="0yeUc2Y7v0AasNrGvleX-25" style="edgeStyle=orthogonalEdgeStyle;rounded=0;orthogonalLoop=1;jettySize=auto;html=1;exitX=0.5;exitY=1;exitDx=0;exitDy=0;entryX=0.5;entryY=0;entryDx=0;entryDy=0;endArrow=none;endFill=0;" edge="1" parent="1" source="0yeUc2Y7v0AasNrGvleX-1" target="0yeUc2Y7v0AasNrGvleX-2">
          <mxGeometry relative="1" as="geometry" />
        </mxCell>
        <mxCell id="0yeUc2Y7v0AasNrGvleX-26" style="edgeStyle=orthogonalEdgeStyle;rounded=0;orthogonalLoop=1;jettySize=auto;html=1;exitX=0.5;exitY=1;exitDx=0;exitDy=0;entryX=0.5;entryY=0;entryDx=0;entryDy=0;endArrow=none;endFill=0;" edge="1" parent="1" source="0yeUc2Y7v0AasNrGvleX-1" target="0yeUc2Y7v0AasNrGvleX-5">
          <mxGeometry relative="1" as="geometry" />
        </mxCell>
        <mxCell id="0yeUc2Y7v0AasNrGvleX-27" style="edgeStyle=orthogonalEdgeStyle;rounded=0;orthogonalLoop=1;jettySize=auto;html=1;exitX=0.5;exitY=1;exitDx=0;exitDy=0;entryX=0.5;entryY=0;entryDx=0;entryDy=0;endArrow=none;endFill=0;" edge="1" parent="1" source="0yeUc2Y7v0AasNrGvleX-1" target="0yeUc2Y7v0AasNrGvleX-6">
          <mxGeometry relative="1" as="geometry" />
        </mxCell>
        <mxCell id="0yeUc2Y7v0AasNrGvleX-1" value="Project" style="rounded=0;whiteSpace=wrap;html=1;fontSize=30;fillColor=#dae8fc;strokeColor=#6c8ebf;" vertex="1" parent="1">
          <mxGeometry x="170" y="120" width="280" height="40" as="geometry" />
        </mxCell>
        <mxCell id="0yeUc2Y7v0AasNrGvleX-2" value="가계부" style="rounded=0;whiteSpace=wrap;html=1;fontSize=18;fillColor=#dae8fc;strokeColor=#6c8ebf;" vertex="1" parent="1">
          <mxGeometry x="100" y="200" width="100" height="30" as="geometry" />
        </mxCell>
        <mxCell id="0yeUc2Y7v0AasNrGvleX-5" value="투자정보" style="rounded=0;whiteSpace=wrap;html=1;fontSize=18;fillColor=#dae8fc;strokeColor=#6c8ebf;" vertex="1" parent="1">
          <mxGeometry x="260" y="200" width="100" height="30" as="geometry" />
        </mxCell>
        <mxCell id="0yeUc2Y7v0AasNrGvleX-28" style="edgeStyle=orthogonalEdgeStyle;rounded=0;orthogonalLoop=1;jettySize=auto;html=1;exitX=0.5;exitY=1;exitDx=0;exitDy=0;entryX=0.5;entryY=0;entryDx=0;entryDy=0;endArrow=none;endFill=0;" edge="1" parent="1" source="0yeUc2Y7v0AasNrGvleX-6" target="0yeUc2Y7v0AasNrGvleX-7">
          <mxGeometry relative="1" as="geometry" />
        </mxCell>
        <mxCell id="0yeUc2Y7v0AasNrGvleX-29" style="edgeStyle=orthogonalEdgeStyle;rounded=0;orthogonalLoop=1;jettySize=auto;html=1;exitX=0.5;exitY=1;exitDx=0;exitDy=0;entryX=0.5;entryY=0;entryDx=0;entryDy=0;endArrow=none;endFill=0;" edge="1" parent="1" source="0yeUc2Y7v0AasNrGvleX-6" target="0yeUc2Y7v0AasNrGvleX-8">
          <mxGeometry relative="1" as="geometry" />
        </mxCell>
        <mxCell id="0yeUc2Y7v0AasNrGvleX-6" value="현황 조회" style="rounded=0;whiteSpace=wrap;html=1;fontSize=18;fillColor=#dae8fc;strokeColor=#6c8ebf;" vertex="1" parent="1">
          <mxGeometry x="420" y="200" width="100" height="30" as="geometry" />
        </mxCell>
        <mxCell id="0yeUc2Y7v0AasNrGvleX-7" value="&lt;font style=&quot;font-size: 16px;&quot;&gt;가계 현황&lt;/font&gt;" style="rounded=0;whiteSpace=wrap;html=1;fontSize=18;fillColor=#dae8fc;strokeColor=#6c8ebf;" vertex="1" parent="1">
          <mxGeometry x="420" y="280" width="100" height="30" as="geometry" />
        </mxCell>
        <mxCell id="0yeUc2Y7v0AasNrGvleX-8" value="&lt;span style=&quot;font-size: 16px;&quot;&gt;투자 현황&lt;/span&gt;" style="rounded=0;whiteSpace=wrap;html=1;fontSize=18;fillColor=#dae8fc;strokeColor=#6c8ebf;" vertex="1" parent="1">
          <mxGeometry x="570" y="280" width="100" height="30" as="geometry" />
        </mxCell>
        <mxCell id="0yeUc2Y7v0AasNrGvleX-10" value="&lt;font style=&quot;font-size: 10px;&quot;&gt;거래 생성/수정/삭제&lt;/font&gt;" style="rounded=0;whiteSpace=wrap;html=1;fontSize=18;" vertex="1" parent="1">
          <mxGeometry x="100" y="240" width="100" height="30" as="geometry" />
        </mxCell>
        <mxCell id="0yeUc2Y7v0AasNrGvleX-16" value="&lt;font style=&quot;font-size: 10px;&quot;&gt;거래 생성/수정/삭제&lt;/font&gt;" style="rounded=0;whiteSpace=wrap;html=1;fontSize=18;" vertex="1" parent="1">
          <mxGeometry x="260" y="240" width="100" height="30" as="geometry" />
        </mxCell>
        <mxCell id="0yeUc2Y7v0AasNrGvleX-17" value="&lt;font style=&quot;font-size: 10px;&quot;&gt;거래 리스트&lt;/font&gt;" style="rounded=0;whiteSpace=wrap;html=1;fontSize=18;" vertex="1" parent="1">
          <mxGeometry x="100" y="280" width="100" height="30" as="geometry" />
        </mxCell>
        <mxCell id="0yeUc2Y7v0AasNrGvleX-18" value="&lt;font style=&quot;font-size: 10px;&quot;&gt;거래 리스트&lt;/font&gt;" style="rounded=0;whiteSpace=wrap;html=1;fontSize=18;" vertex="1" parent="1">
          <mxGeometry x="260" y="280" width="100" height="30" as="geometry" />
        </mxCell>
        <mxCell id="0yeUc2Y7v0AasNrGvleX-19" value="&lt;font style=&quot;font-size: 10px;&quot;&gt;월별 소비현황&lt;/font&gt;" style="rounded=0;whiteSpace=wrap;html=1;fontSize=18;" vertex="1" parent="1">
          <mxGeometry x="420" y="320" width="100" height="30" as="geometry" />
        </mxCell>
        <mxCell id="0yeUc2Y7v0AasNrGvleX-22" value="&lt;span style=&quot;font-size: 10px;&quot;&gt;예산 설정&lt;/span&gt;" style="rounded=0;whiteSpace=wrap;html=1;fontSize=18;" vertex="1" parent="1">
          <mxGeometry x="420" y="360" width="100" height="30" as="geometry" />
        </mxCell>
        <mxCell id="0yeUc2Y7v0AasNrGvleX-23" value="&lt;span style=&quot;font-size: 10px;&quot;&gt;연간 소비&lt;/span&gt;" style="rounded=0;whiteSpace=wrap;html=1;fontSize=18;" vertex="1" parent="1">
          <mxGeometry x="420" y="400" width="100" height="30" as="geometry" />
        </mxCell>
        <mxCell id="0yeUc2Y7v0AasNrGvleX-24" value="&lt;span style=&quot;font-size: 10px;&quot;&gt;투자 분포도&lt;/span&gt;" style="rounded=0;whiteSpace=wrap;html=1;fontSize=18;" vertex="1" parent="1">
          <mxGeometry x="570" y="320" width="100" height="30" as="geometry" />
        </mxCell>
        <mxCell id="0yeUc2Y7v0AasNrGvleX-31" value="&lt;span style=&quot;font-size: 10px;&quot;&gt;수익률 조회&lt;/span&gt;" style="rounded=0;whiteSpace=wrap;html=1;fontSize=18;" vertex="1" parent="1">
          <mxGeometry x="570" y="360" width="100" height="30" as="geometry" />
        </mxCell>
        <mxCell id="JocBQMI-3BQAhiIVtqWC-1" value="&lt;font style=&quot;font-size: 72px;&quot;&gt;NV0.1&lt;/font&gt;" style="text;html=1;strokeColor=none;fillColor=none;align=center;verticalAlign=middle;whiteSpace=wrap;rounded=1;" vertex="1" parent="1">
          <mxGeometry x="20" y="20" width="210" height="90" as="geometry" />
        </mxCell>
      </root>
    </mxGraphModel>
  </diagram>
  <diagram id="h4gJszsh1Sa7mmLbg8Pb" name="Flowchart-mobile">
    <mxGraphModel dx="2245" dy="828" grid="1" gridSize="10" guides="1" tooltips="1" connect="1" arrows="1" fold="1" page="1" pageScale="1" pageWidth="827" pageHeight="1169" math="0" shadow="0">
      <root>
        <mxCell id="0" />
        <mxCell id="1" parent="0" />
        <mxCell id="GTDp1yGx0FAjcsp03CCK-11" style="edgeStyle=orthogonalEdgeStyle;rounded=0;orthogonalLoop=1;jettySize=auto;html=1;exitX=0;exitY=0.5;exitDx=0;exitDy=0;exitPerimeter=0;" parent="1" source="GTDp1yGx0FAjcsp03CCK-7" target="GTDp1yGx0FAjcsp03CCK-9" edge="1">
          <mxGeometry relative="1" as="geometry" />
        </mxCell>
        <mxCell id="GTDp1yGx0FAjcsp03CCK-39" style="edgeStyle=orthogonalEdgeStyle;rounded=0;orthogonalLoop=1;jettySize=auto;html=1;exitX=0.5;exitY=1;exitDx=0;exitDy=0;exitPerimeter=0;entryX=0.5;entryY=0;entryDx=0;entryDy=0;" parent="1" source="GTDp1yGx0FAjcsp03CCK-2" target="GTDp1yGx0FAjcsp03CCK-10" edge="1">
          <mxGeometry relative="1" as="geometry" />
        </mxCell>
        <mxCell id="GTDp1yGx0FAjcsp03CCK-2" value="접속" style="strokeWidth=2;html=1;shape=mxgraph.flowchart.terminator;whiteSpace=wrap;fillColor=#eeeeee;strokeColor=#36393d;" parent="1" vertex="1">
          <mxGeometry x="400" y="40" width="100" height="50" as="geometry" />
        </mxCell>
        <mxCell id="GTDp1yGx0FAjcsp03CCK-7" value="미가입자?" style="strokeWidth=2;html=1;shape=mxgraph.flowchart.decision;whiteSpace=wrap;" parent="1" vertex="1">
          <mxGeometry x="395" y="170" width="110" height="50" as="geometry" />
        </mxCell>
        <mxCell id="GTDp1yGx0FAjcsp03CCK-14" style="edgeStyle=orthogonalEdgeStyle;rounded=0;orthogonalLoop=1;jettySize=auto;html=1;exitX=0.5;exitY=1;exitDx=0;exitDy=0;" parent="1" source="GTDp1yGx0FAjcsp03CCK-9" target="GTDp1yGx0FAjcsp03CCK-13" edge="1">
          <mxGeometry relative="1" as="geometry" />
        </mxCell>
        <mxCell id="GTDp1yGx0FAjcsp03CCK-9" value="회원가입 폼" style="rounded=1;whiteSpace=wrap;html=1;absoluteArcSize=1;arcSize=14;strokeWidth=2;fillColor=#fff2cc;strokeColor=#d6b656;" parent="1" vertex="1">
          <mxGeometry x="105" y="175" width="100" height="40" as="geometry" />
        </mxCell>
        <mxCell id="GTDp1yGx0FAjcsp03CCK-16" style="edgeStyle=orthogonalEdgeStyle;rounded=0;orthogonalLoop=1;jettySize=auto;html=1;entryX=0.5;entryY=0;entryDx=0;entryDy=0;exitX=1;exitY=0.5;exitDx=0;exitDy=0;exitPerimeter=0;" parent="1" source="GTDp1yGx0FAjcsp03CCK-7" target="GTDp1yGx0FAjcsp03CCK-15" edge="1">
          <mxGeometry relative="1" as="geometry">
            <mxPoint x="500" y="210" as="sourcePoint" />
          </mxGeometry>
        </mxCell>
        <mxCell id="GTDp1yGx0FAjcsp03CCK-10" value="로그인 폼" style="rounded=1;whiteSpace=wrap;html=1;absoluteArcSize=1;arcSize=14;strokeWidth=2;fillColor=#fff2cc;strokeColor=#d6b656;" parent="1" vertex="1">
          <mxGeometry x="400" y="120" width="100" height="40" as="geometry" />
        </mxCell>
        <mxCell id="GTDp1yGx0FAjcsp03CCK-13" value="회원 정보&lt;br&gt;입력" style="shape=parallelogram;html=1;strokeWidth=2;perimeter=parallelogramPerimeter;whiteSpace=wrap;rounded=1;arcSize=12;size=0.23;" parent="1" vertex="1">
          <mxGeometry x="105" y="290" width="100" height="60" as="geometry" />
        </mxCell>
        <mxCell id="GTDp1yGx0FAjcsp03CCK-15" value="ID / PW&lt;br&gt;입력" style="shape=parallelogram;html=1;strokeWidth=2;perimeter=parallelogramPerimeter;whiteSpace=wrap;rounded=1;arcSize=12;size=0.23;" parent="1" vertex="1">
          <mxGeometry x="560" y="220" width="100" height="60" as="geometry" />
        </mxCell>
        <mxCell id="GTDp1yGx0FAjcsp03CCK-19" style="edgeStyle=orthogonalEdgeStyle;rounded=0;orthogonalLoop=1;jettySize=auto;html=1;exitX=1;exitY=0.5;exitDx=0;exitDy=0;exitPerimeter=0;entryX=1;entryY=0.5;entryDx=0;entryDy=0;" parent="1" source="GTDp1yGx0FAjcsp03CCK-17" target="GTDp1yGx0FAjcsp03CCK-15" edge="1">
          <mxGeometry relative="1" as="geometry">
            <Array as="points">
              <mxPoint x="685" y="355" />
              <mxPoint x="685" y="250" />
            </Array>
          </mxGeometry>
        </mxCell>
        <mxCell id="GTDp1yGx0FAjcsp03CCK-23" style="edgeStyle=orthogonalEdgeStyle;rounded=0;orthogonalLoop=1;jettySize=auto;html=1;exitX=0.5;exitY=1;exitDx=0;exitDy=0;exitPerimeter=0;" parent="1" source="GTDp1yGx0FAjcsp03CCK-17" target="GTDp1yGx0FAjcsp03CCK-22" edge="1">
          <mxGeometry relative="1" as="geometry" />
        </mxCell>
        <mxCell id="GTDp1yGx0FAjcsp03CCK-17" value="ID / PW&lt;br&gt;체크?" style="strokeWidth=2;html=1;shape=mxgraph.flowchart.decision;whiteSpace=wrap;" parent="1" vertex="1">
          <mxGeometry x="555" y="330" width="110" height="50" as="geometry" />
        </mxCell>
        <mxCell id="GTDp1yGx0FAjcsp03CCK-18" style="edgeStyle=orthogonalEdgeStyle;rounded=0;orthogonalLoop=1;jettySize=auto;html=1;exitX=0.5;exitY=1;exitDx=0;exitDy=0;entryX=0.5;entryY=0;entryDx=0;entryDy=0;entryPerimeter=0;" parent="1" source="GTDp1yGx0FAjcsp03CCK-15" target="GTDp1yGx0FAjcsp03CCK-17" edge="1">
          <mxGeometry relative="1" as="geometry" />
        </mxCell>
        <mxCell id="GTDp1yGx0FAjcsp03CCK-20" value="False" style="text;html=1;align=center;verticalAlign=middle;resizable=0;points=[];autosize=1;strokeColor=none;fillColor=none;" parent="1" vertex="1">
          <mxGeometry x="680" y="320" width="50" height="30" as="geometry" />
        </mxCell>
        <mxCell id="GTDp1yGx0FAjcsp03CCK-48" style="edgeStyle=orthogonalEdgeStyle;rounded=0;orthogonalLoop=1;jettySize=auto;html=1;exitX=0.5;exitY=1;exitDx=0;exitDy=0;entryX=0.5;entryY=0;entryDx=0;entryDy=0;entryPerimeter=0;" parent="1" source="GTDp1yGx0FAjcsp03CCK-22" target="GTDp1yGx0FAjcsp03CCK-49" edge="1">
          <mxGeometry relative="1" as="geometry">
            <mxPoint x="610" y="580" as="targetPoint" />
          </mxGeometry>
        </mxCell>
        <mxCell id="GTDp1yGx0FAjcsp03CCK-22" value="로그인 처리" style="rounded=1;whiteSpace=wrap;html=1;absoluteArcSize=1;arcSize=14;strokeWidth=2;" parent="1" vertex="1">
          <mxGeometry x="560" y="440" width="100" height="40" as="geometry" />
        </mxCell>
        <mxCell id="GTDp1yGx0FAjcsp03CCK-24" value="True" style="text;html=1;align=center;verticalAlign=middle;resizable=0;points=[];autosize=1;strokeColor=none;fillColor=none;" parent="1" vertex="1">
          <mxGeometry x="600" y="390" width="50" height="30" as="geometry" />
        </mxCell>
        <mxCell id="GTDp1yGx0FAjcsp03CCK-27" style="edgeStyle=orthogonalEdgeStyle;rounded=0;orthogonalLoop=1;jettySize=auto;html=1;exitX=1;exitY=0.5;exitDx=0;exitDy=0;exitPerimeter=0;entryX=1;entryY=0.5;entryDx=0;entryDy=0;" parent="1" source="GTDp1yGx0FAjcsp03CCK-25" target="GTDp1yGx0FAjcsp03CCK-13" edge="1">
          <mxGeometry relative="1" as="geometry">
            <Array as="points">
              <mxPoint x="230" y="415" />
              <mxPoint x="230" y="320" />
            </Array>
          </mxGeometry>
        </mxCell>
        <mxCell id="GTDp1yGx0FAjcsp03CCK-30" value="" style="edgeStyle=orthogonalEdgeStyle;rounded=0;orthogonalLoop=1;jettySize=auto;html=1;" parent="1" source="GTDp1yGx0FAjcsp03CCK-25" target="GTDp1yGx0FAjcsp03CCK-29" edge="1">
          <mxGeometry relative="1" as="geometry" />
        </mxCell>
        <mxCell id="GTDp1yGx0FAjcsp03CCK-25" value="ID 중복성 체크?" style="strokeWidth=2;html=1;shape=mxgraph.flowchart.decision;whiteSpace=wrap;" parent="1" vertex="1">
          <mxGeometry x="100" y="390" width="110" height="50" as="geometry" />
        </mxCell>
        <mxCell id="GTDp1yGx0FAjcsp03CCK-26" style="edgeStyle=orthogonalEdgeStyle;rounded=0;orthogonalLoop=1;jettySize=auto;html=1;exitX=0.5;exitY=1;exitDx=0;exitDy=0;entryX=0.5;entryY=0;entryDx=0;entryDy=0;entryPerimeter=0;" parent="1" source="GTDp1yGx0FAjcsp03CCK-13" target="GTDp1yGx0FAjcsp03CCK-25" edge="1">
          <mxGeometry relative="1" as="geometry" />
        </mxCell>
        <mxCell id="GTDp1yGx0FAjcsp03CCK-28" value="False" style="text;html=1;align=center;verticalAlign=middle;resizable=0;points=[];autosize=1;strokeColor=none;fillColor=none;" parent="1" vertex="1">
          <mxGeometry x="240" y="380" width="50" height="30" as="geometry" />
        </mxCell>
        <mxCell id="GTDp1yGx0FAjcsp03CCK-34" style="edgeStyle=orthogonalEdgeStyle;rounded=0;orthogonalLoop=1;jettySize=auto;html=1;exitX=1;exitY=0.5;exitDx=0;exitDy=0;exitPerimeter=0;entryX=1;entryY=0.5;entryDx=0;entryDy=0;" parent="1" source="GTDp1yGx0FAjcsp03CCK-29" target="GTDp1yGx0FAjcsp03CCK-13" edge="1">
          <mxGeometry relative="1" as="geometry">
            <Array as="points">
              <mxPoint x="230" y="505" />
              <mxPoint x="230" y="320" />
            </Array>
          </mxGeometry>
        </mxCell>
        <mxCell id="GTDp1yGx0FAjcsp03CCK-43" value="" style="edgeStyle=orthogonalEdgeStyle;rounded=0;orthogonalLoop=1;jettySize=auto;html=1;entryX=0.5;entryY=0;entryDx=0;entryDy=0;" parent="1" source="GTDp1yGx0FAjcsp03CCK-29" target="GTDp1yGx0FAjcsp03CCK-44" edge="1">
          <mxGeometry relative="1" as="geometry">
            <mxPoint x="135" y="605" as="targetPoint" />
          </mxGeometry>
        </mxCell>
        <mxCell id="GTDp1yGx0FAjcsp03CCK-29" value="PW 일치 체크?" style="strokeWidth=2;html=1;shape=mxgraph.flowchart.decision;whiteSpace=wrap;" parent="1" vertex="1">
          <mxGeometry x="100" y="480" width="110" height="50" as="geometry" />
        </mxCell>
        <mxCell id="GTDp1yGx0FAjcsp03CCK-35" value="True" style="text;html=1;align=center;verticalAlign=middle;resizable=0;points=[];autosize=1;strokeColor=none;fillColor=none;" parent="1" vertex="1">
          <mxGeometry x="150" y="540" width="50" height="30" as="geometry" />
        </mxCell>
        <mxCell id="GTDp1yGx0FAjcsp03CCK-36" value="[알림]&lt;br&gt;ID 수정 요구" style="strokeWidth=2;html=1;shape=mxgraph.flowchart.document2;whiteSpace=wrap;size=0.16;" parent="1" vertex="1">
          <mxGeometry x="240" y="320" width="90" height="50" as="geometry" />
        </mxCell>
        <mxCell id="GTDp1yGx0FAjcsp03CCK-37" value="[알림]&lt;br&gt;PW 일치 요구" style="strokeWidth=2;html=1;shape=mxgraph.flowchart.document2;whiteSpace=wrap;size=0.16;" parent="1" vertex="1">
          <mxGeometry x="240" y="420" width="90" height="50" as="geometry" />
        </mxCell>
        <mxCell id="GTDp1yGx0FAjcsp03CCK-38" value="False" style="text;html=1;align=center;verticalAlign=middle;resizable=0;points=[];autosize=1;strokeColor=none;fillColor=none;" parent="1" vertex="1">
          <mxGeometry x="240" y="480" width="50" height="30" as="geometry" />
        </mxCell>
        <mxCell id="GTDp1yGx0FAjcsp03CCK-40" style="edgeStyle=orthogonalEdgeStyle;rounded=0;orthogonalLoop=1;jettySize=auto;html=1;exitX=0.5;exitY=1;exitDx=0;exitDy=0;entryX=0.5;entryY=0;entryDx=0;entryDy=0;entryPerimeter=0;" parent="1" source="GTDp1yGx0FAjcsp03CCK-10" target="GTDp1yGx0FAjcsp03CCK-7" edge="1">
          <mxGeometry relative="1" as="geometry" />
        </mxCell>
        <mxCell id="GTDp1yGx0FAjcsp03CCK-44" value="회원가입 성공" style="rounded=1;whiteSpace=wrap;html=1;absoluteArcSize=1;arcSize=14;strokeWidth=2;" parent="1" vertex="1">
          <mxGeometry x="105" y="585" width="100" height="40" as="geometry" />
        </mxCell>
        <mxCell id="GTDp1yGx0FAjcsp03CCK-46" value="True" style="text;html=1;align=center;verticalAlign=middle;resizable=0;points=[];autosize=1;strokeColor=none;fillColor=none;" parent="1" vertex="1">
          <mxGeometry x="150" y="440" width="50" height="30" as="geometry" />
        </mxCell>
        <mxCell id="IuoJ-QioQa-zz5Lr1bz--2" value="" style="edgeStyle=orthogonalEdgeStyle;rounded=0;orthogonalLoop=1;jettySize=auto;html=1;" parent="1" source="GTDp1yGx0FAjcsp03CCK-49" target="IuoJ-QioQa-zz5Lr1bz--1" edge="1">
          <mxGeometry relative="1" as="geometry" />
        </mxCell>
        <mxCell id="IuoJ-QioQa-zz5Lr1bz--4" style="edgeStyle=orthogonalEdgeStyle;rounded=0;orthogonalLoop=1;jettySize=auto;html=1;exitX=0.5;exitY=1;exitDx=0;exitDy=0;exitPerimeter=0;entryX=0.5;entryY=0;entryDx=0;entryDy=0;" parent="1" source="GTDp1yGx0FAjcsp03CCK-49" target="IuoJ-QioQa-zz5Lr1bz--3" edge="1">
          <mxGeometry relative="1" as="geometry" />
        </mxCell>
        <mxCell id="IuoJ-QioQa-zz5Lr1bz--210" style="edgeStyle=orthogonalEdgeStyle;rounded=0;orthogonalLoop=1;jettySize=auto;html=1;exitX=0.5;exitY=1;exitDx=0;exitDy=0;exitPerimeter=0;" parent="1" source="GTDp1yGx0FAjcsp03CCK-49" target="IuoJ-QioQa-zz5Lr1bz--209" edge="1">
          <mxGeometry relative="1" as="geometry" />
        </mxCell>
        <mxCell id="GTDp1yGx0FAjcsp03CCK-49" value="메인 페이지" style="strokeWidth=2;html=1;shape=mxgraph.flowchart.terminator;whiteSpace=wrap;fillColor=#fff2cc;strokeColor=#d6b656;" parent="1" vertex="1">
          <mxGeometry x="560" y="540" width="100" height="50" as="geometry" />
        </mxCell>
        <mxCell id="GTDp1yGx0FAjcsp03CCK-50" value="회원 정보" style="swimlane;whiteSpace=wrap;html=1;" parent="1" vertex="1">
          <mxGeometry x="5" y="280" width="95" height="80" as="geometry" />
        </mxCell>
        <mxCell id="GTDp1yGx0FAjcsp03CCK-52" value="아이디(이메일)" style="text;html=1;align=center;verticalAlign=middle;resizable=0;points=[];autosize=1;strokeColor=none;fillColor=none;" parent="GTDp1yGx0FAjcsp03CCK-50" vertex="1">
          <mxGeometry x="-5" y="25" width="100" height="30" as="geometry" />
        </mxCell>
        <mxCell id="GTDp1yGx0FAjcsp03CCK-53" value="비밀번호" style="text;html=1;align=center;verticalAlign=middle;resizable=0;points=[];autosize=1;strokeColor=none;fillColor=none;" parent="GTDp1yGx0FAjcsp03CCK-50" vertex="1">
          <mxGeometry y="50" width="70" height="30" as="geometry" />
        </mxCell>
        <mxCell id="IuoJ-QioQa-zz5Lr1bz--9" style="edgeStyle=orthogonalEdgeStyle;rounded=0;orthogonalLoop=1;jettySize=auto;html=1;exitX=0.5;exitY=1;exitDx=0;exitDy=0;entryX=0.5;entryY=0;entryDx=0;entryDy=0;" parent="1" source="IuoJ-QioQa-zz5Lr1bz--1" target="IuoJ-QioQa-zz5Lr1bz--8" edge="1">
          <mxGeometry relative="1" as="geometry">
            <Array as="points">
              <mxPoint x="610" y="720" />
              <mxPoint x="414" y="720" />
            </Array>
          </mxGeometry>
        </mxCell>
        <mxCell id="IuoJ-QioQa-zz5Lr1bz--11" style="edgeStyle=orthogonalEdgeStyle;rounded=0;orthogonalLoop=1;jettySize=auto;html=1;exitX=0.5;exitY=1;exitDx=0;exitDy=0;entryX=0.5;entryY=0;entryDx=0;entryDy=0;" parent="1" source="IuoJ-QioQa-zz5Lr1bz--1" target="IuoJ-QioQa-zz5Lr1bz--10" edge="1">
          <mxGeometry relative="1" as="geometry">
            <Array as="points">
              <mxPoint x="610" y="720" />
              <mxPoint x="1585" y="720" />
            </Array>
          </mxGeometry>
        </mxCell>
        <mxCell id="IuoJ-QioQa-zz5Lr1bz--61" style="edgeStyle=orthogonalEdgeStyle;rounded=0;orthogonalLoop=1;jettySize=auto;html=1;exitX=0.5;exitY=1;exitDx=0;exitDy=0;entryX=0.5;entryY=0;entryDx=0;entryDy=0;" parent="1" source="IuoJ-QioQa-zz5Lr1bz--1" target="IuoJ-QioQa-zz5Lr1bz--6" edge="1">
          <mxGeometry relative="1" as="geometry">
            <Array as="points">
              <mxPoint x="610" y="720" />
              <mxPoint x="1035" y="720" />
            </Array>
          </mxGeometry>
        </mxCell>
        <mxCell id="IuoJ-QioQa-zz5Lr1bz--1" value="메뉴 실행" style="rounded=1;whiteSpace=wrap;html=1;strokeWidth=2;fillColor=#dae8fc;strokeColor=#6c8ebf;" parent="1" vertex="1">
          <mxGeometry x="555" y="640" width="110" height="50" as="geometry" />
        </mxCell>
        <mxCell id="IuoJ-QioQa-zz5Lr1bz--3" value="분석 요약&lt;br&gt;(메인페이지)" style="rounded=1;whiteSpace=wrap;html=1;strokeWidth=2;" parent="1" vertex="1">
          <mxGeometry x="760" y="640" width="110" height="50" as="geometry" />
        </mxCell>
        <mxCell id="IuoJ-QioQa-zz5Lr1bz--5" value="[알림]&lt;br&gt;ID /PW 재확인" style="strokeWidth=2;html=1;shape=mxgraph.flowchart.document2;whiteSpace=wrap;size=0.16;" parent="1" vertex="1">
          <mxGeometry x="690" y="250" width="90" height="50" as="geometry" />
        </mxCell>
        <mxCell id="IuoJ-QioQa-zz5Lr1bz--79" style="edgeStyle=orthogonalEdgeStyle;rounded=0;orthogonalLoop=1;jettySize=auto;html=1;exitX=0.5;exitY=1;exitDx=0;exitDy=0;entryX=0.5;entryY=0;entryDx=0;entryDy=0;" parent="1" source="IuoJ-QioQa-zz5Lr1bz--6" target="IuoJ-QioQa-zz5Lr1bz--78" edge="1">
          <mxGeometry relative="1" as="geometry" />
        </mxCell>
        <mxCell id="IuoJ-QioQa-zz5Lr1bz--6" value="투자정보 메뉴" style="rounded=1;whiteSpace=wrap;html=1;strokeWidth=2;" parent="1" vertex="1">
          <mxGeometry x="980" y="740" width="110" height="50" as="geometry" />
        </mxCell>
        <mxCell id="IuoJ-QioQa-zz5Lr1bz--21" style="edgeStyle=orthogonalEdgeStyle;rounded=0;orthogonalLoop=1;jettySize=auto;html=1;exitX=0.5;exitY=1;exitDx=0;exitDy=0;entryX=0.5;entryY=0;entryDx=0;entryDy=0;" parent="1" source="IuoJ-QioQa-zz5Lr1bz--8" target="IuoJ-QioQa-zz5Lr1bz--20" edge="1">
          <mxGeometry relative="1" as="geometry" />
        </mxCell>
        <mxCell id="IuoJ-QioQa-zz5Lr1bz--46" style="edgeStyle=orthogonalEdgeStyle;rounded=0;orthogonalLoop=1;jettySize=auto;html=1;exitX=0.5;exitY=1;exitDx=0;exitDy=0;" parent="1" source="IuoJ-QioQa-zz5Lr1bz--8" target="IuoJ-QioQa-zz5Lr1bz--45" edge="1">
          <mxGeometry relative="1" as="geometry" />
        </mxCell>
        <mxCell id="VOsLcHzQ1B25n9msBM45-1" style="edgeStyle=orthogonalEdgeStyle;rounded=0;orthogonalLoop=1;jettySize=auto;html=1;exitX=0;exitY=0.5;exitDx=0;exitDy=0;entryX=0.75;entryY=1;entryDx=0;entryDy=0;" edge="1" parent="1" source="IuoJ-QioQa-zz5Lr1bz--8" target="IuoJ-QioQa-zz5Lr1bz--23">
          <mxGeometry relative="1" as="geometry" />
        </mxCell>
        <mxCell id="IuoJ-QioQa-zz5Lr1bz--8" value="가계부 메뉴" style="rounded=1;whiteSpace=wrap;html=1;strokeWidth=2;" parent="1" vertex="1">
          <mxGeometry x="359" y="740" width="110" height="50" as="geometry" />
        </mxCell>
        <mxCell id="IuoJ-QioQa-zz5Lr1bz--77" style="edgeStyle=orthogonalEdgeStyle;rounded=0;orthogonalLoop=1;jettySize=auto;html=1;exitX=0.5;exitY=1;exitDx=0;exitDy=0;" parent="1" source="IuoJ-QioQa-zz5Lr1bz--10" target="IuoJ-QioQa-zz5Lr1bz--76" edge="1">
          <mxGeometry relative="1" as="geometry" />
        </mxCell>
        <mxCell id="IuoJ-QioQa-zz5Lr1bz--170" style="edgeStyle=orthogonalEdgeStyle;rounded=0;orthogonalLoop=1;jettySize=auto;html=1;exitX=0.5;exitY=1;exitDx=0;exitDy=0;entryX=0.5;entryY=0;entryDx=0;entryDy=0;" parent="1" source="IuoJ-QioQa-zz5Lr1bz--10" target="IuoJ-QioQa-zz5Lr1bz--169" edge="1">
          <mxGeometry relative="1" as="geometry" />
        </mxCell>
        <mxCell id="IuoJ-QioQa-zz5Lr1bz--10" value="현황 메뉴" style="rounded=1;whiteSpace=wrap;html=1;strokeWidth=2;" parent="1" vertex="1">
          <mxGeometry x="1530" y="740" width="110" height="50" as="geometry" />
        </mxCell>
        <mxCell id="IuoJ-QioQa-zz5Lr1bz--14" style="edgeStyle=orthogonalEdgeStyle;rounded=0;orthogonalLoop=1;jettySize=auto;html=1;exitX=0;exitY=0.5;exitDx=0;exitDy=0;exitPerimeter=0;entryX=0.5;entryY=1;entryDx=0;entryDy=0;entryPerimeter=0;" parent="1" source="GTDp1yGx0FAjcsp03CCK-49" target="IuoJ-QioQa-zz5Lr1bz--13" edge="1">
          <mxGeometry relative="1" as="geometry" />
        </mxCell>
        <mxCell id="IuoJ-QioQa-zz5Lr1bz--17" value="" style="group" parent="1" vertex="1" connectable="0">
          <mxGeometry x="340" y="140" width="184" height="465" as="geometry" />
        </mxCell>
        <mxCell id="GTDp1yGx0FAjcsp03CCK-47" style="edgeStyle=orthogonalEdgeStyle;rounded=0;orthogonalLoop=1;jettySize=auto;html=1;exitX=1;exitY=0.5;exitDx=0;exitDy=0;startArrow=none;startFill=0;jumpStyle=gap;entryX=0;entryY=0.5;entryDx=0;entryDy=0;" parent="IuoJ-QioQa-zz5Lr1bz--17" source="GTDp1yGx0FAjcsp03CCK-44" target="GTDp1yGx0FAjcsp03CCK-10" edge="1">
          <mxGeometry relative="1" as="geometry">
            <mxPoint x="-110" y="10" as="targetPoint" />
            <Array as="points">
              <mxPoint y="465" />
              <mxPoint />
            </Array>
          </mxGeometry>
        </mxCell>
        <mxCell id="IuoJ-QioQa-zz5Lr1bz--13" value="로그아웃?" style="strokeWidth=2;html=1;shape=mxgraph.flowchart.decision;whiteSpace=wrap;" parent="IuoJ-QioQa-zz5Lr1bz--17" vertex="1">
          <mxGeometry x="74" y="300" width="110" height="50" as="geometry" />
        </mxCell>
        <mxCell id="IuoJ-QioQa-zz5Lr1bz--15" style="edgeStyle=orthogonalEdgeStyle;rounded=0;orthogonalLoop=1;jettySize=auto;html=1;exitX=0.5;exitY=0;exitDx=0;exitDy=0;exitPerimeter=0;entryX=0;entryY=0.5;entryDx=0;entryDy=0;jumpStyle=gap;" parent="1" source="IuoJ-QioQa-zz5Lr1bz--13" target="GTDp1yGx0FAjcsp03CCK-10" edge="1">
          <mxGeometry relative="1" as="geometry">
            <Array as="points">
              <mxPoint x="469" y="350" />
              <mxPoint x="340" y="350" />
              <mxPoint x="340" y="140" />
            </Array>
          </mxGeometry>
        </mxCell>
        <mxCell id="IuoJ-QioQa-zz5Lr1bz--18" value="거래정보 등록/수정&lt;br&gt;페이지" style="rounded=1;whiteSpace=wrap;html=1;strokeWidth=2;fillColor=#fff2cc;strokeColor=#d6b656;" parent="1" vertex="1">
          <mxGeometry x="180" y="830" width="110" height="50" as="geometry" />
        </mxCell>
        <mxCell id="IuoJ-QioQa-zz5Lr1bz--48" style="edgeStyle=orthogonalEdgeStyle;rounded=0;orthogonalLoop=1;jettySize=auto;html=1;exitX=0.5;exitY=0;exitDx=0;exitDy=0;entryX=0.5;entryY=1;entryDx=0;entryDy=0;" parent="1" source="IuoJ-QioQa-zz5Lr1bz--180" target="IuoJ-QioQa-zz5Lr1bz--18" edge="1">
          <mxGeometry relative="1" as="geometry" />
        </mxCell>
        <mxCell id="IuoJ-QioQa-zz5Lr1bz--179" style="edgeStyle=orthogonalEdgeStyle;rounded=0;orthogonalLoop=1;jettySize=auto;html=1;exitX=0.5;exitY=1;exitDx=0;exitDy=0;entryX=0.5;entryY=0;entryDx=0;entryDy=0;" parent="1" source="IuoJ-QioQa-zz5Lr1bz--20" target="IuoJ-QioQa-zz5Lr1bz--184" edge="1">
          <mxGeometry relative="1" as="geometry">
            <mxPoint x="200" y="930" as="targetPoint" />
          </mxGeometry>
        </mxCell>
        <mxCell id="IuoJ-QioQa-zz5Lr1bz--20" value="거래정보&lt;br&gt;리스트" style="rounded=1;whiteSpace=wrap;html=1;strokeWidth=2;fillColor=#fff2cc;strokeColor=#d6b656;" parent="1" vertex="1">
          <mxGeometry x="359" y="830" width="110" height="50" as="geometry" />
        </mxCell>
        <mxCell id="IuoJ-QioQa-zz5Lr1bz--25" style="edgeStyle=orthogonalEdgeStyle;rounded=0;orthogonalLoop=1;jettySize=auto;html=1;exitX=0.5;exitY=1;exitDx=0;exitDy=0;entryX=0.5;entryY=0;entryDx=0;entryDy=0;" parent="1" source="IuoJ-QioQa-zz5Lr1bz--23" target="IuoJ-QioQa-zz5Lr1bz--18" edge="1">
          <mxGeometry relative="1" as="geometry" />
        </mxCell>
        <mxCell id="IuoJ-QioQa-zz5Lr1bz--23" value="화면 하단의&lt;br&gt;+ 버튼" style="rounded=1;whiteSpace=wrap;html=1;strokeWidth=2;fillColor=#dae8fc;strokeColor=#6c8ebf;" parent="1" vertex="1">
          <mxGeometry x="180" y="680" width="110" height="50" as="geometry" />
        </mxCell>
        <mxCell id="IuoJ-QioQa-zz5Lr1bz--26" value="거래정보&lt;br&gt;입력/수정" style="shape=parallelogram;html=1;strokeWidth=2;perimeter=parallelogramPerimeter;whiteSpace=wrap;rounded=1;arcSize=12;size=0.23;" parent="1" vertex="1">
          <mxGeometry x="-210" y="840" width="115" height="80" as="geometry" />
        </mxCell>
        <mxCell id="IuoJ-QioQa-zz5Lr1bz--32" style="edgeStyle=orthogonalEdgeStyle;rounded=0;orthogonalLoop=1;jettySize=auto;html=1;exitX=1;exitY=0.25;exitDx=0;exitDy=0;entryX=0;entryY=0.5;entryDx=0;entryDy=0;endArrow=none;endFill=0;" parent="1" source="IuoJ-QioQa-zz5Lr1bz--28" target="IuoJ-QioQa-zz5Lr1bz--26" edge="1">
          <mxGeometry relative="1" as="geometry" />
        </mxCell>
        <mxCell id="IuoJ-QioQa-zz5Lr1bz--28" value="거래 등록 정보" style="swimlane;whiteSpace=wrap;html=1;" parent="1" vertex="1">
          <mxGeometry x="-380" y="840" width="160" height="150" as="geometry" />
        </mxCell>
        <mxCell id="IuoJ-QioQa-zz5Lr1bz--30" value="거래일자" style="text;html=1;align=center;verticalAlign=middle;resizable=0;points=[];autosize=1;strokeColor=none;fillColor=none;" parent="IuoJ-QioQa-zz5Lr1bz--28" vertex="1">
          <mxGeometry y="30" width="70" height="30" as="geometry" />
        </mxCell>
        <mxCell id="IuoJ-QioQa-zz5Lr1bz--33" value="인출계좌" style="text;html=1;align=center;verticalAlign=middle;resizable=0;points=[];autosize=1;strokeColor=none;fillColor=none;" parent="IuoJ-QioQa-zz5Lr1bz--28" vertex="1">
          <mxGeometry y="60" width="70" height="30" as="geometry" />
        </mxCell>
        <mxCell id="IuoJ-QioQa-zz5Lr1bz--34" value="거래대상" style="text;html=1;align=center;verticalAlign=middle;resizable=0;points=[];autosize=1;strokeColor=none;fillColor=none;" parent="IuoJ-QioQa-zz5Lr1bz--28" vertex="1">
          <mxGeometry x="80" y="60" width="70" height="30" as="geometry" />
        </mxCell>
        <mxCell id="IuoJ-QioQa-zz5Lr1bz--35" value="거래금액" style="text;html=1;align=center;verticalAlign=middle;resizable=0;points=[];autosize=1;strokeColor=none;fillColor=none;" parent="IuoJ-QioQa-zz5Lr1bz--28" vertex="1">
          <mxGeometry y="90" width="70" height="30" as="geometry" />
        </mxCell>
        <mxCell id="IuoJ-QioQa-zz5Lr1bz--36" value="메모" style="text;html=1;align=center;verticalAlign=middle;resizable=0;points=[];autosize=1;strokeColor=none;fillColor=none;" parent="IuoJ-QioQa-zz5Lr1bz--28" vertex="1">
          <mxGeometry y="120" width="50" height="30" as="geometry" />
        </mxCell>
        <mxCell id="IuoJ-QioQa-zz5Lr1bz--38" value="거래시간" style="text;html=1;align=center;verticalAlign=middle;resizable=0;points=[];autosize=1;strokeColor=none;fillColor=none;" parent="IuoJ-QioQa-zz5Lr1bz--28" vertex="1">
          <mxGeometry x="80" y="30" width="70" height="30" as="geometry" />
        </mxCell>
        <mxCell id="IuoJ-QioQa-zz5Lr1bz--39" value="거래분류" style="text;html=1;align=center;verticalAlign=middle;resizable=0;points=[];autosize=1;strokeColor=none;fillColor=none;" parent="IuoJ-QioQa-zz5Lr1bz--28" vertex="1">
          <mxGeometry x="80" y="90" width="70" height="30" as="geometry" />
        </mxCell>
        <mxCell id="IuoJ-QioQa-zz5Lr1bz--42" style="edgeStyle=orthogonalEdgeStyle;rounded=0;orthogonalLoop=1;jettySize=auto;html=1;exitX=1;exitY=0.5;exitDx=0;exitDy=0;exitPerimeter=0;entryX=1;entryY=0.5;entryDx=0;entryDy=0;" parent="1" source="IuoJ-QioQa-zz5Lr1bz--40" target="IuoJ-QioQa-zz5Lr1bz--26" edge="1">
          <mxGeometry relative="1" as="geometry">
            <Array as="points">
              <mxPoint x="-60" y="995" />
              <mxPoint x="-60" y="880" />
            </Array>
          </mxGeometry>
        </mxCell>
        <mxCell id="IuoJ-QioQa-zz5Lr1bz--40" value="정보 유효성&lt;br&gt;체크" style="strokeWidth=2;html=1;shape=mxgraph.flowchart.decision;whiteSpace=wrap;" parent="1" vertex="1">
          <mxGeometry x="-207.5" y="960" width="110" height="70" as="geometry" />
        </mxCell>
        <mxCell id="IuoJ-QioQa-zz5Lr1bz--41" style="edgeStyle=orthogonalEdgeStyle;rounded=0;orthogonalLoop=1;jettySize=auto;html=1;exitX=0.5;exitY=1;exitDx=0;exitDy=0;entryX=0.5;entryY=0;entryDx=0;entryDy=0;entryPerimeter=0;" parent="1" source="IuoJ-QioQa-zz5Lr1bz--26" target="IuoJ-QioQa-zz5Lr1bz--40" edge="1">
          <mxGeometry relative="1" as="geometry" />
        </mxCell>
        <mxCell id="IuoJ-QioQa-zz5Lr1bz--43" value="False" style="text;html=1;align=center;verticalAlign=middle;resizable=0;points=[];autosize=1;strokeColor=none;fillColor=none;" parent="1" vertex="1">
          <mxGeometry x="-60" y="960" width="50" height="30" as="geometry" />
        </mxCell>
        <mxCell id="IuoJ-QioQa-zz5Lr1bz--44" value="[알림]&lt;br&gt;비유효 정보&lt;br&gt;재입력" style="strokeWidth=2;html=1;shape=mxgraph.flowchart.document2;whiteSpace=wrap;size=0.16;" parent="1" vertex="1">
          <mxGeometry x="-50" y="880" width="90" height="70" as="geometry" />
        </mxCell>
        <mxCell id="IuoJ-QioQa-zz5Lr1bz--50" style="edgeStyle=orthogonalEdgeStyle;rounded=0;orthogonalLoop=1;jettySize=auto;html=1;exitX=0.5;exitY=1;exitDx=0;exitDy=0;entryX=0.5;entryY=0;entryDx=0;entryDy=0;" parent="1" source="IuoJ-QioQa-zz5Lr1bz--45" target="IuoJ-QioQa-zz5Lr1bz--49" edge="1">
          <mxGeometry relative="1" as="geometry" />
        </mxCell>
        <mxCell id="IuoJ-QioQa-zz5Lr1bz--45" value="계좌정보&lt;br&gt;리스트" style="rounded=1;whiteSpace=wrap;html=1;strokeWidth=2;fillColor=#fff2cc;strokeColor=#d6b656;" parent="1" vertex="1">
          <mxGeometry x="505" y="830" width="110" height="50" as="geometry" />
        </mxCell>
        <mxCell id="IuoJ-QioQa-zz5Lr1bz--84" style="edgeStyle=orthogonalEdgeStyle;rounded=0;orthogonalLoop=1;jettySize=auto;html=1;exitX=0.5;exitY=1;exitDx=0;exitDy=0;entryX=0.5;entryY=0;entryDx=0;entryDy=0;" parent="1" source="IuoJ-QioQa-zz5Lr1bz--49" target="IuoJ-QioQa-zz5Lr1bz--83" edge="1">
          <mxGeometry relative="1" as="geometry" />
        </mxCell>
        <mxCell id="IuoJ-QioQa-zz5Lr1bz--85" style="edgeStyle=orthogonalEdgeStyle;rounded=0;orthogonalLoop=1;jettySize=auto;html=1;exitX=0.5;exitY=1;exitDx=0;exitDy=0;entryX=0.5;entryY=0;entryDx=0;entryDy=0;" parent="1" source="IuoJ-QioQa-zz5Lr1bz--49" target="IuoJ-QioQa-zz5Lr1bz--82" edge="1">
          <mxGeometry relative="1" as="geometry" />
        </mxCell>
        <mxCell id="IuoJ-QioQa-zz5Lr1bz--49" value="계좌정보 등록/수정&lt;br&gt;페이지" style="rounded=1;whiteSpace=wrap;html=1;strokeWidth=2;fillColor=#fff2cc;strokeColor=#d6b656;" parent="1" vertex="1">
          <mxGeometry x="505" y="940" width="110" height="50" as="geometry" />
        </mxCell>
        <mxCell id="IuoJ-QioQa-zz5Lr1bz--51" value="거래정보&lt;br&gt;입력/수정" style="shape=parallelogram;html=1;strokeWidth=2;perimeter=parallelogramPerimeter;whiteSpace=wrap;rounded=1;arcSize=12;size=0.23;" parent="1" vertex="1">
          <mxGeometry x="305" y="1210" width="115" height="80" as="geometry" />
        </mxCell>
        <mxCell id="IuoJ-QioQa-zz5Lr1bz--93" style="edgeStyle=orthogonalEdgeStyle;rounded=0;orthogonalLoop=1;jettySize=auto;html=1;exitX=1;exitY=0.25;exitDx=0;exitDy=0;entryX=0;entryY=0;entryDx=0;entryDy=0;endArrow=none;endFill=0;" parent="1" source="IuoJ-QioQa-zz5Lr1bz--53" target="IuoJ-QioQa-zz5Lr1bz--51" edge="1">
          <mxGeometry relative="1" as="geometry" />
        </mxCell>
        <mxCell id="IuoJ-QioQa-zz5Lr1bz--53" value="계좌 등록 정보" style="swimlane;whiteSpace=wrap;html=1;startSize=23;" parent="1" vertex="1">
          <mxGeometry x="182.5" y="1190" width="110" height="120" as="geometry" />
        </mxCell>
        <mxCell id="IuoJ-QioQa-zz5Lr1bz--54" value="은행사" style="text;html=1;align=center;verticalAlign=middle;resizable=0;points=[];autosize=1;strokeColor=none;fillColor=none;" parent="IuoJ-QioQa-zz5Lr1bz--53" vertex="1">
          <mxGeometry y="30" width="60" height="30" as="geometry" />
        </mxCell>
        <mxCell id="IuoJ-QioQa-zz5Lr1bz--55" value="명칭" style="text;html=1;align=center;verticalAlign=middle;resizable=0;points=[];autosize=1;strokeColor=none;fillColor=none;" parent="IuoJ-QioQa-zz5Lr1bz--53" vertex="1">
          <mxGeometry y="60" width="50" height="30" as="geometry" />
        </mxCell>
        <mxCell id="IuoJ-QioQa-zz5Lr1bz--58" value="메모" style="text;html=1;align=center;verticalAlign=middle;resizable=0;points=[];autosize=1;strokeColor=none;fillColor=none;" parent="IuoJ-QioQa-zz5Lr1bz--53" vertex="1">
          <mxGeometry y="90" width="50" height="30" as="geometry" />
        </mxCell>
        <mxCell id="IuoJ-QioQa-zz5Lr1bz--73" style="edgeStyle=orthogonalEdgeStyle;rounded=0;orthogonalLoop=1;jettySize=auto;html=1;exitX=1;exitY=0.5;exitDx=0;exitDy=0;exitPerimeter=0;entryX=1;entryY=0.5;entryDx=0;entryDy=0;" parent="1" source="IuoJ-QioQa-zz5Lr1bz--65" target="IuoJ-QioQa-zz5Lr1bz--51" edge="1">
          <mxGeometry relative="1" as="geometry">
            <Array as="points">
              <mxPoint x="432.5" y="1365" />
              <mxPoint x="432.5" y="1250" />
            </Array>
          </mxGeometry>
        </mxCell>
        <mxCell id="IuoJ-QioQa-zz5Lr1bz--65" value="정보 유효성&lt;br&gt;체크" style="strokeWidth=2;html=1;shape=mxgraph.flowchart.decision;whiteSpace=wrap;" parent="1" vertex="1">
          <mxGeometry x="307.5" y="1330" width="110" height="70" as="geometry" />
        </mxCell>
        <mxCell id="IuoJ-QioQa-zz5Lr1bz--66" style="edgeStyle=orthogonalEdgeStyle;rounded=0;orthogonalLoop=1;jettySize=auto;html=1;exitX=0.5;exitY=1;exitDx=0;exitDy=0;entryX=0.5;entryY=0;entryDx=0;entryDy=0;entryPerimeter=0;" parent="1" source="IuoJ-QioQa-zz5Lr1bz--51" target="IuoJ-QioQa-zz5Lr1bz--65" edge="1">
          <mxGeometry relative="1" as="geometry" />
        </mxCell>
        <mxCell id="IuoJ-QioQa-zz5Lr1bz--68" value="False" style="text;html=1;align=center;verticalAlign=middle;resizable=0;points=[];autosize=1;strokeColor=none;fillColor=none;" parent="1" vertex="1">
          <mxGeometry x="442.5" y="1340" width="50" height="30" as="geometry" />
        </mxCell>
        <mxCell id="IuoJ-QioQa-zz5Lr1bz--69" value="[알림]&lt;br&gt;비유효 정보&lt;br&gt;재입력" style="strokeWidth=2;html=1;shape=mxgraph.flowchart.document2;whiteSpace=wrap;size=0.16;" parent="1" vertex="1">
          <mxGeometry x="442.5" y="1249" width="100" height="81" as="geometry" />
        </mxCell>
        <mxCell id="IuoJ-QioQa-zz5Lr1bz--172" style="edgeStyle=orthogonalEdgeStyle;rounded=0;orthogonalLoop=1;jettySize=auto;html=1;exitX=0.5;exitY=1;exitDx=0;exitDy=0;entryX=0.5;entryY=0;entryDx=0;entryDy=0;" parent="1" source="IuoJ-QioQa-zz5Lr1bz--76" target="IuoJ-QioQa-zz5Lr1bz--171" edge="1">
          <mxGeometry relative="1" as="geometry" />
        </mxCell>
        <mxCell id="IuoJ-QioQa-zz5Lr1bz--176" style="edgeStyle=orthogonalEdgeStyle;rounded=0;orthogonalLoop=1;jettySize=auto;html=1;exitX=0.5;exitY=1;exitDx=0;exitDy=0;entryX=0.5;entryY=0;entryDx=0;entryDy=0;" parent="1" source="IuoJ-QioQa-zz5Lr1bz--76" target="IuoJ-QioQa-zz5Lr1bz--174" edge="1">
          <mxGeometry relative="1" as="geometry" />
        </mxCell>
        <mxCell id="IuoJ-QioQa-zz5Lr1bz--177" style="edgeStyle=orthogonalEdgeStyle;rounded=0;orthogonalLoop=1;jettySize=auto;html=1;exitX=0.5;exitY=1;exitDx=0;exitDy=0;entryX=0.5;entryY=0;entryDx=0;entryDy=0;" parent="1" source="IuoJ-QioQa-zz5Lr1bz--76" target="IuoJ-QioQa-zz5Lr1bz--175" edge="1">
          <mxGeometry relative="1" as="geometry" />
        </mxCell>
        <mxCell id="IuoJ-QioQa-zz5Lr1bz--76" value="가계부 현황" style="rounded=1;whiteSpace=wrap;html=1;strokeWidth=2;" parent="1" vertex="1">
          <mxGeometry x="1530" y="830" width="110" height="50" as="geometry" />
        </mxCell>
        <mxCell id="IuoJ-QioQa-zz5Lr1bz--81" style="edgeStyle=orthogonalEdgeStyle;rounded=0;orthogonalLoop=1;jettySize=auto;html=1;exitX=0.5;exitY=1;exitDx=0;exitDy=0;" parent="1" source="IuoJ-QioQa-zz5Lr1bz--78" target="IuoJ-QioQa-zz5Lr1bz--80" edge="1">
          <mxGeometry relative="1" as="geometry" />
        </mxCell>
        <mxCell id="IuoJ-QioQa-zz5Lr1bz--78" value="투자 정보&lt;br&gt;리스트" style="rounded=1;whiteSpace=wrap;html=1;strokeWidth=2;fillColor=#fff2cc;strokeColor=#d6b656;" parent="1" vertex="1">
          <mxGeometry x="980" y="830" width="110" height="50" as="geometry" />
        </mxCell>
        <mxCell id="IuoJ-QioQa-zz5Lr1bz--80" value="투자정보 등록/수정&lt;br&gt;페이지" style="rounded=1;whiteSpace=wrap;html=1;strokeWidth=2;fillColor=#fff2cc;strokeColor=#d6b656;" parent="1" vertex="1">
          <mxGeometry x="980" y="925" width="110" height="50" as="geometry" />
        </mxCell>
        <mxCell id="IuoJ-QioQa-zz5Lr1bz--106" style="edgeStyle=orthogonalEdgeStyle;rounded=0;orthogonalLoop=1;jettySize=auto;html=1;exitX=0.5;exitY=1;exitDx=0;exitDy=0;entryX=0.5;entryY=0;entryDx=0;entryDy=0;" parent="1" source="IuoJ-QioQa-zz5Lr1bz--82" target="IuoJ-QioQa-zz5Lr1bz--94" edge="1">
          <mxGeometry relative="1" as="geometry" />
        </mxCell>
        <mxCell id="IuoJ-QioQa-zz5Lr1bz--82" value="카드 계좌" style="rounded=1;whiteSpace=wrap;html=1;strokeWidth=2;" parent="1" vertex="1">
          <mxGeometry x="590" y="1080" width="110" height="50" as="geometry" />
        </mxCell>
        <mxCell id="IuoJ-QioQa-zz5Lr1bz--87" style="edgeStyle=orthogonalEdgeStyle;rounded=0;orthogonalLoop=1;jettySize=auto;html=1;exitX=0.5;exitY=1;exitDx=0;exitDy=0;" parent="1" source="IuoJ-QioQa-zz5Lr1bz--83" target="IuoJ-QioQa-zz5Lr1bz--51" edge="1">
          <mxGeometry relative="1" as="geometry" />
        </mxCell>
        <mxCell id="IuoJ-QioQa-zz5Lr1bz--83" value="은행 계좌" style="rounded=1;whiteSpace=wrap;html=1;strokeWidth=2;" parent="1" vertex="1">
          <mxGeometry x="420" y="1080" width="110" height="50" as="geometry" />
        </mxCell>
        <mxCell id="IuoJ-QioQa-zz5Lr1bz--94" value="거래정보&lt;br&gt;입력/수정" style="shape=parallelogram;html=1;strokeWidth=2;perimeter=parallelogramPerimeter;whiteSpace=wrap;rounded=1;arcSize=12;size=0.23;" parent="1" vertex="1">
          <mxGeometry x="682.5" y="1220" width="115" height="80" as="geometry" />
        </mxCell>
        <mxCell id="IuoJ-QioQa-zz5Lr1bz--95" style="edgeStyle=orthogonalEdgeStyle;rounded=0;orthogonalLoop=1;jettySize=auto;html=1;exitX=1;exitY=0.25;exitDx=0;exitDy=0;entryX=0;entryY=0;entryDx=0;entryDy=0;endArrow=none;endFill=0;" parent="1" source="IuoJ-QioQa-zz5Lr1bz--96" target="IuoJ-QioQa-zz5Lr1bz--94" edge="1">
          <mxGeometry relative="1" as="geometry" />
        </mxCell>
        <mxCell id="IuoJ-QioQa-zz5Lr1bz--96" value="계좌 등록 정보" style="swimlane;whiteSpace=wrap;html=1;startSize=23;" parent="1" vertex="1">
          <mxGeometry x="560" y="1200" width="110" height="150" as="geometry" />
        </mxCell>
        <mxCell id="IuoJ-QioQa-zz5Lr1bz--97" value="카드사" style="text;html=1;align=center;verticalAlign=middle;resizable=0;points=[];autosize=1;strokeColor=none;fillColor=none;" parent="IuoJ-QioQa-zz5Lr1bz--96" vertex="1">
          <mxGeometry y="30" width="60" height="30" as="geometry" />
        </mxCell>
        <mxCell id="IuoJ-QioQa-zz5Lr1bz--98" value="명칭" style="text;html=1;align=center;verticalAlign=middle;resizable=0;points=[];autosize=1;strokeColor=none;fillColor=none;" parent="IuoJ-QioQa-zz5Lr1bz--96" vertex="1">
          <mxGeometry y="90" width="50" height="30" as="geometry" />
        </mxCell>
        <mxCell id="IuoJ-QioQa-zz5Lr1bz--99" value="메모" style="text;html=1;align=center;verticalAlign=middle;resizable=0;points=[];autosize=1;strokeColor=none;fillColor=none;" parent="IuoJ-QioQa-zz5Lr1bz--96" vertex="1">
          <mxGeometry y="120" width="50" height="30" as="geometry" />
        </mxCell>
        <mxCell id="IuoJ-QioQa-zz5Lr1bz--105" value="연결은행사" style="text;html=1;align=center;verticalAlign=middle;resizable=0;points=[];autosize=1;strokeColor=none;fillColor=none;" parent="IuoJ-QioQa-zz5Lr1bz--96" vertex="1">
          <mxGeometry y="60" width="80" height="30" as="geometry" />
        </mxCell>
        <mxCell id="IuoJ-QioQa-zz5Lr1bz--100" style="edgeStyle=orthogonalEdgeStyle;rounded=0;orthogonalLoop=1;jettySize=auto;html=1;exitX=1;exitY=0.5;exitDx=0;exitDy=0;exitPerimeter=0;entryX=1;entryY=0.5;entryDx=0;entryDy=0;" parent="1" source="IuoJ-QioQa-zz5Lr1bz--101" target="IuoJ-QioQa-zz5Lr1bz--94" edge="1">
          <mxGeometry relative="1" as="geometry">
            <Array as="points">
              <mxPoint x="810" y="1375" />
              <mxPoint x="810" y="1260" />
            </Array>
          </mxGeometry>
        </mxCell>
        <mxCell id="IuoJ-QioQa-zz5Lr1bz--101" value="정보 유효성&lt;br&gt;체크" style="strokeWidth=2;html=1;shape=mxgraph.flowchart.decision;whiteSpace=wrap;" parent="1" vertex="1">
          <mxGeometry x="685" y="1340" width="110" height="70" as="geometry" />
        </mxCell>
        <mxCell id="IuoJ-QioQa-zz5Lr1bz--102" style="edgeStyle=orthogonalEdgeStyle;rounded=0;orthogonalLoop=1;jettySize=auto;html=1;exitX=0.5;exitY=1;exitDx=0;exitDy=0;entryX=0.5;entryY=0;entryDx=0;entryDy=0;entryPerimeter=0;" parent="1" source="IuoJ-QioQa-zz5Lr1bz--94" target="IuoJ-QioQa-zz5Lr1bz--101" edge="1">
          <mxGeometry relative="1" as="geometry" />
        </mxCell>
        <mxCell id="IuoJ-QioQa-zz5Lr1bz--103" value="False" style="text;html=1;align=center;verticalAlign=middle;resizable=0;points=[];autosize=1;strokeColor=none;fillColor=none;" parent="1" vertex="1">
          <mxGeometry x="810" y="1340" width="50" height="30" as="geometry" />
        </mxCell>
        <mxCell id="IuoJ-QioQa-zz5Lr1bz--104" value="[알림]&lt;br&gt;비유효 정보&lt;br&gt;재입력" style="strokeWidth=2;html=1;shape=mxgraph.flowchart.document2;whiteSpace=wrap;size=0.16;" parent="1" vertex="1">
          <mxGeometry x="1110" y="1170" width="80" height="75" as="geometry" />
        </mxCell>
        <mxCell id="IuoJ-QioQa-zz5Lr1bz--119" style="edgeStyle=orthogonalEdgeStyle;rounded=0;orthogonalLoop=1;jettySize=auto;html=1;exitX=0.5;exitY=1;exitDx=0;exitDy=0;exitPerimeter=0;" parent="1" source="IuoJ-QioQa-zz5Lr1bz--116" target="IuoJ-QioQa-zz5Lr1bz--118" edge="1">
          <mxGeometry relative="1" as="geometry" />
        </mxCell>
        <mxCell id="IuoJ-QioQa-zz5Lr1bz--122" style="edgeStyle=orthogonalEdgeStyle;rounded=0;orthogonalLoop=1;jettySize=auto;html=1;exitX=1;exitY=0.5;exitDx=0;exitDy=0;exitPerimeter=0;entryX=0.5;entryY=0;entryDx=0;entryDy=0;" parent="1" source="IuoJ-QioQa-zz5Lr1bz--116" target="IuoJ-QioQa-zz5Lr1bz--121" edge="1">
          <mxGeometry relative="1" as="geometry" />
        </mxCell>
        <mxCell id="IuoJ-QioQa-zz5Lr1bz--116" value="만기 유무" style="strokeWidth=2;html=1;shape=mxgraph.flowchart.decision;whiteSpace=wrap;" parent="1" vertex="1">
          <mxGeometry x="980" y="1020" width="110" height="50" as="geometry" />
        </mxCell>
        <mxCell id="IuoJ-QioQa-zz5Lr1bz--117" style="edgeStyle=orthogonalEdgeStyle;rounded=0;orthogonalLoop=1;jettySize=auto;html=1;exitX=0.5;exitY=1;exitDx=0;exitDy=0;entryX=0.5;entryY=0;entryDx=0;entryDy=0;entryPerimeter=0;" parent="1" source="IuoJ-QioQa-zz5Lr1bz--80" target="IuoJ-QioQa-zz5Lr1bz--116" edge="1">
          <mxGeometry relative="1" as="geometry" />
        </mxCell>
        <mxCell id="IuoJ-QioQa-zz5Lr1bz--118" value="거래정보&lt;br&gt;입력/수정" style="shape=parallelogram;html=1;strokeWidth=2;perimeter=parallelogramPerimeter;whiteSpace=wrap;rounded=1;arcSize=12;size=0.23;" parent="1" vertex="1">
          <mxGeometry x="977.5" y="1130" width="115" height="80" as="geometry" />
        </mxCell>
        <mxCell id="IuoJ-QioQa-zz5Lr1bz--120" value="True" style="text;html=1;align=center;verticalAlign=middle;resizable=0;points=[];autosize=1;strokeColor=none;fillColor=none;" parent="1" vertex="1">
          <mxGeometry x="1030" y="1080" width="50" height="30" as="geometry" />
        </mxCell>
        <mxCell id="IuoJ-QioQa-zz5Lr1bz--135" style="edgeStyle=orthogonalEdgeStyle;rounded=0;orthogonalLoop=1;jettySize=auto;html=1;exitX=0.5;exitY=1;exitDx=0;exitDy=0;" parent="1" source="IuoJ-QioQa-zz5Lr1bz--121" target="IuoJ-QioQa-zz5Lr1bz--125" edge="1">
          <mxGeometry relative="1" as="geometry" />
        </mxCell>
        <mxCell id="IuoJ-QioQa-zz5Lr1bz--121" value="거래정보&lt;br&gt;입력/수정" style="shape=parallelogram;html=1;strokeWidth=2;perimeter=parallelogramPerimeter;whiteSpace=wrap;rounded=1;arcSize=12;size=0.23;" parent="1" vertex="1">
          <mxGeometry x="1241" y="1130" width="115" height="80" as="geometry" />
        </mxCell>
        <mxCell id="IuoJ-QioQa-zz5Lr1bz--123" value="False" style="text;html=1;align=center;verticalAlign=middle;resizable=0;points=[];autosize=1;strokeColor=none;fillColor=none;" parent="1" vertex="1">
          <mxGeometry x="1092.5" y="1020" width="50" height="30" as="geometry" />
        </mxCell>
        <mxCell id="IuoJ-QioQa-zz5Lr1bz--128" style="edgeStyle=orthogonalEdgeStyle;rounded=0;orthogonalLoop=1;jettySize=auto;html=1;exitX=1;exitY=0.5;exitDx=0;exitDy=0;exitPerimeter=0;entryX=1;entryY=0.5;entryDx=0;entryDy=0;" parent="1" source="IuoJ-QioQa-zz5Lr1bz--124" target="IuoJ-QioQa-zz5Lr1bz--118" edge="1">
          <mxGeometry relative="1" as="geometry">
            <Array as="points">
              <mxPoint x="1100" y="1275" />
              <mxPoint x="1100" y="1170" />
            </Array>
          </mxGeometry>
        </mxCell>
        <mxCell id="IuoJ-QioQa-zz5Lr1bz--124" value="정보 유효성&lt;br&gt;체크" style="strokeWidth=2;html=1;shape=mxgraph.flowchart.decision;whiteSpace=wrap;" parent="1" vertex="1">
          <mxGeometry x="977.5" y="1240" width="110" height="70" as="geometry" />
        </mxCell>
        <mxCell id="IuoJ-QioQa-zz5Lr1bz--127" style="edgeStyle=orthogonalEdgeStyle;rounded=0;orthogonalLoop=1;jettySize=auto;html=1;exitX=1;exitY=0.5;exitDx=0;exitDy=0;exitPerimeter=0;entryX=1;entryY=0.5;entryDx=0;entryDy=0;" parent="1" source="IuoJ-QioQa-zz5Lr1bz--125" target="IuoJ-QioQa-zz5Lr1bz--121" edge="1">
          <mxGeometry relative="1" as="geometry">
            <Array as="points">
              <mxPoint x="1374" y="1275" />
              <mxPoint x="1374" y="1170" />
            </Array>
          </mxGeometry>
        </mxCell>
        <mxCell id="IuoJ-QioQa-zz5Lr1bz--125" value="정보 유효성&lt;br&gt;체크" style="strokeWidth=2;html=1;shape=mxgraph.flowchart.decision;whiteSpace=wrap;" parent="1" vertex="1">
          <mxGeometry x="1243.5" y="1240" width="110" height="70" as="geometry" />
        </mxCell>
        <mxCell id="IuoJ-QioQa-zz5Lr1bz--126" value="[알림]&lt;br&gt;비유효 정보&lt;br&gt;재입력" style="strokeWidth=2;html=1;shape=mxgraph.flowchart.document2;whiteSpace=wrap;size=0.16;" parent="1" vertex="1">
          <mxGeometry x="1380" y="1180" width="80" height="65" as="geometry" />
        </mxCell>
        <mxCell id="IuoJ-QioQa-zz5Lr1bz--129" value="False" style="text;html=1;align=center;verticalAlign=middle;resizable=0;points=[];autosize=1;strokeColor=none;fillColor=none;" parent="1" vertex="1">
          <mxGeometry x="1100" y="1240" width="50" height="30" as="geometry" />
        </mxCell>
        <mxCell id="IuoJ-QioQa-zz5Lr1bz--130" value="False" style="text;html=1;align=center;verticalAlign=middle;resizable=0;points=[];autosize=1;strokeColor=none;fillColor=none;" parent="1" vertex="1">
          <mxGeometry x="1370" y="1245" width="50" height="30" as="geometry" />
        </mxCell>
        <mxCell id="IuoJ-QioQa-zz5Lr1bz--131" value="[알림]&lt;br&gt;비유효 정보&lt;br&gt;재입력" style="strokeWidth=2;html=1;shape=mxgraph.flowchart.document2;whiteSpace=wrap;size=0.16;" parent="1" vertex="1">
          <mxGeometry x="820" y="1259" width="100" height="81" as="geometry" />
        </mxCell>
        <mxCell id="IuoJ-QioQa-zz5Lr1bz--136" style="edgeStyle=orthogonalEdgeStyle;rounded=0;orthogonalLoop=1;jettySize=auto;html=1;exitX=0.5;exitY=1;exitDx=0;exitDy=0;entryX=0.5;entryY=0;entryDx=0;entryDy=0;entryPerimeter=0;" parent="1" source="IuoJ-QioQa-zz5Lr1bz--118" target="IuoJ-QioQa-zz5Lr1bz--124" edge="1">
          <mxGeometry relative="1" as="geometry" />
        </mxCell>
        <mxCell id="IuoJ-QioQa-zz5Lr1bz--137" value="투자 등록 정보" style="swimlane;whiteSpace=wrap;html=1;startSize=23;" parent="1" vertex="1">
          <mxGeometry x="847.5" y="1010" width="130" height="180" as="geometry" />
        </mxCell>
        <mxCell id="IuoJ-QioQa-zz5Lr1bz--138" value="투자일자" style="text;html=1;align=center;verticalAlign=middle;resizable=0;points=[];autosize=1;strokeColor=none;fillColor=none;" parent="IuoJ-QioQa-zz5Lr1bz--137" vertex="1">
          <mxGeometry y="30" width="70" height="30" as="geometry" />
        </mxCell>
        <mxCell id="IuoJ-QioQa-zz5Lr1bz--139" value="투자대상" style="text;html=1;align=center;verticalAlign=middle;resizable=0;points=[];autosize=1;strokeColor=none;fillColor=none;" parent="IuoJ-QioQa-zz5Lr1bz--137" vertex="1">
          <mxGeometry y="90" width="70" height="30" as="geometry" />
        </mxCell>
        <mxCell id="IuoJ-QioQa-zz5Lr1bz--140" value="투자금액" style="text;html=1;align=center;verticalAlign=middle;resizable=0;points=[];autosize=1;strokeColor=none;fillColor=none;" parent="IuoJ-QioQa-zz5Lr1bz--137" vertex="1">
          <mxGeometry y="120" width="70" height="30" as="geometry" />
        </mxCell>
        <mxCell id="IuoJ-QioQa-zz5Lr1bz--141" value="만기일자" style="text;html=1;align=center;verticalAlign=middle;resizable=0;points=[];autosize=1;strokeColor=none;fillColor=none;" parent="IuoJ-QioQa-zz5Lr1bz--137" vertex="1">
          <mxGeometry y="60" width="70" height="30" as="geometry" />
        </mxCell>
        <mxCell id="IuoJ-QioQa-zz5Lr1bz--147" value="투자규모" style="text;html=1;align=center;verticalAlign=middle;resizable=0;points=[];autosize=1;strokeColor=none;fillColor=none;" parent="IuoJ-QioQa-zz5Lr1bz--137" vertex="1">
          <mxGeometry x="60" y="120" width="70" height="30" as="geometry" />
        </mxCell>
        <mxCell id="IuoJ-QioQa-zz5Lr1bz--148" value="메모" style="text;html=1;align=center;verticalAlign=middle;resizable=0;points=[];autosize=1;strokeColor=none;fillColor=none;" parent="IuoJ-QioQa-zz5Lr1bz--137" vertex="1">
          <mxGeometry y="150" width="50" height="30" as="geometry" />
        </mxCell>
        <mxCell id="IuoJ-QioQa-zz5Lr1bz--162" value="투자종류" style="text;html=1;align=center;verticalAlign=middle;resizable=0;points=[];autosize=1;strokeColor=none;fillColor=none;" parent="IuoJ-QioQa-zz5Lr1bz--137" vertex="1">
          <mxGeometry x="60" y="90" width="70" height="30" as="geometry" />
        </mxCell>
        <mxCell id="IuoJ-QioQa-zz5Lr1bz--168" value="" style="edgeStyle=orthogonalEdgeStyle;rounded=0;orthogonalLoop=1;jettySize=auto;html=1;entryX=0.75;entryY=0;entryDx=0;entryDy=0;endArrow=none;endFill=0;" parent="1" source="IuoJ-QioQa-zz5Lr1bz--149" target="IuoJ-QioQa-zz5Lr1bz--121" edge="1">
          <mxGeometry relative="1" as="geometry">
            <mxPoint x="1280" y="1085.4999999999998" as="targetPoint" />
          </mxGeometry>
        </mxCell>
        <mxCell id="IuoJ-QioQa-zz5Lr1bz--149" value="투자 등록 정보" style="swimlane;whiteSpace=wrap;html=1;startSize=23;" parent="1" vertex="1">
          <mxGeometry x="1370" y="1010" width="140" height="151" as="geometry" />
        </mxCell>
        <mxCell id="IuoJ-QioQa-zz5Lr1bz--150" value="투자일자" style="text;html=1;align=center;verticalAlign=middle;resizable=0;points=[];autosize=1;strokeColor=none;fillColor=none;" parent="IuoJ-QioQa-zz5Lr1bz--149" vertex="1">
          <mxGeometry y="30" width="70" height="30" as="geometry" />
        </mxCell>
        <mxCell id="IuoJ-QioQa-zz5Lr1bz--151" value="투자대상" style="text;html=1;align=center;verticalAlign=middle;resizable=0;points=[];autosize=1;strokeColor=none;fillColor=none;" parent="IuoJ-QioQa-zz5Lr1bz--149" vertex="1">
          <mxGeometry y="60" width="70" height="30" as="geometry" />
        </mxCell>
        <mxCell id="IuoJ-QioQa-zz5Lr1bz--152" value="투자금액" style="text;html=1;align=center;verticalAlign=middle;resizable=0;points=[];autosize=1;strokeColor=none;fillColor=none;" parent="IuoJ-QioQa-zz5Lr1bz--149" vertex="1">
          <mxGeometry y="90" width="70" height="30" as="geometry" />
        </mxCell>
        <mxCell id="IuoJ-QioQa-zz5Lr1bz--154" value="투자규모" style="text;html=1;align=center;verticalAlign=middle;resizable=0;points=[];autosize=1;strokeColor=none;fillColor=none;" parent="IuoJ-QioQa-zz5Lr1bz--149" vertex="1">
          <mxGeometry x="70" y="90" width="70" height="30" as="geometry" />
        </mxCell>
        <mxCell id="IuoJ-QioQa-zz5Lr1bz--155" value="메모" style="text;html=1;align=center;verticalAlign=middle;resizable=0;points=[];autosize=1;strokeColor=none;fillColor=none;" parent="IuoJ-QioQa-zz5Lr1bz--149" vertex="1">
          <mxGeometry y="120" width="50" height="30" as="geometry" />
        </mxCell>
        <mxCell id="IuoJ-QioQa-zz5Lr1bz--164" value="투자종류" style="text;html=1;align=center;verticalAlign=middle;resizable=0;points=[];autosize=1;strokeColor=none;fillColor=none;" parent="IuoJ-QioQa-zz5Lr1bz--149" vertex="1">
          <mxGeometry x="70" y="60" width="70" height="30" as="geometry" />
        </mxCell>
        <mxCell id="IuoJ-QioQa-zz5Lr1bz--161" style="edgeStyle=orthogonalEdgeStyle;rounded=0;orthogonalLoop=1;jettySize=auto;html=1;exitX=1;exitY=0.5;exitDx=0;exitDy=0;entryX=0.25;entryY=0;entryDx=0;entryDy=0;endArrow=none;endFill=0;" parent="1" source="IuoJ-QioQa-zz5Lr1bz--137" target="IuoJ-QioQa-zz5Lr1bz--118" edge="1">
          <mxGeometry relative="1" as="geometry" />
        </mxCell>
        <mxCell id="IuoJ-QioQa-zz5Lr1bz--206" style="edgeStyle=orthogonalEdgeStyle;rounded=0;orthogonalLoop=1;jettySize=auto;html=1;exitX=0.5;exitY=1;exitDx=0;exitDy=0;" parent="1" source="IuoJ-QioQa-zz5Lr1bz--169" target="IuoJ-QioQa-zz5Lr1bz--205" edge="1">
          <mxGeometry relative="1" as="geometry" />
        </mxCell>
        <mxCell id="IuoJ-QioQa-zz5Lr1bz--208" style="edgeStyle=orthogonalEdgeStyle;rounded=0;orthogonalLoop=1;jettySize=auto;html=1;exitX=0.5;exitY=1;exitDx=0;exitDy=0;" parent="1" source="IuoJ-QioQa-zz5Lr1bz--169" target="IuoJ-QioQa-zz5Lr1bz--207" edge="1">
          <mxGeometry relative="1" as="geometry" />
        </mxCell>
        <mxCell id="IuoJ-QioQa-zz5Lr1bz--169" value="투자 현황" style="rounded=1;whiteSpace=wrap;html=1;strokeWidth=2;" parent="1" vertex="1">
          <mxGeometry x="1980" y="830" width="110" height="50" as="geometry" />
        </mxCell>
        <mxCell id="IuoJ-QioQa-zz5Lr1bz--193" style="edgeStyle=orthogonalEdgeStyle;rounded=0;orthogonalLoop=1;jettySize=auto;html=1;exitX=0.5;exitY=1;exitDx=0;exitDy=0;entryX=0.5;entryY=0;entryDx=0;entryDy=0;" parent="1" source="IuoJ-QioQa-zz5Lr1bz--171" target="IuoJ-QioQa-zz5Lr1bz--192" edge="1">
          <mxGeometry relative="1" as="geometry" />
        </mxCell>
        <mxCell id="IuoJ-QioQa-zz5Lr1bz--171" value="월간 수입/소비&lt;br&gt;&amp;nbsp;현황" style="rounded=1;whiteSpace=wrap;html=1;strokeWidth=2;fillColor=#fff2cc;strokeColor=#d6b656;" parent="1" vertex="1">
          <mxGeometry x="1530" y="925" width="110" height="50" as="geometry" />
        </mxCell>
        <mxCell id="IuoJ-QioQa-zz5Lr1bz--196" style="edgeStyle=orthogonalEdgeStyle;rounded=0;orthogonalLoop=1;jettySize=auto;html=1;exitX=0.5;exitY=1;exitDx=0;exitDy=0;" parent="1" source="IuoJ-QioQa-zz5Lr1bz--174" target="IuoJ-QioQa-zz5Lr1bz--195" edge="1">
          <mxGeometry relative="1" as="geometry" />
        </mxCell>
        <mxCell id="IuoJ-QioQa-zz5Lr1bz--174" value="월간 예산" style="rounded=1;whiteSpace=wrap;html=1;strokeWidth=2;fillColor=#fff2cc;strokeColor=#d6b656;" parent="1" vertex="1">
          <mxGeometry x="1670" y="925" width="110" height="50" as="geometry" />
        </mxCell>
        <mxCell id="IuoJ-QioQa-zz5Lr1bz--230" style="edgeStyle=orthogonalEdgeStyle;rounded=0;orthogonalLoop=1;jettySize=auto;html=1;exitX=0.5;exitY=1;exitDx=0;exitDy=0;" parent="1" source="IuoJ-QioQa-zz5Lr1bz--175" target="IuoJ-QioQa-zz5Lr1bz--197" edge="1">
          <mxGeometry relative="1" as="geometry" />
        </mxCell>
        <mxCell id="IuoJ-QioQa-zz5Lr1bz--175" value="특별 예산" style="rounded=1;whiteSpace=wrap;html=1;strokeWidth=2;fillColor=#fff2cc;strokeColor=#d6b656;" parent="1" vertex="1">
          <mxGeometry x="1820" y="925" width="110" height="50" as="geometry" />
        </mxCell>
        <mxCell id="IuoJ-QioQa-zz5Lr1bz--178" style="edgeStyle=orthogonalEdgeStyle;rounded=0;orthogonalLoop=1;jettySize=auto;html=1;exitX=0;exitY=0.5;exitDx=0;exitDy=0;entryX=0.959;entryY=0.193;entryDx=0;entryDy=0;entryPerimeter=0;" parent="1" source="IuoJ-QioQa-zz5Lr1bz--18" target="IuoJ-QioQa-zz5Lr1bz--26" edge="1">
          <mxGeometry relative="1" as="geometry" />
        </mxCell>
        <mxCell id="IuoJ-QioQa-zz5Lr1bz--180" value="거래 정보 리스트&lt;br&gt;보기" style="rounded=1;whiteSpace=wrap;html=1;strokeWidth=2;" parent="1" vertex="1">
          <mxGeometry x="180" y="920" width="110" height="50" as="geometry" />
        </mxCell>
        <mxCell id="IuoJ-QioQa-zz5Lr1bz--185" style="edgeStyle=orthogonalEdgeStyle;rounded=0;orthogonalLoop=1;jettySize=auto;html=1;exitX=1;exitY=0.5;exitDx=0;exitDy=0;exitPerimeter=0;entryX=0.5;entryY=1;entryDx=0;entryDy=0;" parent="1" source="IuoJ-QioQa-zz5Lr1bz--181" target="IuoJ-QioQa-zz5Lr1bz--184" edge="1">
          <mxGeometry relative="1" as="geometry" />
        </mxCell>
        <mxCell id="IuoJ-QioQa-zz5Lr1bz--189" style="edgeStyle=orthogonalEdgeStyle;rounded=0;orthogonalLoop=1;jettySize=auto;html=1;exitX=0;exitY=0.5;exitDx=0;exitDy=0;exitPerimeter=0;entryX=0;entryY=0.5;entryDx=0;entryDy=0;" parent="1" source="IuoJ-QioQa-zz5Lr1bz--181" target="IuoJ-QioQa-zz5Lr1bz--180" edge="1">
          <mxGeometry relative="1" as="geometry">
            <Array as="points">
              <mxPoint x="140" y="1040" />
              <mxPoint x="140" y="945" />
            </Array>
          </mxGeometry>
        </mxCell>
        <mxCell id="IuoJ-QioQa-zz5Lr1bz--181" value="기간 재설정" style="strokeWidth=2;html=1;shape=mxgraph.flowchart.decision;whiteSpace=wrap;" parent="1" vertex="1">
          <mxGeometry x="180" y="1020" width="110" height="40" as="geometry" />
        </mxCell>
        <mxCell id="IuoJ-QioQa-zz5Lr1bz--182" style="edgeStyle=orthogonalEdgeStyle;rounded=0;orthogonalLoop=1;jettySize=auto;html=1;exitX=0.5;exitY=1;exitDx=0;exitDy=0;entryX=0.5;entryY=0;entryDx=0;entryDy=0;entryPerimeter=0;" parent="1" source="IuoJ-QioQa-zz5Lr1bz--180" target="IuoJ-QioQa-zz5Lr1bz--181" edge="1">
          <mxGeometry relative="1" as="geometry" />
        </mxCell>
        <mxCell id="IuoJ-QioQa-zz5Lr1bz--186" style="edgeStyle=orthogonalEdgeStyle;rounded=0;orthogonalLoop=1;jettySize=auto;html=1;exitX=0;exitY=0.5;exitDx=0;exitDy=0;entryX=1;entryY=0.5;entryDx=0;entryDy=0;" parent="1" source="IuoJ-QioQa-zz5Lr1bz--184" target="IuoJ-QioQa-zz5Lr1bz--180" edge="1">
          <mxGeometry relative="1" as="geometry" />
        </mxCell>
        <mxCell id="IuoJ-QioQa-zz5Lr1bz--184" value="거래리스트&lt;br&gt;불러오기" style="rounded=1;whiteSpace=wrap;html=1;strokeWidth=2;" parent="1" vertex="1">
          <mxGeometry x="310" y="920" width="110" height="50" as="geometry" />
        </mxCell>
        <mxCell id="IuoJ-QioQa-zz5Lr1bz--190" value="False" style="text;html=1;align=center;verticalAlign=middle;resizable=0;points=[];autosize=1;strokeColor=none;fillColor=none;" parent="1" vertex="1">
          <mxGeometry x="140" y="990" width="50" height="30" as="geometry" />
        </mxCell>
        <mxCell id="IuoJ-QioQa-zz5Lr1bz--191" value="True" style="text;html=1;align=center;verticalAlign=middle;resizable=0;points=[];autosize=1;strokeColor=none;fillColor=none;" parent="1" vertex="1">
          <mxGeometry x="360" y="1000" width="50" height="30" as="geometry" />
        </mxCell>
        <mxCell id="IuoJ-QioQa-zz5Lr1bz--192" value="수입/소비 현황&lt;br&gt;보기" style="rounded=1;whiteSpace=wrap;html=1;strokeWidth=2;" parent="1" vertex="1">
          <mxGeometry x="1530" y="1015" width="110" height="50" as="geometry" />
        </mxCell>
        <mxCell id="IuoJ-QioQa-zz5Lr1bz--199" style="edgeStyle=orthogonalEdgeStyle;rounded=0;orthogonalLoop=1;jettySize=auto;html=1;exitX=0.5;exitY=1;exitDx=0;exitDy=0;entryX=0.5;entryY=0;entryDx=0;entryDy=0;" parent="1" source="IuoJ-QioQa-zz5Lr1bz--195" target="IuoJ-QioQa-zz5Lr1bz--225" edge="1">
          <mxGeometry relative="1" as="geometry">
            <mxPoint x="1722.5" y="1100" as="targetPoint" />
          </mxGeometry>
        </mxCell>
        <mxCell id="IuoJ-QioQa-zz5Lr1bz--195" value="월간 예산 설정&lt;br&gt;보기" style="rounded=1;whiteSpace=wrap;html=1;strokeWidth=2;" parent="1" vertex="1">
          <mxGeometry x="1670" y="1015" width="110" height="50" as="geometry" />
        </mxCell>
        <mxCell id="IuoJ-QioQa-zz5Lr1bz--203" style="edgeStyle=orthogonalEdgeStyle;rounded=0;orthogonalLoop=1;jettySize=auto;html=1;exitX=0.5;exitY=1;exitDx=0;exitDy=0;entryX=0.5;entryY=0;entryDx=0;entryDy=0;" parent="1" source="IuoJ-QioQa-zz5Lr1bz--197" target="IuoJ-QioQa-zz5Lr1bz--226" edge="1">
          <mxGeometry relative="1" as="geometry">
            <mxPoint x="1875" y="1100" as="targetPoint" />
          </mxGeometry>
        </mxCell>
        <mxCell id="IuoJ-QioQa-zz5Lr1bz--197" value="특별 예산 리스트" style="rounded=1;whiteSpace=wrap;html=1;strokeWidth=2;" parent="1" vertex="1">
          <mxGeometry x="1820" y="1015" width="110" height="50" as="geometry" />
        </mxCell>
        <mxCell id="IuoJ-QioQa-zz5Lr1bz--205" value="이익률&lt;br&gt;보기" style="rounded=1;whiteSpace=wrap;html=1;strokeWidth=2;fillColor=#fff2cc;strokeColor=#d6b656;" parent="1" vertex="1">
          <mxGeometry x="1980" y="920" width="110" height="50" as="geometry" />
        </mxCell>
        <mxCell id="IuoJ-QioQa-zz5Lr1bz--207" value="투자 비중 보기&lt;br&gt;보기" style="rounded=1;whiteSpace=wrap;html=1;strokeWidth=2;fillColor=#fff2cc;strokeColor=#d6b656;" parent="1" vertex="1">
          <mxGeometry x="2110" y="920" width="110" height="50" as="geometry" />
        </mxCell>
        <mxCell id="IuoJ-QioQa-zz5Lr1bz--214" style="edgeStyle=orthogonalEdgeStyle;rounded=0;orthogonalLoop=1;jettySize=auto;html=1;exitX=1;exitY=0.5;exitDx=0;exitDy=0;" parent="1" source="IuoJ-QioQa-zz5Lr1bz--209" target="IuoJ-QioQa-zz5Lr1bz--213" edge="1">
          <mxGeometry relative="1" as="geometry" />
        </mxCell>
        <mxCell id="IuoJ-QioQa-zz5Lr1bz--215" style="edgeStyle=orthogonalEdgeStyle;rounded=0;orthogonalLoop=1;jettySize=auto;html=1;exitX=1;exitY=0.5;exitDx=0;exitDy=0;entryX=0;entryY=0.5;entryDx=0;entryDy=0;" parent="1" source="IuoJ-QioQa-zz5Lr1bz--209" target="IuoJ-QioQa-zz5Lr1bz--212" edge="1">
          <mxGeometry relative="1" as="geometry" />
        </mxCell>
        <mxCell id="IuoJ-QioQa-zz5Lr1bz--216" style="edgeStyle=orthogonalEdgeStyle;rounded=0;orthogonalLoop=1;jettySize=auto;html=1;exitX=1;exitY=0.5;exitDx=0;exitDy=0;entryX=0;entryY=0.5;entryDx=0;entryDy=0;" parent="1" source="IuoJ-QioQa-zz5Lr1bz--209" target="IuoJ-QioQa-zz5Lr1bz--211" edge="1">
          <mxGeometry relative="1" as="geometry" />
        </mxCell>
        <mxCell id="IuoJ-QioQa-zz5Lr1bz--209" value="개인 설정" style="rounded=1;whiteSpace=wrap;html=1;strokeWidth=2;" parent="1" vertex="1">
          <mxGeometry x="970" y="640" width="110" height="50" as="geometry" />
        </mxCell>
        <mxCell id="IuoJ-QioQa-zz5Lr1bz--219" style="edgeStyle=orthogonalEdgeStyle;rounded=0;orthogonalLoop=1;jettySize=auto;html=1;exitX=1;exitY=0.5;exitDx=0;exitDy=0;" parent="1" source="IuoJ-QioQa-zz5Lr1bz--211" target="IuoJ-QioQa-zz5Lr1bz--217" edge="1">
          <mxGeometry relative="1" as="geometry" />
        </mxCell>
        <mxCell id="IuoJ-QioQa-zz5Lr1bz--220" style="edgeStyle=orthogonalEdgeStyle;rounded=0;orthogonalLoop=1;jettySize=auto;html=1;exitX=1;exitY=0.5;exitDx=0;exitDy=0;entryX=0;entryY=0.5;entryDx=0;entryDy=0;" parent="1" source="IuoJ-QioQa-zz5Lr1bz--211" target="IuoJ-QioQa-zz5Lr1bz--218" edge="1">
          <mxGeometry relative="1" as="geometry" />
        </mxCell>
        <mxCell id="IuoJ-QioQa-zz5Lr1bz--211" value="마이페이지" style="rounded=1;whiteSpace=wrap;html=1;strokeWidth=2;fillColor=#fff2cc;strokeColor=#d6b656;" parent="1" vertex="1">
          <mxGeometry x="1170" y="430" width="110" height="50" as="geometry" />
        </mxCell>
        <mxCell id="IuoJ-QioQa-zz5Lr1bz--223" style="edgeStyle=orthogonalEdgeStyle;rounded=0;orthogonalLoop=1;jettySize=auto;html=1;exitX=1;exitY=0.5;exitDx=0;exitDy=0;entryX=0;entryY=0.5;entryDx=0;entryDy=0;" parent="1" source="IuoJ-QioQa-zz5Lr1bz--212" target="IuoJ-QioQa-zz5Lr1bz--221" edge="1">
          <mxGeometry relative="1" as="geometry" />
        </mxCell>
        <mxCell id="IuoJ-QioQa-zz5Lr1bz--212" value="명칭 설정" style="rounded=1;whiteSpace=wrap;html=1;strokeWidth=2;fillColor=#fff2cc;strokeColor=#d6b656;" parent="1" vertex="1">
          <mxGeometry x="1170" y="535" width="110" height="50" as="geometry" />
        </mxCell>
        <mxCell id="IuoJ-QioQa-zz5Lr1bz--224" style="edgeStyle=orthogonalEdgeStyle;rounded=0;orthogonalLoop=1;jettySize=auto;html=1;exitX=1;exitY=0.5;exitDx=0;exitDy=0;entryX=0;entryY=0.5;entryDx=0;entryDy=0;" parent="1" source="IuoJ-QioQa-zz5Lr1bz--213" target="IuoJ-QioQa-zz5Lr1bz--222" edge="1">
          <mxGeometry relative="1" as="geometry" />
        </mxCell>
        <mxCell id="IuoJ-QioQa-zz5Lr1bz--213" value="분류 설정" style="rounded=1;whiteSpace=wrap;html=1;strokeWidth=2;fillColor=#fff2cc;strokeColor=#d6b656;" parent="1" vertex="1">
          <mxGeometry x="1170" y="640" width="110" height="50" as="geometry" />
        </mxCell>
        <mxCell id="IuoJ-QioQa-zz5Lr1bz--217" value="초기화/ 탈퇴" style="rounded=1;whiteSpace=wrap;html=1;strokeWidth=2;" parent="1" vertex="1">
          <mxGeometry x="1320" y="430" width="110" height="50" as="geometry" />
        </mxCell>
        <mxCell id="IuoJ-QioQa-zz5Lr1bz--218" value="비밀번호 변경" style="rounded=1;whiteSpace=wrap;html=1;strokeWidth=2;" parent="1" vertex="1">
          <mxGeometry x="1320" y="347.5" width="110" height="50" as="geometry" />
        </mxCell>
        <mxCell id="IuoJ-QioQa-zz5Lr1bz--221" value="거래대상/투자대상&lt;br&gt;별명 설정" style="rounded=1;whiteSpace=wrap;html=1;strokeWidth=2;" parent="1" vertex="1">
          <mxGeometry x="1320" y="535" width="110" height="50" as="geometry" />
        </mxCell>
        <mxCell id="IuoJ-QioQa-zz5Lr1bz--222" value="거래종류/투자종류&lt;br&gt;수정" style="rounded=1;whiteSpace=wrap;html=1;strokeWidth=2;" parent="1" vertex="1">
          <mxGeometry x="1320" y="640" width="110" height="50" as="geometry" />
        </mxCell>
        <mxCell id="IuoJ-QioQa-zz5Lr1bz--225" value="예산정보&lt;br style=&quot;border-color: var(--border-color);&quot;&gt;입력/수정" style="rounded=1;whiteSpace=wrap;html=1;strokeWidth=2;fillColor=#fff2cc;strokeColor=#d6b656;" parent="1" vertex="1">
          <mxGeometry x="1670" y="1111" width="110" height="50" as="geometry" />
        </mxCell>
        <mxCell id="IuoJ-QioQa-zz5Lr1bz--226" value="예산정보&lt;br style=&quot;border-color: var(--border-color);&quot;&gt;입력/수정" style="rounded=1;whiteSpace=wrap;html=1;strokeWidth=2;fillColor=#fff2cc;strokeColor=#d6b656;" parent="1" vertex="1">
          <mxGeometry x="1820" y="1111" width="110" height="50" as="geometry" />
        </mxCell>
      </root>
    </mxGraphModel>
  </diagram>
  <diagram id="wvJJEiGWdHtdxXDwqZhq" name="Pagearchitecture-mobile">
    <mxGraphModel dx="1418" dy="828" grid="1" gridSize="10" guides="1" tooltips="1" connect="1" arrows="1" fold="1" page="1" pageScale="1" pageWidth="827" pageHeight="1169" math="0" shadow="0">
      <root>
        <mxCell id="0" />
        <mxCell id="1" parent="0" />
        <mxCell id="x_2_LAzjRqH9f2M5sLc6-3" value="" style="edgeStyle=orthogonalEdgeStyle;rounded=0;orthogonalLoop=1;jettySize=auto;html=1;" parent="1" source="x_2_LAzjRqH9f2M5sLc6-1" target="x_2_LAzjRqH9f2M5sLc6-2" edge="1">
          <mxGeometry relative="1" as="geometry" />
        </mxCell>
        <mxCell id="x_2_LAzjRqH9f2M5sLc6-6" value="" style="edgeStyle=orthogonalEdgeStyle;rounded=0;orthogonalLoop=1;jettySize=auto;html=1;" parent="1" source="x_2_LAzjRqH9f2M5sLc6-1" target="x_2_LAzjRqH9f2M5sLc6-5" edge="1">
          <mxGeometry relative="1" as="geometry" />
        </mxCell>
        <mxCell id="x_2_LAzjRqH9f2M5sLc6-1" value="초기페이지&lt;br&gt;(로그인)" style="rounded=0;whiteSpace=wrap;html=1;fillColor=#fff2cc;strokeColor=#d6b656;" parent="1" vertex="1">
          <mxGeometry x="360" y="210" width="120" height="60" as="geometry" />
        </mxCell>
        <mxCell id="x_2_LAzjRqH9f2M5sLc6-4" style="edgeStyle=orthogonalEdgeStyle;rounded=0;orthogonalLoop=1;jettySize=auto;html=1;exitX=0.5;exitY=0;exitDx=0;exitDy=0;entryX=0.5;entryY=0;entryDx=0;entryDy=0;" parent="1" source="x_2_LAzjRqH9f2M5sLc6-2" target="x_2_LAzjRqH9f2M5sLc6-1" edge="1">
          <mxGeometry relative="1" as="geometry" />
        </mxCell>
        <mxCell id="x_2_LAzjRqH9f2M5sLc6-2" value="회원가입" style="rounded=0;whiteSpace=wrap;html=1;fillColor=#fff2cc;strokeColor=#d6b656;" parent="1" vertex="1">
          <mxGeometry x="120" y="210" width="120" height="60" as="geometry" />
        </mxCell>
        <mxCell id="uMiJTZ6iNT1CUMbtg33W-2" value="" style="edgeStyle=orthogonalEdgeStyle;rounded=0;orthogonalLoop=1;jettySize=auto;html=1;" parent="1" source="x_2_LAzjRqH9f2M5sLc6-5" target="uMiJTZ6iNT1CUMbtg33W-1" edge="1">
          <mxGeometry relative="1" as="geometry" />
        </mxCell>
        <mxCell id="x_2_LAzjRqH9f2M5sLc6-5" value="메인페이지" style="rounded=0;whiteSpace=wrap;html=1;fillColor=#fff2cc;strokeColor=#d6b656;" parent="1" vertex="1">
          <mxGeometry x="360" y="350" width="120" height="60" as="geometry" />
        </mxCell>
        <mxCell id="UHPjsHoQTAaPXlElbPzr-2" value="" style="edgeStyle=orthogonalEdgeStyle;rounded=0;orthogonalLoop=1;jettySize=auto;html=1;" edge="1" parent="1" source="uMiJTZ6iNT1CUMbtg33W-1" target="UHPjsHoQTAaPXlElbPzr-1">
          <mxGeometry relative="1" as="geometry" />
        </mxCell>
        <mxCell id="UHPjsHoQTAaPXlElbPzr-7" style="edgeStyle=orthogonalEdgeStyle;rounded=0;orthogonalLoop=1;jettySize=auto;html=1;exitX=0.5;exitY=1;exitDx=0;exitDy=0;entryX=0.5;entryY=0;entryDx=0;entryDy=0;" edge="1" parent="1" source="uMiJTZ6iNT1CUMbtg33W-1" target="UHPjsHoQTAaPXlElbPzr-5">
          <mxGeometry relative="1" as="geometry" />
        </mxCell>
        <mxCell id="UHPjsHoQTAaPXlElbPzr-10" style="edgeStyle=orthogonalEdgeStyle;rounded=0;orthogonalLoop=1;jettySize=auto;html=1;exitX=0.5;exitY=1;exitDx=0;exitDy=0;entryX=0.5;entryY=0;entryDx=0;entryDy=0;" edge="1" parent="1" source="uMiJTZ6iNT1CUMbtg33W-1" target="UHPjsHoQTAaPXlElbPzr-9">
          <mxGeometry relative="1" as="geometry" />
        </mxCell>
        <mxCell id="UHPjsHoQTAaPXlElbPzr-12" style="edgeStyle=orthogonalEdgeStyle;rounded=0;orthogonalLoop=1;jettySize=auto;html=1;exitX=0;exitY=0.5;exitDx=0;exitDy=0;entryX=0;entryY=0.75;entryDx=0;entryDy=0;" edge="1" parent="1" source="uMiJTZ6iNT1CUMbtg33W-1" target="x_2_LAzjRqH9f2M5sLc6-5">
          <mxGeometry relative="1" as="geometry">
            <mxPoint x="300" y="420" as="targetPoint" />
          </mxGeometry>
        </mxCell>
        <mxCell id="uMiJTZ6iNT1CUMbtg33W-1" value="메뉴&lt;br&gt;(탭바)" style="ellipse;whiteSpace=wrap;html=1;fillColor=#d5e8d4;strokeColor=#82b366;rounded=0;" parent="1" vertex="1">
          <mxGeometry x="380" y="480" width="80" height="80" as="geometry" />
        </mxCell>
        <mxCell id="s44lZQXHXchW99lPFdBu-2" value="" style="edgeStyle=orthogonalEdgeStyle;rounded=0;orthogonalLoop=1;jettySize=auto;html=1;fillColor=#f8cecc;strokeColor=#b85450;" edge="1" parent="1" source="UHPjsHoQTAaPXlElbPzr-1" target="s44lZQXHXchW99lPFdBu-1">
          <mxGeometry relative="1" as="geometry" />
        </mxCell>
        <mxCell id="UHPjsHoQTAaPXlElbPzr-1" value="가계부" style="whiteSpace=wrap;html=1;fillColor=#fff2cc;strokeColor=#d6b656;rounded=0;" vertex="1" parent="1">
          <mxGeometry x="280" y="630" width="120" height="60" as="geometry" />
        </mxCell>
        <mxCell id="s44lZQXHXchW99lPFdBu-5" value="" style="edgeStyle=orthogonalEdgeStyle;rounded=0;orthogonalLoop=1;jettySize=auto;html=1;" edge="1" parent="1" source="UHPjsHoQTAaPXlElbPzr-5" target="s44lZQXHXchW99lPFdBu-4">
          <mxGeometry relative="1" as="geometry" />
        </mxCell>
        <mxCell id="UHPjsHoQTAaPXlElbPzr-5" value="투자정보" style="whiteSpace=wrap;html=1;fillColor=#fff2cc;strokeColor=#d6b656;rounded=0;" vertex="1" parent="1">
          <mxGeometry x="440" y="630" width="120" height="60" as="geometry" />
        </mxCell>
        <mxCell id="UHPjsHoQTAaPXlElbPzr-9" value="통계정보" style="whiteSpace=wrap;html=1;fillColor=#fff2cc;strokeColor=#d6b656;rounded=0;" vertex="1" parent="1">
          <mxGeometry x="600" y="630" width="120" height="60" as="geometry" />
        </mxCell>
        <mxCell id="s44lZQXHXchW99lPFdBu-1" value="거래 정보 입력" style="whiteSpace=wrap;html=1;fillColor=#fff2cc;strokeColor=#d6b656;rounded=0;" vertex="1" parent="1">
          <mxGeometry x="80" y="630" width="120" height="60" as="geometry" />
        </mxCell>
        <mxCell id="s44lZQXHXchW99lPFdBu-4" value="투자정보 입력" style="whiteSpace=wrap;html=1;fillColor=#fff2cc;strokeColor=#d6b656;rounded=0;" vertex="1" parent="1">
          <mxGeometry x="440" y="770" width="120" height="60" as="geometry" />
        </mxCell>
      </root>
    </mxGraphModel>
  </diagram>
</mxfile>
